<svg xmlns="http://www.w3.org/2000/svg" width="30" height="30" viewBox="0 0 30 30"><path d="M19.5 9.375a1.13 1.13 0 0 0-1.125 1.125c0 .296.12.586.33.796.209.208.5.329.795.329.297 0 .586-.12.796-.33.21-.209.329-.5.329-.795 0-.297-.12-.587-.33-.796a1.13 1.13 0 0 0-.795-.329zM15 10.5a4.505 4.505 0 0 0-4.5 4.5c0 2.481 2.019 4.5 4.5 4.5s4.5-2.019 4.5-4.5-2.019-4.5-4.5-4.5zM19.033 6A4.973 4.973 0 0 1 24 10.967v8.066A4.973 4.973 0 0 1 19.033 24h-8.066A4.973 4.973 0 0 1 6 19.033v-8.066A4.973 4.973 0 0 1 10.967 6h8.066zM15 17.95A2.954 2.954 0 0 0 17.95 15 2.954 2.954 0 0 0 15 12.05 2.954 2.954 0 0 0 12.05 15 2.954 2.954 0 0 0 15 17.95z"/></svg>