<svg width="64" height="63" viewBox="0 0 64 63" xmlns="http://www.w3.org/2000/svg" xmlns:xlink="http://www.w3.org/1999/xlink"><title>noun_991591_cc</title><desc>Created using Figma</desc><use xlink:href="#a" transform="translate(2 2.41)" fill="#FFF"/><use xlink:href="#b" transform="translate(23.46 18.13)" fill="#FFF"/><defs><path id="a" d="M.367 33.82l-1.483.22.001.01.002.012 1.48-.241zm59.53 0l1.482.234.001-.007.002-.008-1.484-.218zm.368-4.556l-1.5-.014v.014h1.5zM30.206-1.5C12.74-1.5-1.5 12.228-1.5 29.264h3C1.5 13.974 14.306 1.5 30.206 1.5v-3zM-1.5 29.264c.002 1.64.158 3.244.384 4.775l2.967-.437c-.215-1.46-.353-2.845-.351-4.338h-3zm.387 4.798c2.4 14.703 15.54 25.894 31.245 25.894v-3c-14.28 0-26.128-10.169-28.284-23.377l-2.96.483zm31.245 25.894c15.7 0 28.922-11.187 31.247-25.902l-2.963-.468c-2.085 13.196-13.998 23.37-28.283 23.37v3zm31.25-25.917c.225-1.534.381-3.21.383-4.775h-3c.002 1.425-.136 2.882-.351 4.338l2.968.437zm.383-4.762C61.92 12.228 47.669-1.5 30.206-1.5v3c15.903 0 28.698 12.474 28.56 27.75l2.999.027z"/><path id="b" d="M21.975 15.534L3.822 26.5C2.132 27.496 0 26.357 0 24.434v-22C0 .51 2.131-.629 3.822.367l18.153 10.965c1.617 1.068 1.617 3.275 0 4.201z"/></defs></svg>