<svg width="15" height="18" viewBox="0 0 15 18" xmlns="http://www.w3.org/2000/svg" xmlns:xlink="http://www.w3.org/1999/xlink"><title>Group</title><desc>Created using Figma</desc><use xlink:href="#a" transform="translate(0 5.06)"/><use xlink:href="#b" transform="translate(7.21)"/><use xlink:href="#c" transform="translate(4.42)"/><defs><path id="a" d="M13.821 12.842H1.18c-.662 0-1.179-.378-1.179-.87V.87C0 .383.517 0 1.179 0h3.188c.16 0 .289.127.289.284 0 .157-.13.284-.289.284H1.18C.812.568.577.747.577.87v11.103c0 .123.235.301.602.301H13.82c.367 0 .602-.178.602-.301V.87c0-.123-.235-.302-.602-.302h-3.244a.286.286 0 0 1-.288-.284c0-.157.129-.284.288-.284h3.244c.663 0 1.18.379 1.18.87v11.103c0 .489-.517.87-1.179.87z"/><path id="b" d="M.288 11.732A.286.286 0 0 1 0 11.448V.284C0 .127.13 0 .288 0c.16 0 .289.127.289.284v11.164c0 .157-.13.284-.289.284z"/><path id="c" d="M5.885 3.325a.29.29 0 0 1-.204-.083L3.083.686.485 3.244a.292.292 0 0 1-.4-.007.281.281 0 0 1-.008-.395L2.88.083a.292.292 0 0 1 .408 0L6.09 2.842a.281.281 0 0 1 .062.31.289.289 0 0 1-.266.175v-.002z"/></defs></svg>