<svg width="99" height="56" viewBox="0 0 99 56" xmlns="http://www.w3.org/2000/svg" xmlns:xlink="http://www.w3.org/1999/xlink"><title>noun_546272_cc</title><desc>Created using Figma</desc><use xlink:href="#a"/><use xlink:href="#b" transform="translate(2.91 44.211)"/><use xlink:href="#c" transform="translate(10.19 26.526)"/><use xlink:href="#d" transform="translate(29.12 26.526)"/><use xlink:href="#e" transform="translate(34.76)"/><use xlink:href="#e" transform="translate(18.74)"/><use xlink:href="#f" transform="translate(74.25 28)"/><use xlink:href="#f" transform="translate(53.87 28)"/><defs><path id="a" d="M93.177 53.053V20.632H5.824v32.42h1.455c.804 0 1.456.66 1.456 1.474S8.083 56 7.28 56H1.456C.652 56 0 55.34 0 54.526s.652-1.473 1.456-1.473h1.456V1.473C2.912.66 3.564 0 4.368 0c.804 0 1.456.66 1.456 1.474v16.21h87.352V1.474A1.467 1.467 0 0 1 94.633 0c.804 0 1.456.66 1.456 1.474v51.579h1.456c.804 0 1.456.66 1.456 1.473A1.467 1.467 0 0 1 97.544 56h-5.823c-.805 0-1.456-.66-1.456-1.474s.651-1.473 1.456-1.473h1.456z"/><path id="b" d="M91.72 0H1.457C.652 0 0 .66 0 1.474s.652 1.473 1.456 1.473H91.72c.804 0 1.456-.66 1.456-1.473A1.464 1.464 0 0 0 91.72 0z"/><path id="c" fill-rule="evenodd" d="M1.456 14.737c-.804 0-1.456-.66-1.456-1.474V5.897C0 2.643 2.61 0 5.819 0h4.377c3.216 0 5.819 2.636 5.819 5.897v7.366c0 .814-.652 1.474-1.456 1.474H1.456zm8.74-11.79H5.819c-1.6 0-2.907 1.324-2.907 2.95v5.893h10.191V5.897c0-1.634-1.3-2.95-2.907-2.95z"/><path id="d" fill-rule="evenodd" d="M0 13.263V5.897C0 2.643 2.61 0 5.819 0h4.377c3.216 0 5.819 2.636 5.819 5.897v7.366c0 .814-.652 1.474-1.456 1.474H1.456c-.804 0-1.456-.66-1.456-1.474zM10.196 2.947H5.819c-1.6 0-2.907 1.324-2.907 2.95v5.893h10.191V5.897c0-1.634-1.3-2.95-2.907-2.95z"/><path id="e" fill-rule="evenodd" d="M3.188 13.78L.354 6.132C-.849 2.884 1.126 0 4.547 0h4.377c3.43 0 5.4 2.873 4.192 6.131l-2.834 7.65a1.456 1.456 0 0 1-1.363.956H4.551c-.607 0-1.15-.381-1.363-.956zM8.923 2.948H4.547c-1.388 0-1.956.829-1.466 2.15l2.504 6.692h2.388l2.417-6.693c.492-1.33-.069-2.149-1.467-2.149z"/><path id="f" fill-rule="evenodd" d="M.015 11.581l.839-5.94C1.297 2.497 4.152 0 7.293 0h1.43c3.14 0 5.996 2.501 6.44 5.64L16 11.581c.125.888-.555 1.682-1.44 1.682H1.455c-.886 0-1.566-.794-1.44-1.682zm8.707-8.634H7.293c-1.694 0-3.319 1.422-3.557 3.11l-.605 4.259h9.826l-.678-4.26c-.238-1.685-1.863-3.109-3.557-3.109z"/></defs></svg>