<svg width="99" height="81" viewBox="0 0 99 81" xmlns="http://www.w3.org/2000/svg" xmlns:xlink="http://www.w3.org/1999/xlink"><title>balance</title><desc>Created using Figma</desc><use xlink:href="#a" transform="translate(56.38 6.18)"/><use xlink:href="#b" transform="translate(6.34 14.15)"/><use xlink:href="#c" transform="translate(61.72 41.16)"/><use xlink:href="#d" transform="translate(61.72 9.03)"/><use xlink:href="#e" transform="translate(.12 50.76)"/><use xlink:href="#f" transform="translate(.12 18.63)"/><use xlink:href="#g" transform="translate(39 3)"/><use xlink:href="#h" transform="translate(48 22)"/><use xlink:href="#i" transform="translate(48)"/><use xlink:href="#j" transform="translate(29 77)"/><defs><path id="a" d="M1.475 7.941c-.708 0-1.334-.49-1.455-1.184-.133-.773.41-1.498 1.213-1.628L33.157.018c.806-.122 1.565.39 1.7 1.164.134.77-.41 1.498-1.212 1.628L1.72 7.92c-.08.014-.162.02-.245.02z"/><path id="b" d="M1.475 7.985C.767 7.985.141 7.495.02 6.8c-.133-.77.41-1.498 1.213-1.628L33.405.022c.815-.139 1.565.394 1.7 1.164.134.77-.41 1.498-1.212 1.628L1.72 7.964a1.43 1.43 0 0 1-.245.02z"/><path id="c" fill-rule="evenodd" d="M0 1.483C0 11.564 8.239 19.77 18.363 19.77c10.128 0 18.367-8.203 18.367-18.287C36.73.665 36.062 0 35.24 0H1.49C.667 0 0 .665 0 1.483zm18.363 15.32c-7.979 0-14.56-6.082-15.312-13.836H33.68c-.754 7.754-7.333 13.836-15.316 13.836z"/><path id="d" d="M1.488 35.097a1.483 1.483 0 0 1-1.32-2.172L17.042.735c.515-.98 2.127-.98 2.643 0l16.876 32.19a1.483 1.483 0 0 1-.632 2.003 1.5 1.5 0 0 1-2.01-.63L18.364 4.63 2.81 34.3a1.496 1.496 0 0 1-1.323.798z"/><path id="e" fill-rule="evenodd" d="M0 1.483C0 11.564 8.239 19.77 18.366 19.77c10.125 0 18.364-8.206 18.364-18.287C36.73.665 36.062 0 35.24 0H1.49C.667 0 0 .665 0 1.483zm18.366 15.32c-7.982 0-14.564-6.082-15.315-13.836H33.68c-.751 7.754-7.333 13.836-15.313 13.836z"/><path id="f" d="M35.241 35.097a1.497 1.497 0 0 1-1.323-.798L18.365 4.629 2.81 34.3a1.499 1.499 0 0 1-2.01.629 1.483 1.483 0 0 1-.633-2.003L17.045.735c.515-.98 2.127-.98 2.643 0l16.873 32.19a1.483 1.483 0 0 1-1.32 2.172z"/><path id="g" fill-rule="evenodd" d="M0 10.998C0 17.066 4.71 22 10.5 22S21 17.068 21 10.998C21 4.936 16.29 0 10.5 0S0 4.935 0 10.998zm2.957.004c0-4.356 3.383-7.9 7.543-7.9s7.543 3.544 7.543 7.9c0 4.355-3.382 7.903-7.543 7.903-4.16 0-7.543-3.548-7.543-7.904z"/><path id="h" d="M1.5 59C.672 59 0 58.333 0 57.51V1.49C0 .667.672 0 1.5 0S3 .667 3 1.49v56.02C3 58.333 2.328 59 1.5 59z"/><path id="i" d="M1.5 8C.672 8 0 7.19 0 6.193V1.807C0 .809.672 0 1.5 0S3 .81 3 1.807v4.386C3 7.191 2.328 8 1.5 8z"/><path id="j" d="M41.485 3H1.515A1.508 1.508 0 0 1 0 1.5C0 .672.679 0 1.515 0h39.97C42.321 0 43 .672 43 1.5S42.324 3 41.485 3z"/></defs></svg>