<svg width="99" height="100" viewBox="0 0 99 100" xmlns="http://www.w3.org/2000/svg" xmlns:xlink="http://www.w3.org/1999/xlink"><title>noun_969537_cc</title><desc>Created using Figma</desc><use xlink:href="#a" transform="translate(.57 47.6)"/><use xlink:href="#b" transform="translate(50.72 17.1)"/><use xlink:href="#c" transform="translate(35.89 .12)"/><defs><path id="a" fill-rule="evenodd" d="M19.513 51.585a3.764 3.764 0 0 1-2.29.775 3.745 3.745 0 0 1-2.847-1.301L.906 35.364c-1.323-1.53-1.18-3.88.322-5.236l9.898-8.988c5.282-5.54 10.11-8.935 15.192-10.681 5.812-2.011 10.35-.692 15.154.705.956.278 1.938.563 2.962.832 4.468 1.165 9.43 1.067 14.23.97l.092-.001c.934-.018 1.852-.037 2.746-.044 1.33.012 6.815.219 7.05.229h.005c1.25 0 2.476.348 3.567.99l11.62-11.63c3.021-3.03 7.852-3.36 10.996-.757a8.038 8.038 0 0 1 .567 11.85L69.262 39.67c-.451.452-2.241 2.042-2.87 2.108-.843.089-1.664.089-2.46.089L32.24 41.83l-12.726 9.754zm12.88-9.872c.172.025.119.045-.079.06l.079-.06zM13.47 23.63l-9.949 9.032a.33.33 0 0 0-.027.466l13.477 15.699a.343.343 0 0 0 .469.04l13.479-10.332c.404-.31 32.487-.09 32.487-.09h.529c.018 0 2.125-.406 2.912-1.194l26.046-26.067a4.603 4.603 0 0 0 1.331-3.468 4.548 4.548 0 0 0-1.66-3.324c-1.799-1.49-4.611-1.253-6.4.539l-11.57 11.58a7.192 7.192 0 0 1 1.147 3.904c0 4.013-3.256 7.277-7.26 7.277H44.35c-1.049.094-2.944-.035-3.124-1.381-.135-1.004.98-2.042 1.901-2.042h25.355c2.117 0 3.84-1.729 3.84-3.855a3.812 3.812 0 0 0-1.13-2.713 3.808 3.808 0 0 0-2.71-1.13c-2.017-.085-5.969-.241-6.948-.229-.876.007-1.774.025-2.689.043l-.11.002h-.01c-4.795.095-10.228.202-15.153-1.082a115.21 115.21 0 0 1-3.053-.857c-4.635-1.348-8.297-2.41-13.085-.755-4.56 1.566-8.968 4.696-13.874 9.85-.028.03-.058.059-.089.087z"/><path id="b" fill-rule="evenodd" d="M0 10.992C0 4.932 4.927 0 10.983 0c6.057 0 10.983 4.932 10.983 10.992 0 6.06-4.927 10.992-10.983 10.992C4.927 21.984 0 17.053 0 10.992zm3.538 0a7.448 7.448 0 0 0 7.445 7.452 7.448 7.448 0 0 0 7.446-7.452 7.448 7.448 0 0 0-7.446-7.452 7.448 7.448 0 0 0-7.445 7.452z"/><path id="c" fill-rule="evenodd" d="M49.269 12.687l1.502 2.604a6.367 6.367 0 0 1-2.325 8.684l-.926.535a21.81 21.81 0 0 1 0 6.935l.926.535c3.034 1.751 4.077 5.647 2.325 8.683l-1.502 2.605a6.372 6.372 0 0 1-5.504 3.18 6.353 6.353 0 0 1-3.173-.852l-.93-.549a21.891 21.891 0 0 1-5.997 3.469v1.082c0 3.505-2.85 6.357-6.352 6.357h-3.005c-3.503 0-6.352-2.852-6.352-6.357v-1.082a21.901 21.901 0 0 1-5.99-3.462l-.938.541a6.348 6.348 0 0 1-3.173.852 6.371 6.371 0 0 1-5.503-3.178L.85 40.664a6.368 6.368 0 0 1 2.325-8.683l.926-.535a21.815 21.815 0 0 1 0-6.935l-.926-.535C.142 22.224-.901 18.328.85 15.292l1.502-2.604a6.37 6.37 0 0 1 5.504-3.18 6.34 6.34 0 0 1 3.173.852l.93.548a21.89 21.89 0 0 1 5.997-3.469V6.357c0-3.505 2.85-6.357 6.352-6.357h3.005c3.503 0 6.352 2.852 6.352 6.357V7.44a21.879 21.879 0 0 1 5.99 3.462l.938-.541a6.348 6.348 0 0 1 3.173-.852 6.372 6.372 0 0 1 5.503 3.179zm-3.572 8.79l.98-.568a2.82 2.82 0 0 0 1.032-3.85l-1.503-2.604a2.812 2.812 0 0 0-3.844-1.031l-.992.573a3.465 3.465 0 0 1-1.735.466 3.377 3.377 0 0 1-2.145-.764 18.372 18.372 0 0 0-5.173-2.989c-1.328-.5-2.189-1.79-2.189-3.211V6.355a2.816 2.816 0 0 0-2.814-2.817h-3.005a2.816 2.816 0 0 0-2.815 2.817V7.5c0 1.42-.86 2.71-2.188 3.211a18.408 18.408 0 0 0-5.173 2.989 3.373 3.373 0 0 1-2.145.764 3.469 3.469 0 0 1-1.735-.466l-.992-.573a2.813 2.813 0 0 0-3.845 1.031L3.914 17.06a2.818 2.818 0 0 0 1.03 3.847l.981.567a3.422 3.422 0 0 1 1.682 3.516 18.186 18.186 0 0 0 0 5.973 3.422 3.422 0 0 1-1.682 3.516l-.981.567a2.818 2.818 0 0 0-1.03 3.847l1.502 2.605a2.813 2.813 0 0 0 3.843 1.031l.993-.573a3.467 3.467 0 0 1 1.734-.466c.766 0 1.526.256 2.146.764a18.375 18.375 0 0 0 5.173 2.989c1.328.5 2.188 1.79 2.188 3.211V49.6a2.816 2.816 0 0 0 2.815 2.817h3.005a2.816 2.816 0 0 0 2.814-2.817v-1.144c0-1.42.86-2.71 2.188-3.211a18.377 18.377 0 0 0 5.174-2.989 3.377 3.377 0 0 1 2.145-.764c.596 0 1.196.155 1.735.466l.992.574a2.813 2.813 0 0 0 3.845-1.032l1.503-2.605a2.818 2.818 0 0 0-1.031-3.847l-.981-.567a3.421 3.421 0 0 1-1.682-3.516 18.178 18.178 0 0 0 0-5.973 3.421 3.421 0 0 1 1.682-3.516z"/></defs></svg>