<svg width="99" height="48" viewBox="0 0 99 48" xmlns="http://www.w3.org/2000/svg" xmlns:xlink="http://www.w3.org/1999/xlink"><title>noun_995739_cc</title><desc>Created using Figma</desc><use xlink:href="#a" transform="translate(53.62 37.64)"/><use xlink:href="#a" transform="translate(78.38 37.64)"/><use xlink:href="#a" transform="translate(66 37.64)"/><use xlink:href="#a" transform="translate(90.75 37.64)"/><use xlink:href="#a" transform="translate(47.44 37.64)"/><use xlink:href="#a" transform="translate(72.19 37.64)"/><use xlink:href="#a" transform="translate(59.81 37.64)"/><use xlink:href="#a" transform="translate(84.56 37.64)"/><use xlink:href="#b" transform="translate(74.54 16.79)"/><use xlink:href="#c" transform="translate(.12 .16)"/><defs><path id="a" d="M0 0h2.87v2.868H0V0z"/><path id="b" fill-rule="evenodd" d="M0 0h16.644v11.088H0V0zm3.061 8.22h10.905V2.869H3.06V8.22z"/><path id="c" fill-rule="evenodd" d="M56.437 10.515h36.158c3.253 0 6.122 2.867 5.93 6.309v24.47c0 3.25-2.677 6.118-6.121 6.118H47.063c-3.253 0-6.122-2.677-6.122-6.118v-7.073H21.618c-3.06 0-6.313-1.339-8.417-3.824l-2.296-2.676H8.992v4.588H1.913V29.44h4.21V2.868H0V0h8.992v4.588L45.724 0l10.713 10.515zM12.053 24.853l3.252 3.632c1.722 1.72 4.017 2.868 6.505 2.868h26.4c-.765-2.677-3.252-4.78-6.121-4.78h-4.974c-2.296 0-4.4-.955-5.931-2.485-1.722-1.72-1.722-4.397 0-6.117l9.757-9.75 3.061 3.058c.765-.573 1.913-.764 2.87-.764h5.165l-7.461-7.456L8.8 7.456v17.397h3.253zm28.888-1.147h-3.635c-1.53 0-2.87-.574-3.826-1.53a1.499 1.499 0 0 1 0-2.102l7.844-7.839.956.956c-.765.956-1.148 2.294-1.148 3.633v6.882h-.191zm33.288 20.838h18.366c1.722 0 3.253-1.338 3.253-3.25V16.632c0-1.72-1.34-3.25-3.253-3.25h-45.34c-1.723 0-3.253 1.339-3.253 3.25v7.074c4.209.765 7.46 4.588 7.46 8.985v1.53h-7.46v7.073c0 1.72 1.34 3.25 3.252 3.25H74.23z"/></defs></svg>