<svg width="97" height="49" viewBox="0 0 97 49" xmlns="http://www.w3.org/2000/svg" xmlns:xlink="http://www.w3.org/1999/xlink"><title>noun_832934_cc</title><desc>Created using Figma</desc><g transform="translate(1 1)"><use xlink:href="#a"/><use xlink:href="#b"/></g><defs><path id="a" fill-rule="evenodd" d="M45.561 30.545H1.077C.54 30.545 0 30.115 0 29.469V1.076C0 .538.43 0 1.077 0H45.67c.539 0 1.077.43 1.077 1.075V29.47c-.108.538-.538 1.076-1.185 1.076zm48.577 6.023A10.81 10.81 0 0 0 95 32.373v-4.087c0-2.259-1.723-4.087-3.985-4.302L75.72 22.478l-6.355-10.432c-.754-2.044-2.8-3.442-4.954-3.442H52.886c-1.831 0-3.34 1.506-3.34 3.334v21.618H33.282c-.646 0-1.077.43-1.077 1.076 0 .645.539 1.075 1.077 1.075h17.342c.646 0 1.077-.538 1.077-1.075 0-.215 0-.43-.108-.538 0-.108.027-.188.054-.269a.788.788 0 0 0 .054-.269V11.831c0-.646.538-1.183 1.185-1.183h11.632c1.293 0 2.585.86 3.016 2.15 0 .054.027.081.054.108.027.027.054.054.054.108l6.678 10.97a.81.81 0 0 0 .754.538l15.833 1.72c1.185.108 2.047 1.076 2.047 2.26v4.086a9.297 9.297 0 0 1-.647 3.442l-.43 1.183c-.54 1.075-1.508 1.72-2.693 1.72H83.26c-.539-3.441-3.555-6.13-7.11-6.13-3.661 0-6.57 2.689-7.108 6.13H31.02c-.538-3.441-3.554-6.13-7.108-6.13-3.662 0-6.679 2.689-7.11 6.13-.107-.107-.215-.107-.322-.107h-4.093c-.647 0-1.077.538-1.077 1.076 0 .645.538 1.075 1.077 1.075h4.093a.383.383 0 0 0 .161-.054.384.384 0 0 1 .162-.053c.537 3.44 3.554 6.13 7.109 6.13 3.662 0 6.57-2.689 7.108-6.13h37.914c.539 3.44 3.556 6.13 7.109 6.13 3.662 0 6.57-2.689 7.109-6.13h5.924c2.047 0 3.878-1.291 4.632-3.12l.43-1.182zM5.816 35.384h9.371c.539 0 1.077-.43 1.077-1.075s-.538-1.076-1.077-1.076h-9.37c-.647 0-1.078.43-1.078 1.076 0 .645.539 1.075 1.077 1.075zm23.265 4.41a5.053 5.053 0 0 0-5.061-5.055 5.053 5.053 0 0 0-5.063 5.055 5.053 5.053 0 0 0 5.063 5.055c2.8 0 5.061-2.259 5.061-5.055zm47.07-5.055c2.8 0 5.062 2.259 5.062 5.055a5.053 5.053 0 0 1-5.062 5.055 5.053 5.053 0 0 1-5.063-5.055 5.053 5.053 0 0 1 5.063-5.055zM55.9 23.877a1.93 1.93 0 0 1-1.939-1.936v-8.067c0-.538.431-1.075 1.078-1.075h7.216c1.724 0 3.231 1.075 3.77 2.688l3.985 6.884a.976.976 0 0 1 0 1.075c-.215.323-.538.538-.969.538h-13.14v-.108zm11.31-2.044H56.117V14.95h6.14c.753 0 1.507.537 1.723 1.29 0 .054.026.08.054.108.026.027.053.054.053.107l3.124 5.378zM2.154 2.15h42.438V28.5H2.154V2.151z"/><path id="b" d="M46.746 29.47l.49.098.01-.05v-.049h-.5zm47.392 7.098l-.461-.193-.005.01-.004.012.47.17zm-3.123-12.584l-.05.498h.002l.048-.498zM75.72 22.478l-.427.26.13.213.248.025.05-.498zm-6.355-10.432l-.469.173.017.045.025.042.427-.26zm-19.819 21.51v.5h.5v-.5h-.5zm2.047.538h-.5v.207l.146.146.354-.353zm15.941-21.295h.5v-.082l-.026-.077-.474.159zm.108.215h-.5v.14l.073.12.427-.26zm6.678 10.97l.474-.158-.018-.054-.03-.048-.426.26zm.754.538l.054-.497-.027-.003h-.027v.5zm15.833 1.72l-.054.498h.009l.045-.497zm1.4 9.788l-.464-.186-.003.007-.003.008.47.17zm-.43 1.183l.447.224.012-.026.01-.027-.47-.171zm-8.617 1.72l-.494.078.066.423h.428v-.5zm-14.218 0v.5h.428l.066-.422-.494-.077zm-38.022 0l-.494.078.067.423h.427v-.5zm-14.217 0l-.353.355.722.72.127-1.012-.496-.062zm0 1.937l.494-.078-.066-.422h-.428v.5zm14.217 0v-.5h-.427l-.067.422.494.078zm37.914 0l.494-.078-.066-.422h-.428v.5zm14.218 0v-.5h-.428l-.066.422.494.078zm10.555-3.12l.463.191.004-.01.003-.01-.47-.17zM55.901 23.878h.5v-.5h-.5v.5zm10.125-8.39l-.474.159.016.048.025.044.433-.25zm3.985 6.884l-.432.25.008.014.008.013.416-.277zm0 1.075l-.416-.277.416.277zm-14.11.538h-.5v.5h.5v-.5zm.216-2.151h-.5v.5h.5v-.5zm11.094 0v.5h.869l-.437-.751-.432.25zM56.117 14.95v-.5h-.5v.5h.5zm7.863 1.29h.5v-.07l-.02-.067-.48.137zm.054.108l.354-.353-.004-.003-.35.356zm.053.107h-.5v.135l.068.116.432-.25zM44.592 2.151h.5v-.5h-.5v.5zm-42.438 0v-.5h-.5v.5h.5zm42.438 26.35v.5h.5v-.5h-.5zm-42.438 0h-.5v.5h.5v-.5zm-1.077 2.544h44.484v-1H1.077v1zM-.5 29.469c0 .954.796 1.576 1.577 1.576v-1a.579.579 0 0 1-.577-.576h-1zm0-28.393v28.393h1V1.076h-1zM1.077-.5C.123-.5-.5.294-.5 1.075h1C.5.782.738.5 1.077.5v-1zm44.592 0H1.077v1H45.67v-1zm1.577 1.575C47.246.121 46.45-.5 45.67-.5v1c.296 0 .577.239.577.575h1zm0 28.394V1.075h-1V29.47h1zm-1.685 1.576c.964 0 1.538-.794 1.675-1.478l-.98-.196c-.079.392-.366.674-.695.674v1zM94.5 32.373c.003 1.449-.3 2.75-.823 4.002l.923.385c.553-1.33.897-2.825.9-4.387h-1zm0-4.087v4.087h1v-4.087h-1zm-3.533-3.804c2.017.192 3.533 1.814 3.533 3.804h1c0-2.527-1.93-4.561-4.438-4.8l-.095.996zm-15.296-1.506l15.295 1.506.098-.996-15.295-1.505-.098.995zm-6.733-10.67l6.355 10.432.854-.52-6.355-10.432-.854.52zm-4.527-3.202c1.947 0 3.805 1.27 4.485 3.115l.938-.346c-.827-2.243-3.063-3.769-5.423-3.769v1zm-11.525 0H64.41v-1H52.886v1zm-2.84 2.834a2.854 2.854 0 0 1 2.84-2.834v-1c-2.107 0-3.84 1.729-3.84 3.834h1zm0 21.618V11.938h-1v21.618h1zm-16.764.5h16.264v-1H33.282v1zm-.577.576c0-.21.068-.344.15-.426.082-.082.218-.15.427-.15v-1c-.436 0-.839.148-1.134.442-.295.294-.443.697-.443 1.134h1zm.577.575a.579.579 0 0 1-.577-.575h-1c0 .954.796 1.575 1.577 1.575v-1zm17.342 0H33.282v1h17.342v-1zm.577-.575a.578.578 0 0 1-.578.575v1c.954 0 1.578-.794 1.578-1.575h-1zm.038-.185a.22.22 0 0 1-.05-.072c-.002-.004 0-.008.003.018.008.052.009.122.009.239h1c0-.108-.002-.25-.019-.38a.886.886 0 0 0-.235-.512l-.708.707zm-.066-.78a1.54 1.54 0 0 0-.08.427h1c0-.019.002-.03.028-.111l-.948-.316zm.028-.11a.36.36 0 0 1-.028.11l.948.316c.027-.08.073-.24.08-.427h-1zm0-21.726v21.725h1V11.831h-1zm1.685-1.683c-.922 0-1.685.76-1.685 1.683h1c0-.369.314-.683.685-.683v-1zm11.632 0H52.886v1h11.632v-1zm3.49 2.492c-.502-1.505-1.994-2.492-3.49-2.492v1c1.09 0 2.183.733 2.542 1.81l.948-.318zm-.066-.087c-.02-.02.011.008.038.052a.38.38 0 0 1 .054.194h-1c0 .273.168.428.2.46l.708-.706zm.2.46c0-.273-.168-.428-.2-.46l-.708.706c.02.02-.011-.008-.038-.052a.381.381 0 0 1-.054-.193h1zm6.605 10.711l-6.678-10.97-.855.52 6.679 10.97.854-.52zm.327.298a.31.31 0 0 1-.28-.196l-.949.316c.18.538.702.88 1.229.88v-1zm15.887 1.724l-15.833-1.721-.108.994 15.833 1.72.108-.994zm2.493 2.755c0-1.436-1.053-2.625-2.502-2.756l-.09.995c.921.084 1.592.83 1.592 1.761h1zm0 4.087v-4.087h-1v4.087h1zm-.683 3.628c.448-1.123.68-2.4.683-3.628h-1a8.586 8.586 0 0 1-.611 3.256l.928.372zm-.425 1.168l.431-1.183-.94-.342-.43 1.183.94.342zm-3.162 2.05c1.39 0 2.523-.767 3.14-1.997l-.895-.448c-.46.92-1.265 1.445-2.245 1.445v1zm-5.924 0h5.924v-1H83.26v1zm-7.11-6.13c3.301 0 6.114 2.501 6.616 5.707l.988-.155c-.576-3.677-3.795-6.553-7.603-6.553v1zm-6.614 5.707c.502-3.21 3.211-5.708 6.615-5.708v-1c-3.92 0-7.028 2.88-7.603 6.553l.988.155zm-38.3.423h37.806v-1H31.236v1zm-.216 0h.216v-1h-.216v1zm-7.108-6.13c3.3 0 6.113 2.501 6.614 5.707l.989-.155c-.576-3.677-3.795-6.553-7.603-6.553v1zm-6.613 5.692c.399-3.186 3.197-5.693 6.613-5.693v-1c-3.909 0-7.143 2.871-7.605 6.569l.992.124zm-.82.33h.05l-.009-.001a.178.178 0 0 1-.07-.037l.706-.708c-.264-.263-.56-.254-.676-.254v1zm-4.092 0h4.093v-1h-4.093v1zm-.577.576c0-.294.238-.576.577-.576v-1c-.954 0-1.577.794-1.577 1.576h1zm.577.575a.578.578 0 0 1-.577-.575h-1c0 .954.796 1.575 1.577 1.575v-1zm4.093 0h-4.093v1h4.093v-1zm-.063 0l-.028.013-.004.002a.273.273 0 0 1 .095-.015v1c.194 0 .36-.094.385-.106l-.447-.895zm.386-.107c-.195 0-.36.093-.386.106l.448.895.028-.015.004-.001c-.004.001-.04.015-.094.015v-1zm7.109 6.13c-3.3 0-6.114-2.502-6.615-5.708l-.988.155c.575 3.677 3.794 6.553 7.603 6.553v-1zm6.614-5.708c-.502 3.21-3.21 5.708-6.614 5.708v1c3.92 0 7.028-2.88 7.603-6.553l-.989-.155zm.71-.422h-.216v1h.216v-1zm37.698 0H31.236v1h37.698v-1zm7.109 6.13c-3.3 0-6.113-2.502-6.615-5.708l-.988.155c.576 3.677 3.795 6.553 7.603 6.553v-1zm6.615-5.708c-.503 3.21-3.212 5.708-6.615 5.708v1c3.92 0 7.028-2.88 7.603-6.553l-.988-.155zm6.418-.422h-5.924v1h5.924v-1zm4.17-2.81c-.68 1.648-2.333 2.81-4.17 2.81v1c2.256 0 4.265-1.42 5.094-3.429l-.925-.381zm.422-1.163l-.43 1.183.94.342.43-1.183-.94-.342zm-78.481-1.513h-9.37v1h9.37v-1zm.577-.575a.579.579 0 0 1-.577.575v1c.78 0 1.577-.621 1.577-1.575h-1zm-.577-.576a.58.58 0 0 1 .577.576h1c0-.954-.796-1.576-1.577-1.576v1zm-9.37 0h9.37v-1h-9.37v1zm-.578.576c0-.209.068-.344.15-.426.082-.082.218-.15.427-.15v-1c-.436 0-.839.148-1.134.442-.295.295-.443.698-.443 1.134h1zm.577.575a.579.579 0 0 1-.577-.575h-1c0 .954.796 1.575 1.577 1.575v-1zm18.203.355a4.553 4.553 0 0 1 4.563 4.555h1a5.553 5.553 0 0 0-5.563-5.555v1zm-4.562 4.555a4.553 4.553 0 0 1 4.563-4.555v-1a5.553 5.553 0 0 0-5.563 5.555h1zm4.563 4.555a4.553 4.553 0 0 1-4.563-4.555h-1a5.553 5.553 0 0 0 5.563 5.555v-1zm4.561-4.555a4.553 4.553 0 0 1-4.561 4.555v1a5.553 5.553 0 0 0 5.561-5.555h-1zm53.132 0a5.553 5.553 0 0 0-5.562-5.555v1a4.553 4.553 0 0 1 4.562 4.555h1zM76.15 45.35a5.553 5.553 0 0 0 5.562-5.555h-1a4.553 4.553 0 0 1-4.562 4.555v1zm-5.563-5.555a5.553 5.553 0 0 0 5.563 5.555v-1a4.553 4.553 0 0 1-4.563-4.555h-1zm5.563-5.555a5.553 5.553 0 0 0-5.563 5.555h1a4.553 4.553 0 0 1 4.563-4.555v-1zM53.462 21.941a2.43 2.43 0 0 0 2.44 2.436v-1a1.43 1.43 0 0 1-1.44-1.436h-1zm0-8.067v8.067h1v-8.067h-1zM55.04 12.3c-.954 0-1.578.794-1.578 1.575h1c0-.294.238-.575.578-.575v-1zm7.216 0H55.04v1h7.216v-1zm4.244 3.03c-.608-1.82-2.31-3.03-4.244-3.03v1c1.512 0 2.826.941 3.296 2.347l.948-.317zm3.944 6.791l-3.985-6.883-.866.501 3.986 6.883.865-.5zm-.017 1.604c.328-.49.328-1.14 0-1.63l-.832.554a.476.476 0 0 1 0 .52l.832.556zm-1.385.76c.624 0 1.093-.322 1.385-.76l-.832-.555c-.138.207-.316.315-.553.315v1zm-13.14 0h13.14v-1h-13.14v1zm-.5-.608v.108h1v-.108h-1zm.715-1.543H67.21v-1H56.117v1zm-.5-7.383v6.883h1V14.95h-1zm6.64-.5h-6.14v1h6.14v-1zm2.203 1.653c-.279-.976-1.235-1.653-2.204-1.653v1c.54 0 1.091.398 1.243.928l.961-.275zm-.075-.112c-.02-.018.012.01.04.055.036.06.055.129.055.194h-1c0 .275.168.43.203.464l.702-.713zm.202.464c0-.273-.168-.428-.2-.46l-.707.706c.02.02-.012-.008-.038-.052a.38.38 0 0 1-.055-.194h1zm3.056 5.127l-3.123-5.378-.865.502 3.124 5.378.864-.502zM44.592 1.65H2.154v1h42.438v-1zm.5 26.85V2.151h-1v26.35h1zM2.154 29h42.438v-1H2.154v1zm-.5-26.85V28.5h1V2.151h-1z"/></defs></svg>