<svg width="100" height="80" viewBox="0 0 100 80" xmlns="http://www.w3.org/2000/svg" xmlns:xlink="http://www.w3.org/1999/xlink"><title>noun_1032009_cc</title><desc>Created using Figma</desc><use xlink:href="#a" transform="matrix(-1 0 0 1 100 0)"/><defs><path id="a" fill-rule="evenodd" d="M88 46.098v1.164c0 .997-.834 1.994-1.834 2.326h-.832L93 71.192c.666 1.994.5 4.155-.834 5.983-1.332 1.828-3.332 2.825-5.5 2.825-2.832 0-5.332-1.828-6.332-4.487l-9.168-25.925-47.5 14.957c-.666.166-1.332 0-1.832-.333-.5-.498-.834-.997-.834-1.661V2.059c0-.664.334-1.329.834-1.661a2.316 2.316 0 0 1 1.832-.333l47.668 14.957H86c1.166 0 2 .83 2 1.994v1.163c6.834.997 12 6.814 12 13.96 0 7.146-5.166 12.962-12 13.96zm8-13.96c0-4.985-3.5-8.973-8-9.97V42.11c4.5-.997 8-4.986 8-9.971zM69 45.767L25 59.559V4.552l44 13.794v27.42zM84 19.01H73v26.091h11V19.01zm5 53.18c.334.83.167 1.661-.333 2.492-.5.665-1.334 1.163-2.167 1.163-1.166 0-2.166-.664-2.5-1.828l-8.666-24.595h5.833L89 72.189zM12 34.132c1.166 0 2-.83 2-1.994 0-1.163-1-1.994-2-1.994H2c-1.167 0-2 .83-2 1.994 0 1.163.833 1.994 2 1.994h10zM2 8.208c-.833-.83-.833-1.994 0-2.825.833-.83 2-.83 2.833 0l7 6.98c.833.83.833 1.994 0 2.825-.333.332-.833.665-1.5.665-.5 0-1-.166-1.333-.499L2 8.208zm9.834 43.707c.832-.831.832-1.995 0-2.825-.668-.831-2-.831-2.834-.167l-7 6.98c-.833.831-.833 1.995 0 2.825.5.499 1 .665 1.5.665s1-.166 1.333-.498l7-6.98z"/></defs></svg>