<svg width="100" height="53" viewBox="0 0 100 53" xmlns="http://www.w3.org/2000/svg" xmlns:xlink="http://www.w3.org/1999/xlink"><title>Group 2</title><desc>Created using Figma</desc><use xlink:href="#a"/><use xlink:href="#b" transform="translate(6.57 6.57)"/><use xlink:href="#c" transform="translate(18.97 4.38)"/><use xlink:href="#d" transform="translate(37 3)"/><use xlink:href="#e" transform="translate(38.72 18.44)" fill="#F6F7F9"/><use xlink:href="#f" transform="translate(37.27 17)"/><use xlink:href="#g" transform="translate(83 14)"/><use xlink:href="#h" transform="translate(84.48)"/><defs><path id="a" fill-rule="evenodd" d="M7.45 0h12.1C23.658 0 27 3.343 27 7.451V19.55c0 4.107-3.342 7.45-7.451 7.45H7.45C3.342 27 0 23.658 0 19.549V7.451C0 3.343 3.342 0 7.45 0zm12.1 24.605a5.061 5.061 0 0 0 5.056-5.056V7.451a5.061 5.061 0 0 0-5.056-5.055H7.45A5.061 5.061 0 0 0 2.396 7.45v12.1a5.06 5.06 0 0 0 5.055 5.056h12.098z"/><path id="b" fill-rule="evenodd" d="M0 6.933A6.94 6.94 0 0 1 6.933 0a6.94 6.94 0 0 1 6.932 6.933 6.94 6.94 0 0 1-6.932 6.932A6.94 6.94 0 0 1 0 6.933zm2.387 0a4.55 4.55 0 0 0 4.546 4.545 4.55 4.55 0 0 0 4.545-4.545 4.55 4.55 0 0 0-4.545-4.546 4.55 4.55 0 0 0-4.546 4.546z"/><path id="c" d="M1.824 0A1.83 1.83 0 0 0 0 1.824c0 .48.196.95.536 1.29.338.339.809.535 1.288.535.481 0 .95-.196 1.29-.534.34-.34.535-.811.535-1.29 0-.482-.194-.953-.534-1.291A1.832 1.832 0 0 0 1.825 0z"/><path id="d" d="M34.814 18.062a2.406 2.406 0 0 0-.118-.228c-.607-1.095-1.768-2.44-3.48-4.034l-.037-.036-.018-.018-.018-.019h-.019c-.777-.742-1.27-1.24-1.476-1.496-.377-.487-.461-.98-.255-1.479.145-.377.692-1.174 1.64-2.39.498-.646.893-1.162 1.184-1.552 2.102-2.799 3.013-4.587 2.734-5.366l-.109-.182c-.073-.11-.261-.21-.564-.301-.304-.091-.693-.106-1.167-.045l-5.248.036c-.085-.03-.206-.028-.365.009l-.237.055-.091.046-.073.055a.81.81 0 0 0-.2.191 1.258 1.258 0 0 0-.182.32 29.813 29.813 0 0 1-1.95 4.106 38.88 38.88 0 0 1-1.24 1.962c-.376.553-.692.961-.947 1.223a6.616 6.616 0 0 1-.692.63c-.207.158-.365.225-.474.2-.11-.024-.212-.049-.31-.073a1.213 1.213 0 0 1-.41-.447 2.002 2.002 0 0 1-.21-.712 7.833 7.833 0 0 1-.063-.74c-.006-.206-.003-.498.009-.875.013-.378.018-.633.018-.767 0-.462.01-.964.027-1.506l.046-1.286c.013-.317.018-.651.018-1.004s-.021-.63-.064-.83a2.846 2.846 0 0 0-.19-.585.984.984 0 0 0-.374-.438 2.105 2.105 0 0 0-.61-.246c-.644-.146-1.464-.225-2.46-.237-2.26-.025-3.712.121-4.356.438a2.455 2.455 0 0 0-.693.547c-.218.268-.249.414-.09.438.728.11 1.244.371 1.548.785l.11.219c.085.158.17.438.255.84.085.401.14.845.164 1.332.06.888.06 1.648 0 2.281a27.22 27.22 0 0 1-.173 1.478c-.055.353-.137.64-.246.858-.11.22-.183.353-.22.402a.313.313 0 0 1-.09.09 1.334 1.334 0 0 1-.492.092c-.17 0-.377-.085-.62-.255a4.375 4.375 0 0 1-.756-.703c-.261-.298-.556-.715-.884-1.25a21.818 21.818 0 0 1-1.02-1.898l-.292-.53a45.39 45.39 0 0 1-.747-1.487 28.702 28.702 0 0 1-.838-1.89 1.203 1.203 0 0 0-.438-.583l-.09-.055a1.257 1.257 0 0 0-.292-.155 1.932 1.932 0 0 0-.42-.119L1.168.914c-.51 0-.857.116-1.04.347l-.072.11A.591.591 0 0 0 0 1.663c0 .134.036.298.11.493A60.275 60.275 0 0 0 2.486 7.12c.857 1.594 1.601 2.878 2.233 3.85a45.5 45.5 0 0 0 1.931 2.757c.656.864 1.09 1.417 1.303 1.66.213.244.38.426.501.548l.456.438c.292.292.72.642 1.285 1.05.565.407 1.19.809 1.877 1.205.686.395 1.485.717 2.396.966.911.25 1.798.35 2.66.302h2.096c.425-.037.747-.17.966-.402l.073-.091a1.21 1.21 0 0 0 .136-.337 1.85 1.85 0 0 0 .064-.502 6.03 6.03 0 0 1 .118-1.415c.091-.42.195-.736.31-.949a2.356 2.356 0 0 1 .702-.803c.061-.03.11-.051.146-.063.291-.098.634-.003 1.03.283a6.05 6.05 0 0 1 1.111 1.058c.347.42.763.892 1.248 1.415.487.523.912.912 1.276 1.168l.364.219c.244.146.56.28.948.401.389.122.729.152 1.02.092l4.666-.073c.46 0 .82-.077 1.075-.229.255-.152.406-.32.455-.502.05-.182.052-.389.01-.62a2.292 2.292 0 0 0-.129-.484z"/><path id="e" fill-rule="evenodd" d="M22.258 11.508h-1.582v3.956a.721.721 0 0 1-1.444 0v-4.316c0-.714-.45-1.438-1.306-1.438h-1.943v4.316a.721.721 0 1 1-1.444 0V9.35c0-.715-.448-1.439-1.305-1.439h-1.222v6.116a.721.721 0 1 1-1.444 0V1.437C10.568.724 10.12 0 9.263 0H8.18c-.828 0-1.582.685-1.582 1.437v15.466a.723.723 0 0 1-1.286.448l-2.423-3.033c-.353-.43-.8-.652-1.32-.652h-.093c-.558 0-1.046.295-1.307.79a1.394 1.394 0 0 0 .083 1.465l.524.809 7.505 11.174c.08.119.122.258.122.4v4.423h12.634v-2.403c0-.085.014-.166.042-.244l2.485-6.872V12.947c0-.715-.45-1.438-1.306-1.438z"/><path id="f" fill-rule="evenodd" d="M21.936 11.508h1.77c1.568 0 2.75 1.237 2.751 2.878v10.387a.729.729 0 0 1-.042.244l-2.485 6.871v2.998a.721.721 0 0 1-.723.719H9.13a.721.721 0 0 1-.722-.719v-4.924L1.02 18.959l-.52-.8c-.601-.87-.666-1.974-.16-2.934a2.914 2.914 0 0 1 2.586-1.56h.093c.948 0 1.816.422 2.445 1.188l1.141 1.43V2.875C6.604 1.317 7.989 0 9.63 0h1.082c1.568 0 2.75 1.237 2.75 2.876v5.036h1.22c1.2 0 2.17.725 2.562 1.798h2.131c1.199 0 2.17.725 2.561 1.798zm.592 20.01a.71.71 0 0 0-.042.244zm-.042.244v2.404zm0 2.404H9.852zm-12.634 0v-4.423zm0-4.423a.72.72 0 0 0-.122-.4zm-.122-.4L2.226 18.17zM2.226 18.17l-.525-.81zm-.525-.81a1.394 1.394 0 0 1-.083-1.465zm-.083-1.465c.26-.494.75-.789 1.307-.789zm1.307-.789h.093zm.093 0c.522 0 .968.221 1.32.652zm1.32.652l2.423 3.033zm2.423 3.033c.19.238.513.332.802.23zm.802.23c.29-.1.484-.373.484-.679zm.484-.679V2.876zm0-15.465c0-.753.755-1.437 1.583-1.437zM9.63 1.44h1.082zm1.082 0c.857 0 1.306.723 1.306 1.437zm1.306 1.437v5.755zm0 5.755v4.316zm0 4.316v2.518zm0 2.518c0 .396.323.719.722.719zm.722.719a.72.72 0 0 0 .722-.719zm.722-.719v-2.518zm0-2.518V9.35zm0-3.597h1.221zm1.221 0c.857 0 1.306.723 1.306 1.438zm1.306 1.438v4.317zm0 4.317v.36zm0 .36c0 .396.323.72.722.72zm.722.72a.72.72 0 0 0 .722-.72zm.722-.72v-.36zm0-.36V11.15zm0-3.956h1.942zm1.942 0c.857 0 1.306.724 1.306 1.438zm1.306 1.438v4.316zm0 4.316c0 .397.324.72.723.72zm.723.72a.722.722 0 0 0 .721-.72zm.721-.72v-3.956zm0-3.956h1.582zm1.582 0c.857 0 1.307.724 1.307 1.439zm1.307 1.439l-.001 10.26z"/><path id="g" d="M7.106 5.662c-2.194-.228-4.173-.766-5.867-2.086-.21-.164-.428-.323-.62-.506C-.122 2.36-.197 1.548.39.71.893-.005 1.736-.197 2.61.215c.17.08.332.179.486.286 3.158 2.161 7.496 2.22 10.665.097.314-.24.65-.435 1.039-.535.756-.194 1.461.083 1.867.742.464.753.458 1.488-.113 2.073-.877.896-1.93 1.544-3.102 1.997-1.107.427-2.32.643-3.521.786.181.196.267.293.38.406 1.63 1.632 3.267 3.256 4.892 4.893.554.558.67 1.25.365 1.898-.334.709-1.08 1.175-1.811 1.125-.464-.032-.825-.261-1.146-.584-1.23-1.233-2.484-2.443-3.69-3.7-.35-.365-.519-.296-.828.021a246.428 246.428 0 0 1-3.76 3.762c-.569.558-1.245.658-1.904.34-.7-.339-1.146-1.051-1.111-1.767.023-.484.262-.854.596-1.185 1.613-1.605 3.222-3.214 4.832-4.821.106-.107.205-.22.36-.386z"/><path id="h" fill-rule="evenodd" d="M0 6.984C-.022 10.816 3.128 13.988 6.97 14c3.881.013 7.053-3.086 7.074-6.91.019-3.913-3.102-7.08-6.99-7.09A7.027 7.027 0 0 0 0 6.984zm7.026-3.409a3.417 3.417 0 0 1 3.436 3.419 3.41 3.41 0 0 1-3.418 3.433c-1.912.007-3.447-1.497-3.461-3.392a3.422 3.422 0 0 1 3.443-3.46z"/></defs></svg>