<svg xmlns="http://www.w3.org/2000/svg" width="87" height="102" viewBox="0 0 87 102"><path stroke="#000" d="M28.606 9.191C30.926 7.088 32.03 3.99 32.25 1H52.9c.11 2.214.883 4.538 2.098 6.42.994 1.44 2.319 2.546 3.975 3.1 2.209.774 4.527.553 6.626-.111 3.202-.886 6.073-2.435 8.834-4.206 3.202 4.649 6.404 9.187 9.606 13.836-2.208 1.328-4.085 3.1-5.742 4.981-3.312 3.764-5.742 8.302-7.288 13.173 1.325-.443 2.54-.886 3.865-1.329 1.657-.553 3.755.222 4.638 1.882 1.877 3.432 3.755 6.974 5.632 10.405.994 1.66 1.104 3.653.331 5.424-2.319 5.977-4.638 12.065-7.067 18.043 1.767 1.55 3.754 2.656 5.963 3.431-3.203 4.87-6.405 9.741-9.718 14.612-2.319-.997-4.858-1.44-7.288-1.55-4.638-.221-9.386.996-13.25 3.542-3.093 1.993-5.632 4.76-7.73 7.86-2.54 0-4.97.11-7.51.11-2.429-3.542-5.52-6.752-9.275-8.855-5.08-2.768-11.263-3.321-16.785-1.882-.773.221-1.435.443-2.098.775C7.515 85.79 4.202 80.92 1 76.16c3.644-1.218 6.736-3.764 9.165-6.752 3.203-3.985 4.859-8.966 5.522-13.947.662-5.756.22-11.623-1.546-17.158-1.326-4.206-3.424-8.302-6.184-11.733-1.988-2.435-4.086-4.65-6.736-6.199 3.202-4.76 6.404-9.409 9.607-14.168 3.313 2.103 6.846 3.984 10.711 4.649 2.43.442 5.08 0 7.067-1.66zm5.963-4.87c-.773 3.1-2.54 6.199-5.3 7.859-2.098 1.328-4.638 1.771-7.067 1.55-3.865-.332-7.399-1.993-10.712-3.875-2.208 3.21-4.417 6.531-6.625 9.741 4.748 3.875 8.392 9.077 10.711 14.722 2.319 5.756 3.313 12.066 2.982 18.154-.221 5.092-1.436 10.294-3.865 14.722-2.209 4.096-5.522 7.748-9.607 9.962 2.208 3.321 4.417 6.642 6.736 10.073 5.631-1.66 11.926-1.328 17.336 1.107 4.528 1.993 8.393 5.424 11.264 9.409h4.748c3.092-4.206 7.178-7.748 11.926-9.74 5.19-2.104 11.153-2.325 16.564-.776 2.208-3.32 4.417-6.752 6.735-10.073a23.306 23.306 0 0 1-2.981-1.992c-.331.775-.663 1.66-.994 2.435-.773 1.218-2.54 1.992-3.975 1.328-6.626-2.435-13.14-5.092-19.766-7.637-1.767-.665-2.65-2.878-1.767-4.539 2.982-7.416 5.853-14.833 8.834-22.36a5.8 5.8 0 0 1 3.754-3.763c1.546-.554 2.982-.996 4.528-1.55 1.988-7.638 6.294-14.833 12.367-19.924-2.208-3.21-4.417-6.31-6.625-9.52-1.988 1.107-4.086 2.214-6.294 2.878-2.43.775-4.97 1.328-7.51.886-2.208-.333-4.306-1.44-5.962-2.99-1.656-1.77-2.871-3.984-3.423-6.309-5.3.222-10.711.222-16.012.222zm41.078 34.646c-4.086 1.329-8.06 2.768-12.036 4.096-.773.443-1.546 1.107-1.767 1.993-2.981 7.527-6.073 15.054-9.055 22.58-.331.554 0 1.44.663 1.661 6.515 2.546 13.03 5.092 19.545 7.527.552.332 1.325-.11 1.546-.664 3.092-7.527 6.073-15.054 9.055-22.47.441-1.107.441-2.436-.11-3.432a493.742 493.742 0 0 0-5.743-10.516 1.941 1.941 0 0 0-2.098-.775z"/><path d="M72.5 43.508c2.098-.664 4.417.664 4.969 2.767.662 2.103-.663 4.428-2.76 4.981-2.099.665-4.418-.774-4.97-2.878-.552-2.103.773-4.317 2.76-4.87zm.662 2.103c-.883.221-1.546 1.218-1.325 2.214.221.885 1.325 1.55 2.209 1.328.993-.221 1.546-1.328 1.214-2.214-.22-1.107-1.214-1.66-2.098-1.328zM59.394 58.09c.663-.332 1.325-.554 1.988-.886.883 1.993 1.656 3.985 2.54 5.978 4.417-1.882 8.723-3.764 13.14-5.535.331.664.552 1.328.884 1.993-5.08 2.103-10.16 4.317-15.129 6.42-1.104-2.546-2.319-5.313-3.423-7.97z"/></svg>