<svg xmlns="http://www.w3.org/2000/svg" viewBox="0 0 125.71 99.82"><title>Asset 2</title><g data-name="Layer 2"><g data-name="Layer 1"><path d="M125.64 80.93c-.32-2.16-.53-4.34-.93-6.49a14.61 14.61 0 0 0-12.19-12.16c-2.71-.47-5.49-.53-8.25-.74-2.06-.16-4.12-.13-6.09-1a89.46 89.46 0 0 1-18.04-11.31q-6.26-4.9-12.5-9.83a1.84 1.84 0 0 1-.55-.83c-1.59-4.8-3.16-9.61-4.75-14.42q-3.8-11.47-7.62-22.93c-.4-1.2-1.15-1.51-2.31-1-1.73.81-3.48 1.59-5.17 2.47a48.65 48.65 0 0 0-4.54 2.62A9.17 9.17 0 0 0 38.53 12c-.16 1.18-.21 2.37-.31 3.6-.28-.09-.56-.18-.83-.29-1.54-.61-3.08-1.23-4.63-1.82a10.83 10.83 0 0 0-4.38-.82 9.52 9.52 0 0 0-5.47 2.26c-1.54 1.21-3 2.55-4.5 3.77a51.1 51.1 0 0 1-3.78 2.79 3.53 3.53 0 0 1-2.91.52c-1.41-.35-2.8-.74-4.22-1a3.72 3.72 0 0 0-2-.06A43.28 43.28 0 0 0 1.22 23a1.34 1.34 0 0 0-.53.85A24.27 24.27 0 0 0 0 27.76c-.18 4.88 1.34 9.34 3.56 13.61a5.3 5.3 0 0 1 .52 1.68c.12.89.14 1.79.18 2.69a93.75 93.75 0 0 1-2.14 22.85A48.69 48.69 0 0 0 1 74.07a46.23 46.23 0 0 0 .23 11.38 26.43 26.43 0 0 0 1.29 5.07c1.91 5 5.94 7.29 11.05 7.73 5 .43 9.93.66 14.9.93a18.16 18.16 0 0 0 10.68-2.69c.92-.56 1.85-1.12 2.8-1.65a9 9 0 0 1 6.39-.84 14.78 14.78 0 0 1 5 2.3 21.06 21.06 0 0 0 11 3.14q10 .24 20 .39a76 76 0 0 0 12.08-.52 59.93 59.93 0 0 0 10.74-2.8 48.52 48.52 0 0 0 12.74-6.21 18 18 0 0 0 4.33-4.3 6.85 6.85 0 0 0 1.41-5.07zM91.08 60.06c1.77.93 3.57 1.8 5.34 2.74a14.83 14.83 0 0 0 6.33 1.5c2.78.15 5.57.26 8.33.57a12.29 12.29 0 0 1 7.2 3.19 7 7 0 0 0 .79.56l-.18.24-2 .85a6.48 6.48 0 0 0-4 5.94c-.11 1.35-.41 2.68-.66 4a.75.75 0 0 1-.33.52c-1.49.52-3 1-4.55 1.51-.14-1.09-.25-2.11-.39-3.13a13.28 13.28 0 0 0-6.79-10.17c-2.23-1.29-4.46-2.6-6.56-4.08-1.59-1.12-3-2.52-4.45-3.8.84-1.02.84-.99 1.92-.44zm4.16 8.78c1.25.73 2.49 1.48 3.75 2.21a10.42 10.42 0 0 1 5.12 7.95c.17 1.07.23 2.15.29 3.23a.69.69 0 0 1-.33.55A48.16 48.16 0 0 1 95.56 85 16.29 16.29 0 0 1 86 83.3c-3.3-1.62-6.49-3.47-9.73-5.21-1.74-.94-3.44-2-5.25-2.75a9.66 9.66 0 0 0-8.6.36c-1.08.56-2.12 1.2-3.17 1.82a35.19 35.19 0 0 1-11.39 4.63c-6.78 1.29-12.57-.68-17.48-5.4a42.91 42.91 0 0 1-7.13-9.45c-1.39-2.38-2.67-4.84-4.06-7.22a13.07 13.07 0 0 0-2-2.66c-1.95-1.95-4.25-1.34-5.13 1.28-.17.5-.26 1-.45 1.52-.39 1-1.12 1.48-2.11 1a16.73 16.73 0 0 1-2.75-1.72c-.15-.11-.19-.49-.16-.74a87.83 87.83 0 0 0 .56-11.94c0-1-.1-2.07-.15-3.22 7.68 2 13.24 6.73 17.59 13.29l.42-1a24.33 24.33 0 0 1 3.9-7.19 18.69 18.69 0 0 1 9.88-5.85 69.87 69.87 0 0 1 10.68-1.79c1.1-.12 2.21-.18 3.3-.35a1 1 0 0 1 1.28.59 7.92 7.92 0 0 0 .56.86c-1.25.75-2.49 1.45-3.68 2.22a2.25 2.25 0 0 0-.84 1 1.2 1.2 0 0 0 .49 1.41 1.35 1.35 0 0 0 1.62.08c1.4-.87 2.8-1.64 4.2-2.5a.77.77 0 0 1 1 0c1.94 1.45 3.9 2.86 5.92 4.35-1 .73-2 1.42-3 2.11a1.48 1.48 0 0 0-.74 1.39 1.39 1.39 0 0 0 2.23 1c1.17-.78 2.3-1.62 3.44-2.44.27-.19.47-.29.79-.06 2.13 1.58 4.27 3.13 6.5 4.76-.85.63-1.66 1.21-2.45 1.82a2.24 2.24 0 0 0-.69.75 1.31 1.31 0 0 0 .36 1.63 1.4 1.4 0 0 0 1.79 0q1.49-1.06 2.95-2.17a.59.59 0 0 1 .84 0c2.07 1.54 4.16 3.05 6.24 4.58a3.3 3.3 0 0 1 .25.24c-.84.65-1.66 1.27-2.45 1.93a1.38 1.38 0 0 0-.3 1.74 1.3 1.3 0 0 0 1.5.73 2.18 2.18 0 0 0 .84-.44c1.81-1.38 3.61-2.78 5.45-4.2a2.42 2.42 0 0 1 .26.22 32.14 32.14 0 0 0 8.1 6.53zM80.31 53.39a.65.65 0 0 1 .59 0c2.19 1.52 4.37 3.07 6.62 4.66-1 .79-2 1.59-3.08 2.36-.09.07-.35 0-.47-.1-2.16-1.56-4.32-3.14-6.56-4.78 1-.76 1.94-1.47 2.9-2.14zm-8.23-6.92c2 1.6 4.08 3.23 6.18 4.9L75 53.77l-6.82-5c1.18-.84 2.26-1.62 3.36-2.36a.58.58 0 0 1 .53.06zm-4-3.2c.42.39.9.71 1.43 1.13L65.79 47l-6.2-4.53 4.83-2.87c.52 1.96 2.38 2.5 3.58 3.67zm-26.49-32a6.63 6.63 0 0 1 2.6-3.56 53.59 53.59 0 0 1 8.26-4.4c.1.26.2.46.27.67Q56 14 59.3 23.94c1.35 4.08 2.68 8.17 4 12.25.17.5.11.76-.38 1-1.8 1-3.57 2.1-5.35 3.15l-.56.3c-.18-.26-.34-.48-.5-.7l-10-14.76c-1.7-2.52-3.36-5.05-5-7.59a1.51 1.51 0 0 1-.31-.68 17 17 0 0 1 .35-5.59zm-11.2 4.44c1.7.57 3.37 1.23 5.05 1.85a19.41 19.41 0 0 0 2.06.78 3.85 3.85 0 0 1 2.35 1.83c3.82 5.76 7.68 11.48 11.53 17.22.11.16.2.34.33.58-1.85.21-3.63.39-5.4.62a46.55 46.55 0 0 0-11.87 2.75 19.61 19.61 0 0 0-10.11 9.1l-.38.7c-1.5-1.43-2.88-2.88-4.41-4.18A31.08 31.08 0 0 0 7 40.65c-.41-.11-.88-.16-.91-.74 1.43.26 2.84.58 4.26.77A19.23 19.23 0 0 0 19 40c5.32-1.73 8.38-5.47 9.42-10.9A25.74 25.74 0 0 0 28 18c-.19-.76-.32-1.53-.5-2.36a4.31 4.31 0 0 1 2.89.07zM4.26 35.94A19.66 19.66 0 0 1 3 26.19a2 2 0 0 1 1-1.53c1.11-.73 2.17-1.33 3.56-.8 1 .36 2 .63 2.94.9a6.23 6.23 0 0 0 5.5-.81c1.72-1.23 3.41-2.51 5.07-3.82 1-.81 2-1.71 3-2.56.22-.19.47-.36.86-.65.35 2 .76 3.91 1 5.82a18.62 18.62 0 0 1-.37 6.59 10.6 10.6 0 0 1-8.82 8.37 21.23 21.23 0 0 1-12-1.37.78.78 0 0 1-.48-.39zm-.15 37a.82.82 0 0 1 .39-.57c2.29-1.06 4.6-2.08 7-3.16a38.66 38.66 0 0 0 3.64 11.51 17.3 17.3 0 0 1-6.28-.54 48.18 48.18 0 0 1-4.68-1.8.81.81 0 0 1-.45-.57c.08-1.64.21-3.27.37-4.89zm118.25 10.72a14.7 14.7 0 0 1-5.16 5c-1.26-1.31-2.47-2.6-3.72-3.87a2.11 2.11 0 0 0-.91-.58 1.26 1.26 0 0 0-1.52.68 1.35 1.35 0 0 0 .22 1.66c.9 1 1.81 1.9 2.72 2.85l.71.75c-.78.39-1.5.77-2.24 1.12s-1.26.79-1.82.7-.93-.82-1.36-1.29L106 87.21a1.43 1.43 0 1 0-2 1.93l3.29 3.55c.15.16.29.34.52.6-1.34.45-2.59.89-3.86 1.26-.19.06-.51-.14-.71-.3-1.92-1.51-3.83-3-5.74-4.56-.18-.14-.35-.3-.55-.42a1.4 1.4 0 0 0-1.72 2.22c1 .84 2.05 1.64 3.08 2.46l2.1 1.68a44.68 44.68 0 0 1-4.57.88c-2.77.24-5.56.46-8.34.44-7.63-.05-15.25-.24-22.88-.36a19.2 19.2 0 0 1-10.5-3.15 14.15 14.15 0 0 0-7-2.48 11.56 11.56 0 0 0-6.39 1.38c-1 .57-2 1.18-3 1.78a15.89 15.89 0 0 1-5.8 2.11 1.11 1.11 0 0 1-1.38-.64c-.51-1-1.12-2-1.71-2.92a1.42 1.42 0 0 0-2-.63 1.44 1.44 0 0 0-.38 2.06c.4.7.81 1.38 1.3 2.22a18.64 18.64 0 0 0-2.43-.09 2.74 2.74 0 0 1-3.13-2 13.26 13.26 0 0 0-1.14-2 1.41 1.41 0 1 0-2.46 1.37c.38.73.79 1.44 1.24 2.24-1.74-.1-3.37-.17-5-.29-.21 0-.45-.28-.57-.5-.64-1.14-1.24-2.31-1.87-3.47a1.43 1.43 0 1 0-2.5 1.31c.32.61.64 1.22 1 2-.37-.12-.61-.18-.83-.27a8.64 8.64 0 0 1-4.95-5.28 26.33 26.33 0 0 1-1.37-7.91l.75.31a22.21 22.21 0 0 0 10.78 1.86 2.59 2.59 0 0 0 2.65-2 4.3 4.3 0 0 0-.07-1.43 3.83 3.83 0 0 0-.36-1 38.55 38.55 0 0 1-3.22-10.53 5.21 5.21 0 0 0-.28-1 2 2 0 0 0-2.67-1.32 21.46 21.46 0 0 0-2.46 1.07c-1.24.59-2.48 1.2-3.89 1.89l1.14-6.46c1.77 1.13 3.58 2 5.66 1.21s2.66-2.76 3.19-4.87a13.14 13.14 0 0 1 1 1.16c.44.65.85 1.32 1.22 2A110.74 110.74 0 0 0 24.27 74a29 29 0 0 0 9.54 8.74c5.34 2.92 11 3.2 16.75 1.64A40.2 40.2 0 0 0 60.63 80c.93-.55 1.85-1.12 2.8-1.64a7.19 7.19 0 0 1 6.84-.25c1.62.77 3.15 1.71 4.73 2.56 3.32 1.79 6.6 3.66 10 5.32a19.91 19.91 0 0 0 15.2 1c4.7-1.48 9.37-3 14.06-4.53.48-.15.45-.52.51-.87.37-2.2.76-4.4 1.08-6.61a3 3 0 0 1 1.75-2.4c.83-.4 1.7-.7 2.54-1.08.42-.19.6-.07.78.33a21.35 21.35 0 0 1 1.62 6 31.22 31.22 0 0 1 .29 3.92 4.06 4.06 0 0 1-.47 1.91z"/><path d="M82.14 89.46c-.18-.14-.39-.24-.59-.36-2.87-1.78-5.73-3.58-8.62-5.34A29.44 29.44 0 0 0 69.72 82a5.77 5.77 0 0 0-5.15 0c-2.49 1.28-4.92 2.69-7.34 4.11a2.27 2.27 0 0 0-1.3 2.34c.18 1.15 1.08 1.58 2.07 1.87l.27.07c1.48.22 2.95.56 4.43.65 5.77.34 11.54.59 17.32.88.46 0 .92.07 1.38.06a1.3 1.3 0 0 0 1.28-1 1.34 1.34 0 0 0-.54-1.52zm-22.29-1.54a2.65 2.65 0 0 1 .31-.29L64.91 85a4.25 4.25 0 0 1 4.53 0c1.37.81 2.68 1.7 4 2.55l1.94 1.25c-5.14-.26-10.28-.21-15.53-.88z"/></g></g></svg>