<svg xmlns="http://www.w3.org/2000/svg" width="127" height="71" viewBox="0 0 127 71"><path d="M119.53 67.263V26.158H7.47v41.105h1.868a1.868 1.868 0 0 1 0 3.737h-7.47a1.868 1.868 0 0 1 0-3.737h1.867V1.868a1.868 1.868 0 1 1 3.736 0v20.553h112.058V1.868a1.868 1.868 0 1 1 3.736 0v65.395h1.867a1.868 1.868 0 0 1 0 3.737h-7.47a1.868 1.868 0 0 1 0-3.737h1.867z"/><path d="M121.397 56.053H5.603a1.868 1.868 0 0 0 0 3.736h115.794a1.868 1.868 0 0 0 0-3.736zM20.538 37.368h5.615a3.729 3.729 0 0 1 3.73 3.74v7.47H16.808v-7.47a3.741 3.741 0 0 1 3.73-3.74zm-7.464 13.08c0 1.031.836 1.868 1.867 1.868H31.75a1.868 1.868 0 0 0 1.868-1.869v-9.339a7.465 7.465 0 0 0-7.465-7.476h-5.615c-4.116 0-7.464 3.35-7.464 7.476v9.34zm31.744-13.08h5.614a3.729 3.729 0 0 1 3.73 3.74v7.47H41.088v-7.47a3.741 3.741 0 0 1 3.73-3.74zm-7.465 3.74v9.34c0 1.031.836 1.868 1.868 1.868h16.808a1.868 1.868 0 0 0 1.868-1.869v-9.339a7.465 7.465 0 0 0-7.465-7.476h-5.614c-4.116 0-7.465 3.35-7.465 7.476zM50.42 3.737h5.615c1.793 0 2.513 1.038 1.881 2.724l-3.1 8.486h-3.063L48.54 6.461c-.628-1.674.1-2.724 1.88-2.724zm-5.378 4.036l3.636 9.699c.273.73.97 1.212 1.748 1.212h5.603a1.87 1.87 0 0 0 1.75-1.212l3.635-9.699C62.962 3.643 60.435 0 56.035 0h-5.614c-4.389 0-6.922 3.656-5.379 7.773zM29.877 3.737h5.614c1.793 0 2.513 1.038 1.881 2.724l-3.1 8.486h-3.063l-3.213-8.486c-.628-1.674.1-2.724 1.88-2.724zm-5.379 4.036l3.636 9.699c.273.73.97 1.212 1.748 1.212h5.603c.779 0 1.476-.483 1.749-1.212l3.635-9.699C42.418 3.643 39.891 0 35.491 0h-5.614c-4.389 0-6.922 3.656-5.379 7.773zm80.108 31.464h1.833c2.172 0 4.258 1.805 4.563 3.942l.87 5.4H99.267l.775-5.4c.306-2.14 2.39-3.942 4.564-3.942zm-8.262 3.414l-1.075 7.532a1.868 1.868 0 0 0 1.849 2.133h16.808a1.868 1.868 0 0 0 1.85-2.133l-1.076-7.532c-.569-3.98-4.232-7.151-8.261-7.151h-1.833c-4.03 0-7.693 3.167-8.262 7.15zm-17.886-3.414h1.834c2.172 0 4.258 1.805 4.563 3.942l.87 5.4H73.12l.775-5.4c.306-2.14 2.39-3.942 4.563-3.942zm-8.26 3.414l-1.076 7.532a1.868 1.868 0 0 0 1.849 2.133h16.808a1.868 1.868 0 0 0 1.85-2.133l-1.076-7.532c-.569-3.98-4.232-7.151-8.261-7.151h-1.834c-4.029 0-7.692 3.167-8.26 7.15z"/></svg>