<svg xmlns="http://www.w3.org/2000/svg" width="145" height="73" viewBox="0 0 145 73"><path stroke="#000" d="M23.86 54.453H9.756c-.81 0-1.621-.65-1.621-1.625 0-.974.648-1.624 1.621-1.624h14.106c.81 0 1.62.65 1.62 1.624 0 .975-.81 1.625-1.62 1.625zM144 49.903c0 2.275-.486 4.388-1.297 6.337l-.649 1.787c-1.134 2.762-3.89 4.712-6.971 4.712h-8.917c-.811 5.2-5.189 9.261-10.701 9.261-5.35 0-9.89-4.062-10.7-9.26H47.693c-.81 5.198-5.188 9.26-10.7 9.26-5.351 0-9.89-4.062-10.701-9.26-.163 0-.325.162-.487.162h-6.16c-.812 0-1.622-.65-1.622-1.625 0-.812.648-1.625 1.621-1.625h6.161c.162 0 .324 0 .487.163.648-5.2 5.188-9.261 10.7-9.261 5.35 0 9.89 4.062 10.7 9.26h57.235c.811-5.198 5.189-9.26 10.701-9.26 5.35 0 9.89 4.062 10.7 9.26h8.918c1.783 0 3.243-.974 4.053-2.599l.649-1.787c.648-1.625.973-3.412.973-5.2v-6.173c0-1.787-1.298-3.25-3.081-3.412l-23.833-2.6a1.22 1.22 0 0 1-1.135-.812L102.819 20.66c0-.162-.163-.162-.163-.325-.648-1.95-2.594-3.25-4.54-3.25h-17.51c-.972 0-1.783.813-1.783 1.788v32.82c0 .324-.162.486-.162.811.162.163.162.488.162.813 0 .812-.648 1.625-1.621 1.625H51.099c-.811 0-1.622-.65-1.622-1.625s.649-1.625 1.622-1.625H75.58V19.034c0-2.762 2.27-5.036 5.026-5.036h17.348c3.242 0 6.323 2.112 7.458 5.199l9.565 15.76L138 37.231c3.405.325 5.999 3.087 5.999 6.499v6.174zM44.776 61.115c0-4.224-3.405-7.636-7.62-7.636-4.216 0-7.62 3.412-7.62 7.636 0 4.225 3.404 7.637 7.62 7.637 4.215 0 7.62-3.412 7.62-7.637zm78.471 0c0-4.224-3.405-7.636-7.62-7.636s-7.62 3.412-7.62 7.636c0 4.225 3.405 7.637 7.62 7.637s7.62-3.412 7.62-7.637zm-38.1-24.045a2.91 2.91 0 0 1-2.92-2.925V21.96c0-.813.65-1.625 1.622-1.625h10.863c2.594 0 4.864 1.625 5.675 4.062l5.998 10.398a1.478 1.478 0 0 1 0 1.625c-.324.487-.81.812-1.459.812h-19.78v-.162zm.324-3.087h16.7l-4.703-8.124c0-.162-.162-.162-.162-.325-.324-1.137-1.46-1.95-2.594-1.95h-9.241v10.399zm-15.89 13.16H2.622c-.81 0-1.621-.65-1.621-1.625V2.625C1 1.812 1.649 1 2.621 1h67.123c.81 0 1.621.65 1.621 1.625v42.892c-.162.813-.81 1.625-1.783 1.625zM68.123 4.249H4.242v39.806h63.88V4.249z"/></svg>