<svg xmlns="http://www.w3.org/2000/svg" width="96" height="100" viewBox="0 0 96 100"><path d="M44.52 62.456c-8.657 0-15.706-7.045-15.706-15.704 0-8.655 7.049-15.698 15.706-15.698 8.658 0 15.7 7.043 15.7 15.698-.002 8.659-7.043 15.704-15.7 15.704zm0-27.661c-6.597 0-11.967 5.367-11.967 11.958 0 6.597 5.37 11.964 11.967 11.964 6.596 0 11.959-5.367 11.959-11.964 0-6.592-5.363-11.958-11.959-11.958z"/><path d="M33.759 37.944L15.598 18.928 18.3 16.34l18.16 19.015zm32.576-17.75l2.769 2.512L55.314 37.9l-2.767-2.512zM58.503 47.86l24.97 6.447-.936 3.622-24.97-6.447zm-8.717 37.874c-5.85-26.403-5.85-26.403-4.302-27l1.345 3.49-.673-1.745 1.848-.289c.139.786 3.332 15.222 5.434 24.732l-3.652.812zM14.012 54.733l-.686-3.673 17.327-3.222.687 3.674z"/><path d="M10.936 21.86C5.012 21.86.183 17.037.183 11.11S5.013.36 10.936.36c5.932 0 10.753 4.822 10.753 10.75.001 5.928-4.82 10.75-10.753 10.75zm0-17.76c-3.865 0-7.013 3.146-7.013 7.01 0 3.863 3.148 7.008 7.013 7.008 3.865 0 7.014-3.145 7.014-7.008 0-3.864-3.149-7.01-7.014-7.01zM88.03 64.848c-4.164 0-7.547-3.382-7.547-7.538 0-4.157 3.383-7.54 7.547-7.54 4.157 0 7.532 3.383 7.532 7.54 0 4.156-3.375 7.538-7.532 7.538zm0-11.337a3.808 3.808 0 0 0-3.804 3.799 3.807 3.807 0 0 0 3.804 3.797 3.8 3.8 0 0 0 3.791-3.797 3.801 3.801 0 0 0-3.791-3.8zM9.388 60.048c-3.266 0-5.932-2.664-5.932-5.931 0-3.268 2.666-5.932 5.932-5.932 3.274 0 5.94 2.664 5.94 5.932 0 3.267-2.667 5.93-5.94 5.93zm0-8.122a2.195 2.195 0 0 0-2.191 2.192 2.195 2.195 0 0 0 4.39 0 2.196 2.196 0 0 0-2.199-2.192zM72.28 24.585c-4.574 0-8.3-3.725-8.3-8.306 0-4.577 3.726-8.302 8.3-8.302 4.58 0 8.307 3.725 8.307 8.302 0 4.58-3.727 8.306-8.307 8.306zm0-12.869a4.566 4.566 0 0 0-4.559 4.563 4.568 4.568 0 0 0 4.559 4.566 4.57 4.57 0 0 0 4.565-4.566 4.566 4.566 0 0 0-4.565-4.563zM52.454 99.995c-4.735 0-8.584-3.85-8.584-8.584 0-4.73 3.85-8.577 8.584-8.577 4.726 0 8.577 3.846 8.577 8.577-.001 4.734-3.851 8.584-8.577 8.584zm0-13.42a4.843 4.843 0 0 0-4.843 4.836c0 2.67 2.17 4.843 4.843 4.843a4.845 4.845 0 0 0 4.835-4.843 4.842 4.842 0 0 0-4.835-4.837zm1.505-38.799l-3.74-.045c.064-6.136-5.59-6.603-5.83-6.618l.263-3.733c3.258.23 9.394 2.696 9.307 10.396z"/></svg>