<svg xmlns="http://www.w3.org/2000/svg" width="80" height="104" viewBox="0 0 80 104"><path d="M64.816 86.181c-1.054 6.262-2.95 11.502-6.588 11.502-3.637.002-6.588-5.148-6.588-11.502 0-6.351 2.95-11.501 6.588-11.501 3.639 0 8.686-.972 6.588 11.501zm6.11-62.439c3.34 10.195 1.203 20.04-4.774 21.989-5.977 1.948-14.022 1.299-17.363-8.896-3.34-10.194-.71-26.074 5.267-28.023 5.977-1.948 13.53 4.736 16.87 14.93z"/><path stroke="#000" stroke-width="3" d="M21.305 102c-3.907 0-6.355-1.247-8.19-4.17-2.042-3.257-3.328-8.814-4.05-17.492-1.031-12.43-2.957-21.42-4.657-29.353-.84-3.917-1.633-7.617-2.164-11.132-.486-3.214-.484-8.831 2.285-17.345 1.937-5.955 4.486-10.899 6.152-13.157C13.156 5.998 17.281 2 22.868 2c1.234 0 2.494.202 3.746.6 6.202 1.972 8.757 12.53 9.848 17.039.108.446.201.83.28 1.13.896 3.419.554 12.354-.579 15.177-1.106 2.757-5.397 18.446-5.531 18.936-.683 3.687.113 14.383.753 22.977.422 5.673.787 10.571.674 12.525-.188 3.266-.803 5.646-1.94 7.487-1.556 2.52-4.096 3.896-7.55 4.091-.445.025-.87.038-1.264.038zm1.562-99.472c-2.962 0-7.407 1.237-11.76 7.135-3.633 4.92-9.869 20.008-8.34 30.11.529 3.5 1.32 7.19 2.158 11.1 1.702 7.948 3.633 16.957 4.668 29.42 1.478 17.804 5.256 21.178 11.71 21.178.385 0 .8-.013 1.232-.037 7.515-.424 8.73-6.527 8.992-11.08.111-1.92-.253-6.801-.674-12.456-.676-9.083-1.442-19.378-.743-23.124l.005-.02c.18-.66 4.424-16.191 5.555-19.005 1.08-2.693 1.415-11.573.557-14.847-.08-.305-.173-.692-.282-1.14-1.07-4.422-3.576-14.779-9.495-16.66a11.863 11.863 0 0 0-3.583-.574zM58.233 102c-.396 0-.82-.012-1.263-.038-3.454-.195-5.995-1.57-7.55-4.09-1.136-1.842-1.753-4.222-1.94-7.488-.112-1.953.252-6.851.675-12.522.64-8.596 1.436-19.29.753-22.979-.134-.488-4.425-16.18-5.532-18.937-1.133-2.823-1.474-11.758-.578-15.176.078-.3.172-.686.28-1.131 1.09-4.509 3.646-15.067 9.848-17.039a12.36 12.36 0 0 1 3.745-.6c3.085 0 7.703 1.275 12.187 7.351 1.667 2.257 4.215 7.2 6.152 13.157 2.77 8.514 2.772 14.131 2.285 17.345-.532 3.515-1.324 7.215-2.164 11.132-1.7 7.932-3.627 16.923-4.658 29.353-.721 8.678-2.008 14.235-4.05 17.492-1.837 2.922-4.285 4.17-8.19 4.17zM56.669 2.528c-1.18 0-2.386.194-3.584.575-5.919 1.882-8.425 12.237-9.495 16.66-.108.448-.203.835-.282 1.14-.858 3.273-.524 12.153.557 14.847 1.13 2.814 5.375 18.344 5.555 19.005l.005.02c.7 3.746-.1 14.49-.743 23.126-.421 5.653-.785 10.535-.674 12.454.545 9.508 5.392 10.878 8.991 11.08.433.025.848.037 1.233.037 6.454 0 10.232-3.374 11.71-21.178 1.034-12.463 2.965-21.472 4.668-29.42.838-3.909 1.629-7.602 2.158-11.1 1.528-10.101-4.707-25.189-8.34-30.11-2.401-3.255-6.392-7.136-11.759-7.136z"/></svg>