<svg xmlns="http://www.w3.org/2000/svg" width="108" height="109" viewBox="0 0 108 109"><path d="M19.415 108.953c.874 0 1.754-.276 2.499-.845l14.05-10.76c1.043.152-5.505.124-4.427.124l38.834.044c.867 0 1.764 0 2.682-.097.687-.072 2.64-1.805 3.132-2.298l28.413-28.413a8.753 8.753 0 0 0-.618-12.916c-3.43-2.838-8.7-2.476-11.997.824L79.307 67.293a7.68 7.68 0 0 0-3.891-1.079h-.006c-.255-.01-6.24-.236-7.69-.25-1.007.01-2.042.03-3.096.05-5.237.106-10.65.213-15.524-1.057a123.235 123.235 0 0 1-3.232-.908c-5.24-1.522-10.19-2.96-16.531-.768-5.543 1.903-10.81 5.603-16.573 11.642L1.966 84.72C.327 86.198.17 88.76 1.614 90.427l14.696 17.108a4.087 4.087 0 0 0 3.105 1.418zM4.468 87.484L15.32 77.64c.033-.031.066-.063.097-.095 5.352-5.617 10.16-9.03 15.135-10.737 5.223-1.804 9.219-.646 14.275.823 1.074.313 2.178.632 3.33.935 5.377 1.4 11.308 1.282 16.541 1.18 1.04-.022 2.06-.043 3.055-.05 1.068-.013 5.379.157 7.578.249 1.114 0 2.163.437 2.958 1.232a4.155 4.155 0 0 1 1.232 2.957 4.2 4.2 0 0 1-4.19 4.202H47.673c-1.004 0-2.221 1.132-2.074 2.226.197 1.467 2.264 1.608 3.408 1.505h26.327c4.367 0 7.919-3.558 7.919-7.931 0-1.531-.44-2.995-1.252-4.256l12.622-12.622c1.952-1.954 5.02-2.212 6.983-.588a4.954 4.954 0 0 1 1.81 3.624 5.015 5.015 0 0 1-1.452 3.78L73.551 92.485c-.859.858-3.158 1.302-3.177 1.302h-.577s-35-.24-35.441.098l-14.704 11.261a.375.375 0 0 1-.512-.044L4.438 87.99a.359.359 0 0 1 .03-.507zm62.842-68.84c-6.606 0-11.98 5.375-11.98 11.981s5.374 11.982 11.98 11.982c6.607 0 11.982-5.376 11.982-11.982 0-6.606-5.374-11.981-11.981-11.981zm0 20.104a8.122 8.122 0 0 1-8.122-8.123 8.122 8.122 0 0 1 8.123-8.122 8.122 8.122 0 0 1 8.122 8.122 8.122 8.122 0 0 1-8.122 8.123z"/><path d="M94.54 16.797l-1.64-2.839a6.952 6.952 0 0 0-6.004-3.465 6.93 6.93 0 0 0-3.46.929l-1.024.59a23.864 23.864 0 0 0-6.534-3.773v-1.18a6.937 6.937 0 0 0-6.93-6.93H65.67a6.937 6.937 0 0 0-6.93 6.93v1.18a23.884 23.884 0 0 0-6.542 3.78l-1.014-.597a6.93 6.93 0 0 0-3.461-.929 6.951 6.951 0 0 0-6.005 3.466L40.08 16.8a6.937 6.937 0 0 0 2.537 9.465l1.01.583a23.737 23.737 0 0 0 0 7.559l-1.01.583c-3.308 1.91-4.446 6.157-2.537 9.465l1.639 2.839a6.952 6.952 0 0 0 6.003 3.464 6.93 6.93 0 0 0 3.461-.928l1.024-.59a23.895 23.895 0 0 0 6.534 3.773v1.18a6.937 6.937 0 0 0 6.93 6.929h3.278a6.937 6.937 0 0 0 6.93-6.93v-1.179a23.884 23.884 0 0 0 6.542-3.78l1.014.597a6.934 6.934 0 0 0 3.461.928 6.952 6.952 0 0 0 6.005-3.466l1.639-2.839c1.91-3.309.773-7.555-2.537-9.464l-1.01-.583a23.737 23.737 0 0 0 0-7.56l1.01-.582a6.937 6.937 0 0 0 2.537-9.466zm-4.466 6.124l-1.07.618c-1.347.778-2.09 2.298-1.835 3.832a19.802 19.802 0 0 1 0 6.51c-.254 1.535.488 3.055 1.835 3.833l1.07.618a3.07 3.07 0 0 1 1.125 4.194l-1.639 2.839a3.07 3.07 0 0 1-4.195 1.124l-1.082-.624a3.786 3.786 0 0 0-1.892-.509c-.836 0-1.665.28-2.34.833a20.05 20.05 0 0 1-5.644 3.258c-1.45.546-2.387 1.952-2.387 3.5v1.247a3.07 3.07 0 0 1-3.07 3.07h-3.28a3.07 3.07 0 0 1-3.07-3.07v-1.25c0-1.547-.938-2.955-2.387-3.5a20.05 20.05 0 0 1-5.643-3.257 3.685 3.685 0 0 0-2.34-.833 3.79 3.79 0 0 0-1.893.508l-1.082.625a3.07 3.07 0 0 1-4.193-1.124l-1.64-2.84a3.07 3.07 0 0 1 1.125-4.193l1.07-.618c1.347-.778 2.09-2.298 1.835-3.833a19.802 19.802 0 0 1 0-6.51 3.729 3.729 0 0 0-1.835-3.832l-1.07-.619a3.07 3.07 0 0 1-1.125-4.193l1.64-2.84a3.07 3.07 0 0 1 4.194-1.123l1.082.624c.588.34 1.242.508 1.893.508.835 0 1.665-.279 2.34-.832a20.08 20.08 0 0 1 5.644-3.258c1.448-.546 2.387-1.952 2.387-3.5V7.057a3.07 3.07 0 0 1 3.07-3.07h3.278a3.07 3.07 0 0 1 3.07 3.07v1.247c0 1.548.939 2.955 2.388 3.5a20.05 20.05 0 0 1 5.643 3.258 3.685 3.685 0 0 0 2.34.832 3.79 3.79 0 0 0 1.893-.508l1.083-.624a3.07 3.07 0 0 1 4.193 1.124l1.639 2.839a3.073 3.073 0 0 1-1.125 4.196z"/></svg>