<svg xmlns="http://www.w3.org/2000/svg" width="147" height="71" viewBox="0 0 147 71"><path d="M79.625 55.678h4.261v4.242h-4.261zm36.75 0h4.261v4.242h-4.261zm-18.375 0h4.261v4.242H98zm36.75 0h4.261v4.242h-4.261zm-64.312 0h4.261v4.242h-4.261zm36.75 0h4.261v4.242h-4.261zm-18.375 0h4.261v4.242h-4.261zm36.75 0h4.261v4.242h-4.261zm10.117-30.841h-24.997v16.401h24.714V24.837h.284zm-4.26 12.16h-16.192v-7.919h16.192v7.918z"/><path d="M137.67 15.788H83.98L68.072.235 13.531 7.02V.235H.18v4.241h9.09v39.307H3.02v4.242h10.51v-6.787h2.842l3.408 3.959c3.125 3.676 7.954 5.656 12.5 5.656h28.69v10.463c0 5.09 4.262 9.049 9.09 9.049h67.325c5.114 0 9.09-4.242 9.09-9.05V25.12c.285-5.09-3.976-9.331-8.806-9.331zM22.904 42.369l-4.829-5.373h-4.83V11.263l53.122-6.504 11.079 11.029h-7.67c-1.42 0-3.125.282-4.261 1.13l-4.545-4.524-14.488 14.422c-2.557 2.545-2.557 6.504 0 9.05 2.273 2.261 5.397 3.675 8.806 3.675h7.386c4.261 0 7.954 3.11 9.09 7.07h-39.2c-3.693 0-7.102-1.697-9.659-4.242zm38.066-7.07h-5.398c-2.272 0-4.26-.848-5.681-2.262a2.212 2.212 0 0 1 0-3.11l11.647-11.594 1.42 1.414c-1.136 1.413-1.704 3.393-1.704 5.372V35.3h-.284zm76.698 30.824H70.345c-2.84 0-4.83-2.262-4.83-4.807V50.853h11.08V48.59c0-6.504-4.83-12.16-11.08-13.29V24.837c0-2.828 2.273-4.808 4.83-4.808h67.324c2.841 0 4.83 2.263 4.83 4.808v36.479c0 2.827-2.273 4.807-4.83 4.807z"/></svg>