<svg xmlns="http://www.w3.org/2000/svg" viewBox="-33 353.4 63.6 13.9"><g fill="#fff"><path d="M-20 364.4c.7-2.2 1.3-3.6 2.1-5.7.3-.7.5-1.1.4-1.5-.1-.7-.6-.9-1-.3-.1.1-.1.2-.2.3-.3.4-.5.9-.8 1.4-.9 1.6-1.6 3.7-2.1 4.4-.6 1-1.5.8-1.8-.2-.7.5-1.5 0-1.5-.9 0-.8.2-1.8.3-2.6.1-1 .4-3.6.4-5 0-.2 0-.3-.1-.4-.2-.5-.6-.5-1.1-.2-.2.2-.4.5-.5.9-.2.6-.2 1.3-.3 2-.1.5-.8 4.6-1 4.9-.5 1.1-2.5-.8-3.9-1.2-1.6-.4-2.6.4-1.4 1.1.8.5 3.4 2.5 4 3.2.2.2.2.2.4.3.2.2.4.4.6.7 1.4 1.3 4 2 5.9 1 .4-.2.5-.3.8-.6.5-.6.6-1 .8-1.6zm27.4-3.1l.6-3.1c.9 0 2.4-.3 1.8 1.8-.5 1.4-1.4 1.3-2.4 1.3zm-3.3 5.6h2.1l.9-4c1.2-.1 1.2.7 1.4 1.5l.5 2.5h2l-.5-2.6c-.1-.6-.4-1.1-.6-1.4-.1-.1-.3-.2-.4-.3.3-.2.6-.3.9-.5.4-.3.8-.6 1.2-1.3.5-.9.7-2.2.3-3.2-.5-1-1.3-1.2-2.8-1.2h-4l-.3 1.6h1.1l-1.8 8.9zm19.7 0h1.9l.7-2.9c.8-.1.9.4 1 1.2l.3 1.7h1.9l-.3-1.3c-.3-1.2-.2-1.5-.9-2.2l2.2-3.2h-2c-.5.7-.9 1.5-1.4 2.2h-.6c0-.6 1-4.7 1.2-5.9h-3.1l-.3 1.6h1.1c-.1 1.5-1.7 8.1-1.7 8.8zm-35.2-2.7h-1.8l-.2 1.1h-1.4l1.8-8.8-3.3.1-.4 1.6h1.2l-1.8 8.7h5.3"/><path d="M13.5 364.9c-.1-.4-.1-.9.1-1.5.2-.7.7-1.8 1.5-1.5.7.2.7 2.1 0 3.1-.5.8-1.3.9-1.6-.1zm-.6 2.2c.2.1.4.1.6.1 1.7.2 2.6-.5 3.1-1.2.5-.6.6-1.1.8-1.9.3-1 .4-2.2-.2-3.1-.7-.9-2.1-1.2-3.4-.7-1 .4-1.8 1.3-2.2 2.5-.2.6-.3 1.3-.3 2 .2 1.2.7 1.9 1.6 2.3zm-21.7-3.6c.1-.7.5-1.5 1.1-1.7.5-.1.7.3.6.7 0 .2-.1.4-.3.6-.3.4-.8.4-1.4.4zm-1.6 3.1c1.1 1.3 3.3.4 4.3.1l-.3-1.4c-.9.3-2.1.9-2.5-.4 1.4.1 2.7-.3 3.4-1.6 1.8-3.1-2.6-4.2-4.5-1.7-.7.9-1 1.8-1 3 0-.1-.1 1 .6 2zm9.8-3.5c.3 1.1 1.9 1.3 2.1 1.8.4.9-1.4 1.1-2.4.3l-.7 1.4c.5.7 2.1.8 3.1.6 1.2-.3 1.9-1.2 2-2.4 0-.5-.1-.8-.6-1.3-.4-.4-.9-.5-1.3-.7-.2-.1-.3-.2-.3-.4 0-.5.4-.5 1-.4l-.1.7h1.4l.9-2.7H2.8l-.1.4c-.8-.1-1.8-.1-2.5.4.2-.1-1.1.9-.8 2.3zm19.5 3.6c.2.2.4.3.8.4.4.1 1 .2 1.4.1.3 0 .5-.1.8-.2.3-.1.5-.2.7-.3.1-.1.2-.1.4-.2l-.3-1.4c-.6.2-2.8 1.3-2.5-1.2.1-1.4.6-2.4 2.2-2.2l-.1.7h1.3l.9-2.7h-1.6l-.1.5c-1.9-.2-2.9.3-3.7 1.4-.7.9-1 2.1-.9 3.4 0 .7.2 1.3.7 1.7z"/><path d="M-4.9 366.9H-3l1-5.1h1.1l.5-1.6h-1.2l.4-2h-1.6l-.6 2h-1l-.3 1.6h.8zm-18.5-4.9c.4-.8.6-1.9.7-2.6.1-.7-.1-1-.8-1.1-.2 0-.4 0-.6.1-.3.2-.2.5-.3 1.1-.2 1.2-.5 2.5 0 2.9.5.6.8 0 1-.4zm1.5.7c.6-.9 1.3-2.6.9-3.1-.3-.4-1.1-.7-1.4 0-.2.5-.4 1.4-.5 1.9-.2.5-.4 1.2-.2 1.6.4.6 1 0 1.2-.4zm21.4-3.4H.8l1-2.8H.1z"/></g></svg>