<svg width="727" height="200" viewBox="0 0 727 200" xmlns="http://www.w3.org/2000/svg" xmlns:xlink="http://www.w3.org/1999/xlink"><title>Fill 292</title><desc>Created using Figma</desc><use xlink:href="#a" transform="translate(0 .54)" fill="#A32B25"/><defs><path id="a" fill-rule="evenodd" d="M0 5.776h2V0H0v5.776zM0 17.33h2v-5.776H0v5.776zm2.751 11.584a24.272 24.272 0 0 1-2.104-5.642l1.951-.427a22.421 22.421 0 0 0 1.94 5.206l-1.787.863zm8.006 9.062a25.782 25.782 0 0 1-4.567-4.067l1.523-1.248a23.833 23.833 0 0 0 4.218 3.757l-1.174 1.558zM22.2 42.461a26.719 26.719 0 0 1-6.005-1.575l.755-1.784a24.582 24.582 0 0 0 5.54 1.453l-.29 1.906zm6.132.265h6v-1.925h-6v1.925zm12 0h6v-1.925h-6v1.925zm12 0h6v-1.925h-6v1.925zm12 0h6v-1.925h-6v1.925zm12 0h6v-1.925h-6v1.925zm12 0h6v-1.925h-6v1.925zm12 0h6v-1.925h-6v1.925zm12 0h6v-1.925h-6v1.925zm12 0h6v-1.925h-6v1.925zm12 0h6v-1.925h-6v1.925zm12 0h6v-1.925h-6v1.925zm12 0h6v-1.925h-6v1.925zm12 0h6v-1.925h-6v1.925zm12 0h6v-1.925h-6v1.925zm12 0h6v-1.925h-6v1.925zm12 0h6v-1.925h-6v1.925zm12 0h6v-1.925h-6v1.925zm12 0h6v-1.925h-6v1.925zm12 0h6v-1.925h-6v1.925zm12 0h6v-1.925h-6v1.925zm12 0h6v-1.925h-6v1.925zm12 0h6v-1.925h-6v1.925zm12 0h6v-1.925h-6v1.925zm12 0h6v-1.925h-6v1.925zm12 0h6v-1.925h-6v1.925zm12 0h6v-1.925h-6v1.925zm12 0h6v-1.925h-6v1.925zm11.999 0h6v-1.925h-6v1.925zm12 0h6v-1.925h-6v1.925zm12 0h6v-1.925h-6v1.925zm12 0h6v-1.925h-6v1.925zm12 0h6v-1.925h-6v1.925zm12 0h6v-1.925h-6v1.925zm12 0h6v-1.925h-6v1.925zm12 0h6v-1.925h-6v1.925zm12 0h6v-1.925h-6v1.925zm12 0h6v-1.925h-6v1.925zm12 0h6v-1.925h-6v1.925zm12 0h6v-1.925h-6v1.925zm12 0h6v-1.925h-6v1.925zm12 0h6v-1.925h-6v1.925zm12 0h6v-1.925h-6v1.925zm12 0h6v-1.925h-6v1.925zm12 0h6v-1.925h-6v1.925zm12 0h6v-1.925h-6v1.925zm12 0h6v-1.925h-6v1.925zm12 0h6v-1.925h-6v1.925zm12 0h6v-1.925h-6v1.925zm12 0h6v-1.925h-6v1.925zm12 0h6v-1.925h-6v1.925zm17.361 1.96a29.677 29.677 0 0 0-5.566-1.525l.352-1.895c2.031.348 4.034.897 5.953 1.63l-.739 1.79zm9.65 6.062a29.024 29.024 0 0 0-4.511-3.497l1.094-1.612a31.115 31.115 0 0 1 4.819 3.736l-1.402 1.373zm6.447 9.19a27.549 27.549 0 0 0-2.745-4.906l1.657-1.077a29.53 29.53 0 0 1 2.936 5.243l-1.848.74zm4.209 10.904l-2-.03.001-.167c0-1.81-.181-3.617-.536-5.374l1.963-.368c.381 1.878.573 3.81.573 5.742l-.001.197zm-2.512 11.597l-1.838-.762a26.959 26.959 0 0 0 1.743-5.313l1.959.393a28.9 28.9 0 0 1-1.864 5.681zm-7.022 9.74l-1.385-1.39a28.465 28.465 0 0 0 3.759-4.24l1.642 1.098a30.36 30.36 0 0 1-4.016 4.531zm-10.398 6.352l-.714-1.798a29.348 29.348 0 0 0 5.171-2.502l1.073 1.625a31.436 31.436 0 0 1-5.53 2.675zm-240.114 1.958h6v-1.925h-6v1.925zm12 0h6v-1.925h-6v1.925zm12 0h6v-1.925h-6v1.925zm12 0h6v-1.925h-6v1.925zm12 0h6v-1.925h-6v1.925zm12 0h6v-1.925h-6v1.925zm12 0h6v-1.925h-6v1.925zm12 0h6v-1.925h-6v1.925zm12 0h6v-1.925h-6v1.925zm12 0h6v-1.925h-6v1.925zm12 0h6v-1.925h-6v1.925zm12 0h6v-1.925h-6v1.925zm12 0h6v-1.925h-6v1.925zm12 0h6v-1.925h-6v1.925zm12 0h6v-1.925h-6v1.925zm12 0h6v-1.925h-6v1.925zm12 0h6v-1.925h-6v1.925zm12 0h6v-1.925h-6v1.925zm12 0h6v-1.925h-6v1.925zm13.047 0h-1.047v-1.925H623c1.6 0 3.204-.126 4.767-.375l.326 1.9c-1.67.266-3.384.4-5.093.4zm-241.012.017l-.07-1.925c.359-.011.72-.017 1.082-.017h4.953v1.925H383c-.339 0-.676.005-1.012.017zm-11.203 2.573l-.844-1.746a31.634 31.634 0 0 1 5.847-1.957l.463 1.873a29.526 29.526 0 0 0-5.466 1.83zm-9.275 6.582l-1.483-1.294a30.827 30.827 0 0 1 4.591-3.993l1.188 1.549a28.792 28.792 0 0 0-4.296 3.738zm-5.892 9.53l-1.888-.635a29.3 29.3 0 0 1 2.619-5.399l1.718.986a27.344 27.344 0 0 0-2.449 5.048zm-3.556 11.109a28.926 28.926 0 0 1 .223-5.951l1.982.259a27.192 27.192 0 0 0-.209 5.572l-1.996.12zm3.201 11.449a29.034 29.034 0 0 1-2.201-5.571l1.931-.499a27.14 27.14 0 0 0 2.059 5.207l-1.789.863zm7.586 9.338a30.642 30.642 0 0 1-4.279-4.304l1.576-1.186a28.636 28.636 0 0 0 4.003 4.027l-1.3 1.463zm10.757 5.77a31.492 31.492 0 0 1-5.681-2.365l.974-1.682a29.493 29.493 0 0 0 5.313 2.212l-.606 1.835zm18.156 1.395h6v-1.925h-6v1.925zm12 0h6v-1.925h-6v1.925zm12 0h6v-1.925h-6v1.925zm12 0h6v-1.925h-6v1.925zm12 0h6v-1.925h-6v1.925zm12 0h6v-1.925h-6v1.925zm12 0h6v-1.925h-6v1.925zm12 0h6v-1.925h-6v1.925zm12 0h6v-1.925h-6v1.925zm12 0h6v-1.925h-6v1.925zm12 0h6v-1.925h-6v1.925zm12 0h6v-1.925h-6v1.925zm12 0h6v-1.925h-6v1.925zm12 0h6v-1.925h-6v1.925zm12 0h6v-1.925h-6v1.925zm12 0h6v-1.925h-6v1.925zm12 0h6v-1.925h-6v1.925zm12 0h6v-1.925h-6v1.925zm12 0h6v-1.925h-6v1.925zm12 0h6v-1.925h-6v1.925zm12 0h6v-1.925h-6v1.925zm12 0h6v-1.925h-6v1.925zm12 0h6v-1.925h-6v1.925zm12 0h6v-1.925h-6v1.925zm12 0h6v-1.925h-6v1.925zm12 0h6v-1.925h-6v1.925zm-308.778 0c-1.108 0-2.226-.057-3.322-.17l.213-1.915c1.026.106 2.073.16 3.112.16h2.775v1.925h-2.778zm326.2 1.581a24.642 24.642 0 0 0-5.564-1.379l.262-1.91c2.066.264 4.095.767 6.03 1.496l-.728 1.793zm9.33 6.322a23.864 23.864 0 0 0-4.272-3.701l1.153-1.575a25.924 25.924 0 0 1 4.625 4.008l-1.506 1.268zm5.252 9.745a22.47 22.47 0 0 0-2.015-5.177l1.775-.888a24.281 24.281 0 0 1 2.183 5.612l-1.943.453zm.673 11.27h2v-5.776h-2v5.776zm0 11.553h2v-5.776h-2v5.776z"/></defs></svg>