<svg width="377" height="62" viewBox="0 0 377 62" xmlns="http://www.w3.org/2000/svg" xmlns:xlink="http://www.w3.org/1999/xlink"><title>Fill 291</title><desc>Created using Figma</desc><use xlink:href="#a" transform="translate(0 .78)" fill="#A32B25"/><defs><path id="a" fill-rule="evenodd" d="M374.439 5.776h2V0h-2v5.776zm.009 11.677l-1.845-.741a22.333 22.333 0 0 0 1.553-5.322l1.977.294a24.241 24.241 0 0 1-1.685 5.77zm-7.327 9.577l-1.283-1.476a23.688 23.688 0 0 0 3.935-4.03l1.61 1.141a25.6 25.6 0 0 1-4.262 4.365zm-11.093 5.25l-.427-1.88a24.482 24.482 0 0 0 5.422-1.826l.883 1.728a26.524 26.524 0 0 1-5.878 1.979zm-324.171.58h6v-1.925h-6v1.926zm12 0h6v-1.925h-6v1.926zm12 0h6v-1.925h-6v1.926zm12 0h6v-1.925h-6v1.926zm12 0h6v-1.925h-6v1.926zm12 0h6v-1.925h-6v1.926zm12 0h6v-1.925h-6v1.926zm12 0h6v-1.925h-6v1.926zm12 0h6v-1.925h-6v1.926zm12 0h6v-1.925h-6v1.926zm12 0h6v-1.925h-6v1.926zm12 0h6v-1.925h-6v1.926zm12 0h6v-1.925h-6v1.926zm12 0h6v-1.925h-6v1.926zm12 0h6v-1.925h-6v1.926zm12 0h6.001v-1.925h-6.001v1.926zm12.001 0h6v-1.925h-6v1.926zm12 0h6v-1.925h-6v1.926zm12 0h6v-1.925h-6v1.926zm12 0h6v-1.925h-6v1.926zm12 0h6v-1.925h-6v1.926zm12 0h6v-1.925h-6v1.926zm12 0h6v-1.925h-6v1.926zm12 0h6v-1.925h-6v1.926zm12 0h6v-1.925h-6v1.926zm12 0h6v-1.925h-6v1.926zm12 0h6v-1.925h-6v1.926zm-323.38 1.895l-.727-1.794a31.763 31.763 0 0 1 5.964-1.594l.338 1.898a29.57 29.57 0 0 0-5.575 1.49zm-9.689 6.003l-1.394-1.382a31.194 31.194 0 0 1 4.842-3.707l1.084 1.62a29.051 29.051 0 0 0-4.532 3.469zM4.28 49.909l-1.842-.75a29.619 29.619 0 0 1 2.969-5.226l1.651 1.087a27.67 27.67 0 0 0-2.778 4.89zM2 60.78H0c0-1.995.206-3.988.611-5.926l1.961.38A27.084 27.084 0 0 0 2 60.78z"/></defs></svg>