<svg width="1072" height="245" viewBox="0 0 1072 245" xmlns="http://www.w3.org/2000/svg" xmlns:xlink="http://www.w3.org/1999/xlink"><title>Group</title><desc>Created using Figma</desc><use xlink:href="#a" transform="translate(0 59.79)" fill="#A32B25"/><use xlink:href="#b" transform="translate(54 242.22)" fill="#A32B25"/><use xlink:href="#b" transform="translate(1015 242.22)" fill="#A32B25"/><use xlink:href="#c" transform="translate(545.08 59.79)" fill="#A32B25"/><use xlink:href="#b" transform="translate(536 59.79)" fill="#A32B25"/><use xlink:href="#d" transform="translate(532.75 .86)" fill="#A32B25"/><defs><path id="a" fill-rule="evenodd" d="M26.971 1.925h6.024V0h-6.024v1.925zm12.048 0h6.024V0h-6.024v1.925zm12.048 0h6.024V0h-6.024v1.925zm12.05 0h6.023V0h-6.024v1.925zm12.047 0h6.024V0h-6.024v1.925zm12.048 0h6.024V0h-6.024v1.925zm12.05 0h6.023V0h-6.024v1.925zm12.047 0h6.024V0h-6.024v1.925zm12.048 0h6.024V0h-6.024v1.925zm12.049 0h6.024V0h-6.024v1.925zm12.048 0h6.024V0h-6.024v1.925zm12.048 0h6.024V0h-6.024v1.925zm12.049 0h6.024V0h-6.024v1.925zm12.048 0h6.024V0h-6.024v1.925zm12.048 0h6.024V0h-6.024v1.925zm12.048 0h6.024V0h-6.024v1.925zm12.049 0h6.024V0h-6.024v1.925zm12.048 0h6.024V0h-6.024v1.925zm12.048 0h6.024V0h-6.024v1.925zm12.049 0h6.024V0h-6.024v1.925zm12.048 0h6.024V0h-6.024v1.925zm12.048 0h6.024V0h-6.024v1.925zm12.049 0h6.024V0h-6.024v1.925zm12.048 0h6.024V0h-6.024v1.925zm12.048 0h6.024V0h-6.024v1.925zm12.049 0h6.024V0h-6.024v1.925zm12.048 0h6.024V0h-6.024v1.925zm12.048 0h6.024V0h-6.024v1.925zm12.049 0h6.024V0h-6.024v1.925zm12.048 0h6.024V0h-6.024v1.925zm12.048 0h6.024V0h-6.024v1.925zm12.049 0h6.024V0h-6.024v1.925zm12.048 0h6.024V0h-6.024v1.925zm12.048 0h6.024V0h-6.024v1.925zm12.048 0h6.024V0h-6.024v1.925zm12.049 0h6.024V0h-6.024v1.925zm12.048 0h6.024V0h-6.024v1.925zm12.048 0h6.024V0h-6.024v1.925zm12.049 0h6.024V0h-6.024v1.925zm12.048 0h6.024V0h-6.024v1.925zm12.048 0h6.024V0h-6.024v1.925zm12.049 0h6.024V0h-6.024v1.925zM15.711 4.15l-.858-1.74a26.542 26.542 0 0 1 5.93-1.905l.399 1.886a24.56 24.56 0 0 0-5.471 1.76zm-8.876 6.97L5.238 9.96a25.589 25.589 0 0 1 4.334-4.33l1.264 1.491a23.656 23.656 0 0 0-4.001 4zM2.32 21.25l-1.974-.316c.341-1.986.931-3.93 1.754-5.774l1.838.76a22.322 22.322 0 0 0-1.618 5.33zM0 32.671h2v-5.8H0v5.8zm0 11.6h2v-5.8H0v5.8zM0 55.87h2v-5.8H0v5.8zm0 11.598h2v-5.8H0v5.8zm0 11.599h2v-5.8H0v5.8zm0 11.6h2v-5.8H0v5.8zm0 11.599h2v-5.8H0v5.8zm0 11.599h2v-5.799H0v5.799zm0 11.599h2v-5.799H0v5.799zm0 11.598h2v-5.798H0v5.798zm0 11.6h2v-5.799H0v5.799zm.019 11.635A25.918 25.918 0 0 1 0 159.33v-4.867h2v4.867c0 .3.006.598.018.895l-1.999.073zm3.42 11.483a24.457 24.457 0 0 1-2.436-5.543l1.923-.53a22.51 22.51 0 0 0 2.248 5.114l-1.735.959zm8.56 8.645a25.981 25.981 0 0 1-4.82-3.825l1.447-1.33a24.071 24.071 0 0 0 4.451 3.535l-1.079 1.62zm11.747 3.842a26.82 26.82 0 0 1-6.116-1.233l.644-1.824c1.819.596 3.718.979 5.644 1.138l-.172 1.919zm6.107.092h6.024v-1.925h-6.024v1.925zm12.048 0h6.024v-1.925H41.9v1.925z"/><path id="b" fill-rule="evenodd" d="M0 1.925h3V0H0v1.925z"/><path id="c" fill-rule="evenodd" d="M0 1.925h6.024V0H0v1.925zm12.047 0h6.024V0h-6.024v1.925zm12.05 0h6.022V0h-6.023v1.925zm12.047 0h6.024V0h-6.024v1.925zm12.049 0h6.023V0h-6.023v1.925zm12.048 0h6.024V0h-6.024v1.925zm12.049 0h6.023V0H72.29v1.925zm12.047 0h6.024V0h-6.024v1.925zm12.05 0h6.022V0h-6.023v1.925zm12.047 0h6.024V0h-6.024v1.925zm12.049 0h6.023V0h-6.023v1.925zm12.048 0h6.024V0h-6.024v1.925zm12.048 0h6.024V0h-6.024v1.925zm12.049 0h6.024V0h-6.024v1.925zm12.047 0h6.024V0h-6.024v1.925zm12.049 0h6.024V0h-6.024v1.925zm12.048 0h6.024V0h-6.024v1.925zm12.049 0h6.024V0h-6.024v1.925zm12.048 0h6.024V0h-6.024v1.925zm12.049 0h6.023V0h-6.023v1.925zm12.047 0h6.024V0h-6.024v1.925zm12.049 0h6.023V0h-6.023v1.925zm12.048 0h6.024V0h-6.024v1.925zm12.049 0h6.023V0h-6.023v1.925zm12.048 0h6.024V0h-6.024v1.925zm12.049 0h6.023V0h-6.023v1.925zm12.047 0h6.024V0h-6.024v1.925zm12.048 0h6.024V0h-6.024v1.925zm12.049 0h6.024V0h-6.024v1.925zm12.048 0h6.024V0H349.4v1.925zm12.049 0h6.024V0h-6.024v1.925zm12.048 0h6.024V0h-6.024v1.925zm12.049 0h6.024V0h-6.024v1.925zm12.047 0h6.024V0h-6.024v1.925zm12.049 0h6.024V0h-6.024v1.925zm12.048 0h6.024V0h-6.024v1.925zm12.049 0h6.023V0h-6.023v1.925zm12.048 0h6.024V0h-6.024v1.925zm12.049 0h6.023V0h-6.023v1.925zm12.047 0h6.024V0h-6.024v1.925zm12.049 0h6.023V0h-6.023v1.925zm12.048 0h6.024V0h-6.024v1.925zm17.275 2.244a24.443 24.443 0 0 0-5.466-1.768l.405-1.886a26.509 26.509 0 0 1 5.922 1.918l-.861 1.736zm8.861 6.986a23.74 23.74 0 0 0-3.995-4.008l1.268-1.489a25.726 25.726 0 0 1 4.325 4.339l-1.598 1.158zm4.496 10.14a22.218 22.218 0 0 0-1.607-5.334l1.84-.756a24.187 24.187 0 0 1 1.742 5.781l-1.975.31zm.312 11.427h2v-5.8h-2v5.8zm0 11.598h2v-5.8h-2v5.8zm0 11.6h2v-5.8h-2v5.8zm0 11.598h2v-5.8h-2v5.8zm0 11.6h2v-5.8h-2v5.8zm0 11.599h2v-5.8h-2v5.8zm0 11.6h2v-5.8h-2v5.8zm0 11.599h2v-5.8h-2v5.8zm0 11.598h2v-5.799h-2v5.799zm0 11.599h2v-5.799h-2v5.799zm0 11.599h2v-5.798h-2v5.798zm1.979 11.637l-1.999-.077c.013-.313.02-.626.02-.942v-4.819h2v4.819c0 .342-.007.681-.021 1.019zm-3.445 11.475l-1.732-.963a22.554 22.554 0 0 0 2.259-5.108l1.921.534a24.459 24.459 0 0 1-2.448 5.537zm-8.576 8.628l-1.076-1.623a23.998 23.998 0 0 0 4.458-3.526l1.445 1.332a25.92 25.92 0 0 1-4.827 3.817zm-11.757 3.82l-.166-1.919a24.74 24.74 0 0 0 5.646-1.126l.64 1.823a26.784 26.784 0 0 1-6.12 1.222zm-24.176.088h6.024v-1.925h-6.024v1.925zm12.048 0h6.024v-1.925h-6.024v1.925z"/><path id="d" fill-rule="evenodd" d="M0 7.247h2.509V0H0v7.247zm0 14.494h2.509v-7.247H0v7.247zm0 14.494h2.509v-7.248H0v7.248zm0 14.494h2.509v-7.246H0v7.246z"/></defs></svg>