<svg width="237" height="132" viewBox="0 0 237 132" xmlns="http://www.w3.org/2000/svg" xmlns:xlink="http://www.w3.org/1999/xlink"><title>Group 630</title><desc>Created using Figma</desc><use xlink:href="#a" transform="translate(151 36.49)" fill="#A32B25"/><use xlink:href="#b" transform="translate(151 54.78)" fill="#A32B25"/><use xlink:href="#c" transform="translate(144 39.38)" fill="#A32B25"/><use xlink:href="#d" transform="translate(158 52.86)" fill="#A32B25"/><use xlink:href="#e" transform="translate(141 46.12)" fill="#A32B25"/><use xlink:href="#f" transform="translate(160 46.12)" fill="#A32B25"/><use xlink:href="#g" transform="translate(144 52.86)" fill="#A32B25"/><use xlink:href="#h" transform="translate(158 39.38)" fill="#A32B25"/><use xlink:href="#i" transform="translate(184 18.2)" fill="#A32B25"/><g transform="translate(-5364 -2599)"><mask id="k"><use xlink:href="#j" fill="#fff" transform="translate(5364 2714.43)"/></mask><g mask="url(#k)"><use xlink:href="#l" transform="translate(5364 2714.43)" fill="#A32B25"/></g></g><use xlink:href="#m" transform="translate(119 54.78)" fill="#A32B25"/><g transform="translate(-5364 -2599)"><use xlink:href="#n" transform="translate(5459 2707.7)" fill="#A32B25"/><mask id="o"><use xlink:href="#n" fill="#fff" transform="translate(5459 2707.7)"/></mask><g mask="url(#o)"><use xlink:href="#p" transform="translate(5459 2707.7)" fill="#A32B25"/></g></g><g transform="translate(-5364 -2599)"><mask id="r"><use xlink:href="#q" fill="#fff" transform="translate(5443 2694.22)"/></mask><g mask="url(#r)"><use xlink:href="#s" transform="translate(5443 2694.22)" fill="#A32B25"/></g></g><g transform="translate(-5364 -2599)"><mask id="u"><use xlink:href="#t" fill="#fff" transform="translate(5435.97 2695.65)"/></mask><g mask="url(#u)"><use xlink:href="#v" transform="translate(5435.97 2695.65)" fill="#A32B25"/></g></g><use xlink:href="#w" transform="translate(172 6.65)" fill="#A32B25"/><use xlink:href="#x" transform="translate(20 6.65)" fill="#A32B25"/><use xlink:href="#y" transform="translate(112.8 49.01)" fill="#A32B25"/><use xlink:href="#z" transform="translate(13 12.42)" fill="#A32B25"/><use xlink:href="#A" transform="translate(91 58.63)" fill="#A32B25"/><use xlink:href="#B" transform="translate(89.2 25.29)" fill="#C1272D"/><use xlink:href="#C" transform="translate(91.73 25.29)" fill="#C1272D"/><use xlink:href="#D" transform="translate(93.52 25.29)" fill="#C1272D"/><use xlink:href="#E" transform="translate(91.81 26.94)" fill="#C1272D"/><g transform="translate(-5364 -2599)"><use xlink:href="#F" transform="translate(5462.59 2623.72)" fill="#A32B25"/><mask id="H"><use xlink:href="#G" transform="translate(5452 2620.7)" fill="#FFF"/></mask><g mask="url(#H)"><use xlink:href="#I" transform="translate(5469.9 2623.71)" fill="#A32B25"/></g><g mask="url(#H)"><use xlink:href="#J" transform="translate(5472.14 2623.72)" fill="#A32B25"/></g><g mask="url(#H)"><use xlink:href="#K" transform="translate(5479.74 2623.71)" fill="#A32B25"/></g><g mask="url(#H)"><use xlink:href="#L" transform="translate(5487.05 2623.72)" fill="#A32B25"/></g><g mask="url(#H)"><use xlink:href="#M" transform="translate(5452.15 2620.84)" fill="#C1272D"/></g></g><use xlink:href="#N" transform="translate(20 72.11)" fill="#A32B25"/><use xlink:href="#O" transform="translate(60 58.65)" fill="#A32B25"/><use xlink:href="#P" transform="translate(13 66.34)" fill="#A32B25"/><use xlink:href="#Q" transform="translate(13 6.65)" fill="#A32B25"/><use xlink:href="#R" transform="translate(53 12.42)" fill="#A32B25"/><use xlink:href="#S" transform="translate(49 12.42)" fill="#A32B25"/><use xlink:href="#T" transform="translate(37 75)" fill="#A32B25"/><use xlink:href="#U" transform="translate(28 99.07)" fill="#A32B25"/><use xlink:href="#V" transform="translate(31 101.96)" fill="#A32B25"/><use xlink:href="#W" transform="translate(44 99.07)" fill="#A32B25"/><use xlink:href="#X" transform="translate(15 112.01)" fill="#A32B25"/><g transform="translate(-5364 -2599)"><mask id="Z"><use xlink:href="#Y" fill="#fff" transform="translate(5434 2687.48)"/></mask><g mask="url(#Z)"><use xlink:href="#aa" transform="translate(5434 2687.48)" fill="#A32B25"/></g></g><use xlink:href="#ab" transform="translate(25 75)" fill="#A32B25"/><use xlink:href="#ac" transform="translate(25 77.89)" fill="#A32B25"/><use xlink:href="#ad" transform="translate(37 83.66)" fill="#A32B25"/><use xlink:href="#ae" transform="translate(47 80.78)" fill="#A32B25"/><use xlink:href="#af" transform="translate(20 36.49)" fill="#A32B25"/><use xlink:href="#ag" transform="translate(212 32.64)" fill="#A32B25"/><use xlink:href="#ah" transform="rotate(-90 110.72 -75.28)" fill="#A32B25"/><use xlink:href="#ah" transform="matrix(0 -1 1 0 186 59.57)" fill="#A32B25"/><use xlink:href="#ai" transform="translate(166 90.4)" fill="#A32B25"/><use xlink:href="#aj" transform="translate(138 90.4)" fill="#A32B25"/><use xlink:href="#ak" transform="translate(138 90.4)" fill="#A32B25"/><use xlink:href="#al" transform="translate(135 30.72)" fill="#A32B25"/><use xlink:href="#am" transform="translate(64 39.38)" fill="#A32B25"/><use xlink:href="#an" transform="translate(70 37.45)" fill="#A32B25"/><use xlink:href="#an" transform="matrix(1 0 0 -1 70 56.71)" fill="#A32B25"/><use xlink:href="#ao" transform="rotate(90 18.52 63.48)" fill="#A32B25"/><use xlink:href="#ao" transform="matrix(0 1 1 0 62 44.96)" fill="#A32B25"/><use xlink:href="#ap" transform="translate(150 21.09)" fill="#A32B25"/><use xlink:href="#aq" transform="rotate(90 -49.44 80.44)" fill="#A32B25"/><use xlink:href="#ar" transform="rotate(90 -46.44 83.44)" fill="#A32B25"/><use xlink:href="#aq" transform="rotate(90 87.565 88.435)" fill="#A32B25"/><use xlink:href="#ar" transform="rotate(90 76.56 77.43)" fill="#A32B25"/><defs><path id="a" fill-rule="evenodd" d="M1.246 2.376C.564 2.376 0 1.845 0 1.188 0 .531.54 0 1.219 0h.027c.679 0 1.233.531 1.233 1.188 0 .657-.554 1.188-1.233 1.188z"/><path id="b" fill-rule="evenodd" d="M1.246 2.376C.564 2.376 0 1.845 0 1.188 0 .531.54 0 1.219 0h.027c.679 0 1.233.531 1.233 1.188 0 .657-.554 1.188-1.233 1.188"/><path id="c" fill-rule="evenodd" d="M1.246 2.375C.564 2.375 0 1.844 0 1.188 0 .531.54 0 1.22 0h.026c.68 0 1.234.531 1.234 1.188 0 .656-.554 1.187-1.234 1.187"/><path id="d" fill-rule="evenodd" d="M1.246 2.376C.564 2.376 0 1.845 0 1.189 0 .531.54 0 1.22 0h.026c.68 0 1.233.531 1.233 1.189 0 .656-.553 1.187-1.233 1.187"/><path id="e" fill-rule="evenodd" d="M1.245 2.376C.563 2.376 0 1.845 0 1.189A1.2 1.2 0 0 1 1.219 0h.026c.68 0 1.234.531 1.234 1.189 0 .656-.554 1.187-1.234 1.187"/><path id="f" fill-rule="evenodd" d="M1.246 2.376C.564 2.376 0 1.845 0 1.189 0 .531.54 0 1.22 0h.026c.68 0 1.234.531 1.234 1.189 0 .656-.554 1.187-1.234 1.187"/><path id="g" fill-rule="evenodd" d="M1.246 2.376C.564 2.376 0 1.845 0 1.188 0 .531.54 0 1.219 0h.027C1.925 0 2.48.531 2.48 1.188c0 .657-.555 1.188-1.234 1.188"/><path id="h" fill-rule="evenodd" d="M1.246 2.376C.564 2.376 0 1.844 0 1.188 0 .531.54 0 1.22 0h.026c.679 0 1.233.531 1.233 1.188 0 .656-.554 1.188-1.233 1.188"/><path id="i" fill-rule="evenodd" d="M1.554 92.75C.695 92.75 0 92.08 0 91.252V1.496C0 .67.695 0 1.554 0c.859 0 1.554.67 1.554 1.496v89.757c0 .827-.695 1.496-1.554 1.496"/><path id="j" fill-rule="evenodd" d="M0 3a3 3 0 0 1 3-3h231a3 3 0 0 1 3 3v4.59a3 3 0 0 1-3 3H3a3 3 0 0 1-3-3V3z"/><path id="l" d="M3 3h231v-6H3v6zm231 0v4.59h6V3h-6zm0 4.59H3v6h231v-6zm-231 0V3h-6v4.59h6zM3-3a6 6 0 0 0-6 6h6v-6zm231 6h6a6 6 0 0 0-6-6v6zm0 4.59v6a6 6 0 0 0 6-6h-6zm-231 0h-6a6 6 0 0 0 6 6v-6z"/><path id="m" fill-rule="evenodd" d="M1.554 56.846C.695 56.846 0 56.178 0 55.352V1.495C0 .67.695 0 1.554 0c.859 0 1.553.67 1.553 1.496V55.35c0 .828-.694 1.496-1.553 1.496"/><path id="n" fill-rule="evenodd" d="M0 2a2 2 0 0 1 2-2h23a2 2 0 0 1 2 2v4.664a2 2 0 0 1-2 2H2a2 2 0 0 1-2-2V2z"/><path id="p" d="M2 2h23v-4H2v4zm23 0v4.664h4V2h-4zm0 4.664H2v4h23v-4zm-23 0V2h-4v4.664h4zM2-2a4 4 0 0 0-4 4h4v-4zm23 4h4a4 4 0 0 0-4-4v4zm0 4.664v4a4 4 0 0 0 4-4h-4zm-23 0h-4a4 4 0 0 0 4 4v-4z"/><path id="q" fill-rule="evenodd" d="M0 7.54a2 2 0 0 1 1.637-1.968l30-5.54A2 2 0 0 1 34 2v11a2 2 0 0 1-2 2H2a2 2 0 0 1-2-2V7.54z"/><path id="s" d="M2.363 9.506l30-5.54-1.453-7.867-30 5.54 1.453 7.867zM30 1.999v11h8V2h-8zm2 9H2v8h30v-8zM4 13V7.54h-8V13h8zM.91 1.64A6 6 0 0 0-4 7.539h8a2 2 0 0 1-1.637 1.967L.91 1.639zm31.453 2.327A2 2 0 0 1 30 1.999h8c0-3.75-3.402-6.581-7.09-5.9l1.453 7.867zM30 12.999a2 2 0 0 1 2-2v8a6 6 0 0 0 6-6h-8zM2 11a2 2 0 0 1 2 2h-8a6 6 0 0 0 6 6v-8z"/><path id="t" fill-rule="evenodd" d="M0 5.484a2 2 0 0 1 .858-1.642L5.888.344c1.327-.922 3.143.027 3.143 1.642v9.577a2 2 0 0 1-2 2H2a2 2 0 0 1-2-2V5.484z"/><path id="v" d="M.858 3.842L-.284 2.2.858 3.842zM2 5.484l5.03-3.498-2.283-3.284L-.283 2.2 2 5.484zm5.03-3.498v9.577h4V1.986h-4zm0 9.577H2v4h5.03v-4zm-5.03 0V5.484h-4v6.08h4zM-.284 2.2A4 4 0 0 0-2 5.484h4L-.284 2.2zm7.315-.214h4c0-3.23-3.632-5.128-6.284-3.284l2.284 3.284zm0 9.577v4a4 4 0 0 0 4-4h-4zm-5.031 0h-4a4 4 0 0 0 4 4v-4z"/><path id="w" fill-rule="evenodd" d="M11.993 13.43c0-5.773-4.442-10.439-10.439-10.439C.695 2.991 0 2.323 0 1.496 0 .67.695 0 1.554 0c7.712 0 13.547 6.007 13.547 13.43 0 .829-.695 1.498-1.554 1.498-.859 0-1.554-.67-1.554-1.497z"/><path id="x" fill-rule="evenodd" d="M153.834 2.991H1.554C.695 2.991 0 2.323 0 1.495 0 .67.695 0 1.554 0h152.28c.859 0 1.553.67 1.553 1.495.001.828-.694 1.496-1.553 1.496"/><path id="y" fill-rule="evenodd" d="M7.77 8.974c-.859 0-1.554-.668-1.554-1.496 0-2.474-2.091-4.487-4.662-4.487C.695 2.991 0 2.322 0 1.495S.695 0 1.554 0C5.84 0 9.323 3.353 9.323 7.478c0 .828-.694 1.496-1.553 1.496"/><path id="z" fill-rule="evenodd" d="M1.554 56.846C.695 56.846 0 56.176 0 55.35V1.495C0 .668.695 0 1.554 0c.858 0 1.554.668 1.554 1.496V55.35c0 .828-.695 1.497-1.554 1.497"/><path id="A" fill-rule="evenodd" d="M23.308 2.991H1.554C.695 2.991 0 2.322 0 1.495S.695 0 1.554 0h21.754c.859 0 1.554.668 1.554 1.495 0 .827-.695 1.496-1.554 1.496"/><path id="B" d="M8.406 1.723c0 .149-.075.315-.264.493-.197.188-.475.35-.85.499-.759.304-1.795.488-2.968.487v.486c1.216 0 2.342-.202 3.148-.522.408-.163.764-.373 1.004-.596.249-.235.416-.521.416-.847h-.486zm-4.082 1.48c-1.172 0-2.208-.184-2.968-.488-.374-.149-.652-.31-.85-.499-.188-.178-.263-.344-.263-.493h-.486c0 .326.167.612.416.847.24.223.595.433 1.004.596.805.32 1.932.521 3.147.522v-.486zM.243 1.722c0-.15.075-.316.263-.494.198-.188.476-.35.85-.499.76-.303 1.796-.488 2.968-.487v-.486c-1.215 0-2.342.202-3.147.522C.768.442.413.652.173.875c-.249.235-.416.521-.416.848h.486zM4.324.243c1.173 0 2.21.184 2.968.487.375.149.653.31.85.5.189.177.264.344.264.493h.486c0-.327-.167-.613-.416-.848C8.236.652 7.88.442 7.472.28 6.666-.04 5.54-.241 4.324-.242v.486z"/><path id="C" d="M3.336 1.723c0 .808-.684 1.48-1.546 1.48v.485c1.113 0 2.032-.872 2.032-1.965h-.486zM1.79 3.203c-.863 0-1.547-.672-1.547-1.48h-.486c0 1.093.92 1.965 2.033 1.965v-.486zM.243 1.722C.243.914.927.243 1.79.243v-.486C.676-.243-.243.629-.243 1.723h.486zM1.79.243c.862 0 1.546.671 1.546 1.48h.486c0-1.094-.919-1.966-2.032-1.966v.486z"/><path id="D" d="M.243 3.445V0h-.486v3.445h.486z"/><path id="E" d="M0 .243h3.58v-.486H0v.486z"/><path id="F" fill-rule="evenodd" d="M0 7.034V0h5.517s1.64.143 1.64 2.009c0 1.867-1.64 2.154-1.64 2.154h-.894L6.86 7.034H0z"/><path id="G" fill-rule="evenodd" d="M0 10.632h40.122V0H0v10.632z"/><path id="I" fill-rule="evenodd" d="M0 7.034h2.088V0H0v7.034z"/><path id="J" fill-rule="evenodd" d="M.447 7.034V4.45h1.64S0 4.307 0 2.297C0 .287 2.087 0 2.087 0h5.518v2.584h-1.64s1.64.143 1.64 2.153c0 2.01-1.64 2.297-1.64 2.297H.447z"/><path id="K" fill-rule="evenodd" d="M0 3.445S.298 0 3.58 0c3.28 0 3.727 3.015 3.727 3.445 0 .431-.298 3.59-3.728 3.59S0 3.444 0 3.444z"/><path id="L" fill-rule="evenodd" d="M0 7.034V0h3.58v4.307h1.34v2.727H0z"/><path id="M" d="M9.969 6.7c-.659 1.817-2.463 3.137-4.6 3.137v1c2.552 0 4.736-1.578 5.54-3.796l-.94-.34zm-4.6 3.137C2.66 9.837.5 7.729.5 5.168h-1c0 3.149 2.645 5.668 5.868 5.668v-1zM.5 5.168C.5 2.608 2.661.5 5.368.5v-1C2.145-.5-.5 2.02-.5 5.168h1zM5.368.5c2.139 0 3.943 1.32 4.6 3.137l.94-.34C10.106 1.076 7.922-.5 5.369-.5v1z"/><path id="N" fill-rule="evenodd" d="M41.955 2.992H1.554C.695 2.992 0 2.323 0 1.495 0 .67.695 0 1.554 0h40.401c.858 0 1.554.67 1.554 1.495 0 .828-.695 1.497-1.554 1.497"/><path id="O" fill-rule="evenodd" d="M0 14.828c0-.826.695-1.495 1.554-1.495 1.857 0 4.789-4.717 9.299-8.394C17.52-.496 23.966.013 31.966.013c.86 0 1.554.669 1.554 1.496 0 .826-.695 1.496-1.554 1.496-6.565 0-12.79-.727-18.748 3.876-6.526 5.041-8.374 9.444-11.664 9.444-.859 0-1.554-.67-1.554-1.497z"/><path id="P" fill-rule="evenodd" d="M7.77 8.976C3.485 8.976 0 5.622 0 1.496 0 .67.696 0 1.555 0c.858 0 1.554.67 1.554 1.496 0 2.475 2.091 4.488 4.661 4.488.859 0 1.555.67 1.555 1.495-.001.828-.696 1.497-1.555 1.497"/><path id="Q" fill-rule="evenodd" d="M1.554 8.975C.695 8.975 0 8.306 0 7.48 0 3.354 3.484 0 7.769 0c.859 0 1.555.67 1.555 1.495 0 .828-.696 1.496-1.555 1.496-2.57 0-4.661 2.014-4.661 4.488 0 .827-.695 1.496-1.554 1.496"/><path id="R" fill-rule="evenodd" d="M1.085 56.846c-.6 0-1.085-.67-1.085-1.496V1.495C0 .668.485 0 1.085 0S2.17.668 2.17 1.496V55.35c0 .828-.485 1.497-1.085 1.497"/><path id="S" fill-rule="evenodd" d="M1.066 56.846C.477 56.846 0 56.176 0 55.35V1.495C0 .668.477 0 1.066 0c.589 0 1.066.668 1.066 1.496V55.35c0 .828-.477 1.497-1.066 1.497"/><path id="T" fill-rule="evenodd" d="M1.588 33.63C.711 33.63 0 32.947 0 32.1V1.53C0 .684.711 0 1.588 0c.878 0 1.588.684 1.588 1.529v30.573c0 .844-.71 1.529-1.588 1.529"/><path id="U" fill-rule="evenodd" d="M4.763 6.114c-.406 0-.812-.148-1.122-.446L.465 2.609a1.488 1.488 0 0 1 0-2.161 1.631 1.631 0 0 1 2.245 0l3.176 3.057a1.49 1.49 0 0 1 0 2.163 1.614 1.614 0 0 1-1.123.446"/><path id="V" fill-rule="evenodd" d="M14.291 3.057H1.588C.71 3.057 0 2.374 0 1.529S.71 0 1.588 0h12.703c.877 0 1.588.684 1.588 1.529 0 .845-.71 1.528-1.588 1.528"/><path id="W" fill-rule="evenodd" d="M1.588 6.114c-.406 0-.812-.148-1.123-.446a1.49 1.49 0 0 1 0-2.163L3.641.448a1.631 1.631 0 0 1 2.245 0c.62.597.62 1.564 0 2.161L2.71 5.668a1.61 1.61 0 0 1-1.122.446"/><path id="X" fill-rule="evenodd" d="M53.166 3.53H1.834C.82 3.53 0 2.74 0 1.763S.82 0 1.833 0h51.334C54.178 0 55 .788 55 1.764s-.82 1.765-1.834 1.765"/><path id="Y" fill-rule="evenodd" d="M0 1a1 1 0 0 1 1-1h1a1 1 0 0 1 1 1v24.956a1 1 0 0 1-1 1H1a1 1 0 0 1-1-1V1z"/><path id="aa" d="M1 2h1v-4H1v4zm0-1v24.956h4V1H1zm1 23.956H1v4h1v-4zm0 1V1h-4v24.956h4zM1-2a3 3 0 0 0-3 3h4a1 1 0 0 1-1 1v-4zm1 4a1 1 0 0 1-1-1h4a3 3 0 0 0-3-3v4zM1 25.956a1 1 0 0 1 1-1v4a3 3 0 0 0 3-3H1zm0-1a1 1 0 0 1 1 1h-4a3 3 0 0 0 3 3v-4z"/><path id="ab" fill-rule="evenodd" d="M1.588 6.115C.711 6.115 0 5.431 0 4.585V1.53C0 .684.711 0 1.588 0c.877 0 1.588.684 1.588 1.529v3.057c0 .845-.711 1.53-1.588 1.53"/><path id="ac" fill-rule="evenodd" d="M11.115 3.058H1.588C.711 3.058 0 2.373 0 1.528 0 .684.711 0 1.588 0h9.527c.877 0 1.588.684 1.588 1.528 0 .845-.711 1.53-1.588 1.53"/><path id="ad" fill-rule="evenodd" d="M11.115 3.057H1.588C.711 3.057 0 2.373 0 1.529 0 .684.71 0 1.588 0h9.527c.877 0 1.588.684 1.588 1.529 0 .844-.711 1.528-1.588 1.528"/><path id="ae" fill-rule="evenodd" d="M1.588 9.17C.711 9.17 0 8.488 0 7.643V1.529C0 .684.711 0 1.588 0c.877 0 1.588.684 1.588 1.529v6.113c0 .845-.711 1.529-1.588 1.529"/><path id="af" fill-rule="evenodd" d="M23.309 2.992H1.555C.696 2.992 0 2.323 0 1.495 0 .67.696 0 1.555 0h21.754c.858 0 1.554.67 1.554 1.495 0 .828-.695 1.497-1.554 1.497"/><path id="ag" fill-rule="evenodd" d="M1.554 26.927C.695 26.927 0 26.258 0 25.431V1.496C0 .67.695 0 1.554 0c.858 0 1.554.67 1.554 1.496v23.935c0 .827-.696 1.496-1.554 1.496"/><path id="ah" fill-rule="evenodd" d="M1.496 27.97C.67 27.97 0 27.275 0 26.416V1.554C0 .696.67 0 1.496 0s1.496.696 1.496 1.554v24.862c0 .859-.67 1.554-1.496 1.554"/><path id="ai" fill-rule="evenodd" d="M1.554 11.969c-.859 0-1.554-.67-1.554-1.497l.003-8.975C.003.67.698 0 1.557 0c.859 0 1.554.67 1.554 1.497l-.003 8.975c0 .827-.695 1.497-1.554 1.497"/><path id="aj" fill-rule="evenodd" d="M29.523 2.991H1.553C.694 2.991 0 2.323 0 1.496 0 .67.694 0 1.553 0h27.97c.859 0 1.554.67 1.554 1.496 0 .827-.695 1.495-1.554 1.495"/><path id="ak" fill-rule="evenodd" d="M1.554 11.969c-.859 0-1.554-.67-1.554-1.497V1.497C0 .67.695 0 1.554 0c.859 0 1.554.67 1.554 1.497v8.975c0 .827-.695 1.497-1.554 1.497"/><path id="al" fill-rule="evenodd" d="M17.092 4.07c-7.094 0-12.864 5.556-12.864 12.386 0 6.83 5.77 12.384 12.864 12.384 7.094 0 12.865-5.555 12.865-12.384 0-6.83-5.771-12.386-12.865-12.386zm0 28.84C7.668 32.91 0 25.527 0 16.456 0 7.383 7.668 0 17.092 0c9.423 0 17.092 7.383 17.092 16.456.001 9.071-7.669 16.454-17.092 16.454z"/><path id="am" fill-rule="evenodd" d="M8.115 1.933c-3.368 0-6.108 2.637-6.108 5.88s2.74 5.88 6.108 5.88c3.368 0 6.108-2.637 6.108-5.88s-2.74-5.88-6.108-5.88zm0 13.692C3.641 15.625 0 12.12 0 7.813 0 3.505 3.64 0 8.115 0c4.474 0 8.115 3.505 8.115 7.813 0 4.307-3.641 7.812-8.115 7.812z"/><path id="an" fill-rule="evenodd" d="M1.2 0h2.483L4.8 2.888H0L1.2 0z"/><path id="ao" fill-rule="evenodd" d="M1.155 0h2.39l1.076 3H0l1.155-3z"/><path id="ap" fill-rule="evenodd" d="M1.554 5.984C.695 5.984 0 5.316 0 4.488V1.497C0 .67.695 0 1.554 0c.859 0 1.554.67 1.554 1.497v2.991c0 .828-.695 1.496-1.554 1.496"/><path id="aq" fill-rule="evenodd" d="M0 0h1.925v20H0V0z"/><path id="ar" fill-rule="evenodd" d="M0 0h1.925v3H0V0z"/></defs></svg>