<svg width="780" height="276" viewBox="0 0 780 276" xmlns="http://www.w3.org/2000/svg" xmlns:xlink="http://www.w3.org/1999/xlink"><title>Group</title><desc>Created using Figma</desc><use xlink:href="#a" transform="translate(102.19 .14)" fill="#A32B25"/><use xlink:href="#b" transform="translate(.33 36.72)" fill="#A32B25"/><defs><path id="a" fill-rule="evenodd" d="M675.813 5.776h2V0h-2v5.776zM0 9.998h2V4.22H0v5.777zm677.3 7.488l-1.961-.38a22.42 22.42 0 0 0 .474-4.59v-.963h2v.962a24.34 24.34 0 0 1-.513 4.971zM1.803 21.693a24.182 24.182 0 0 1-1.568-5.8l1.982-.257a22.265 22.265 0 0 0 1.447 5.35l-1.861.707zm670.23 6.558l-1.555-1.211a23.067 23.067 0 0 0 3.056-4.685l1.808.822c-.885 1.808-2 3.516-3.309 5.074zM8.937 31.4a25.487 25.487 0 0 1-4.173-4.443l1.633-1.111a23.573 23.573 0 0 0 3.854 4.103l-1.314 1.452zm653.273 4.064l-.801-1.764a24.246 24.246 0 0 0 4.949-2.805l1.213 1.531a26.223 26.223 0 0 1-5.361 3.038zM19.921 36.858a26.645 26.645 0 0 1-5.836-2.089l.917-1.711a24.447 24.447 0 0 0 5.386 1.927l-.467 1.873zm6.178.688h6v-1.925h-6v1.925zm12 0h6v-1.925h-6v1.925zm12 0h6v-1.925h-6v1.925zm12 0h6v-1.925h-6v1.925zm12 0h6v-1.925h-6v1.925zm12 0h6v-1.925h-6v1.925zm12 0h6v-1.925h-6v1.925zm12 0h6v-1.925h-6v1.925zm12 0h6v-1.925h-6v1.925zm12 0h6v-1.925h-6v1.925zm12 0h6v-1.925h-6v1.925zm12 0h6v-1.925h-6v1.925zm12 0h6v-1.925h-6v1.925zm12 0h6v-1.925h-6v1.925zm12 0h6v-1.925h-6v1.925zm12 0h6v-1.925h-6v1.925zm12 0h6v-1.925h-6v1.925zm12 0h6v-1.925h-6v1.925zm12 0h6v-1.925h-6v1.925zm12 0h6v-1.925h-6v1.925zm12 0h6v-1.925h-6v1.925zm12 0h6v-1.925h-6v1.925zm12 0h6v-1.925h-6v1.925zm12 0h6v-1.925h-6v1.925zm12 0h6v-1.925h-6v1.925zm12 0h6v-1.925h-6v1.925zm12 0h6v-1.925h-6v1.925zm11.999 0h6v-1.925h-6v1.925zm12 0h6v-1.925h-6v1.925zm12 0h6v-1.925h-6v1.925zm12 0h6v-1.925h-6v1.925zm12 0h6v-1.925h-6v1.925zm12 0h6v-1.925h-6v1.925zm12 0h6v-1.925h-6v1.925zm12 0h6v-1.925h-6v1.925zm12 0h6v-1.925h-6v1.925zm12 0h6v-1.925h-6v1.925zm12 0h6v-1.925h-6v1.925zm12 0h6v-1.925h-6v1.925zm12 0h6v-1.925h-6v1.925zm12 0h6v-1.925h-6v1.925zm12 0h6v-1.925h-6v1.925zm12 0h6v-1.925h-6v1.925zm12 0h6v-1.925h-6v1.925zm12 0h6v-1.925h-6v1.925zm12 0h6v-1.925h-6v1.925zm12 0h6v-1.925h-6v1.925zm12 0h6v-1.925h-6v1.925zm12 0h6v-1.925h-6v1.925zm12 0h6v-1.925h-6v1.925zm12 0h6v-1.925h-6v1.925zm12 0h6v-1.925h-6v1.925zm13.715 0h-1.715v-1.925h1.715c1.374 0 2.752-.113 4.094-.334l.34 1.896a27.24 27.24 0 0 1-4.434.363z"/><path id="b" fill-rule="evenodd" d="M449.671 5.776h2V0h-2v5.776zm0 11.553h2v-5.776h-2v5.776zm0 11.552h2v-5.776h-2v5.776zm0 11.553h2v-5.776h-2v5.776zm0 11.553h2V46.21h-2v5.777zm0 11.552h2v-5.776h-2v5.776zm0 11.553h2v-5.776h-2v5.776zm-.47 11.626l-1.809-.822a22.332 22.332 0 0 0 1.805-5.25l1.961.38a24.27 24.27 0 0 1-1.957 5.692zm-7.772 9.248l-1.214-1.531a23.87 23.87 0 0 0 4.122-3.856l1.554 1.211a25.81 25.81 0 0 1-4.462 4.175zm-11.324 4.755l-.339-1.896a24.534 24.534 0 0 0 5.501-1.586l.801 1.764a26.508 26.508 0 0 1-5.963 1.718zm-396.146.364h6V99.16h-6v1.925zm12 0h6V99.16h-6v1.925zm12 0h6V99.16h-6v1.925zm12 0h6V99.16h-6v1.925zm12 0h6V99.16h-6v1.925zm12 0h6V99.16h-6v1.925zm12 0h6V99.16h-6v1.925zm12 0h6V99.16h-6v1.925zm12 0h6V99.16h-6v1.925zm11.999 0h6V99.16h-6v1.925zm12 0h6V99.16h-6v1.925zm12 0h6V99.16h-6v1.925zm12 0h6V99.16h-6v1.925zm12 0h6V99.16h-6v1.925zm12 0h6V99.16h-6v1.925zm12 0h6V99.16h-6v1.925zm12 0h6V99.16h-6v1.925zm12 0h6V99.16h-6v1.925zm12 0h6V99.16h-6v1.925zm12 0h6V99.16h-6v1.925zm12 0h6V99.16h-6v1.925zm12 0h6V99.16h-6v1.925zm12 0h6V99.16h-6v1.925zm12 0h6V99.16h-6v1.925zm12 0h6V99.16h-6v1.925zm12 0h6V99.16h-6v1.925zm12 0h6V99.16h-6v1.925zm12 0h6V99.16h-6v1.925zm12 0h6V99.16h-6v1.925zm12 0h6V99.16h-6v1.925zm12 0h6V99.16h-6v1.925zm12 0h6V99.16h-6v1.925zm12 0h6V99.16h-6v1.925zm-395.822.298l-.318-1.901A27.45 27.45 0 0 1 26 99.16h1.959v1.925h-1.96c-1.292 0-2.592.1-3.863.298zm-10.498 4.294l-1.198-1.543a26.25 26.25 0 0 1 5.395-2.988l.782 1.771a24.226 24.226 0 0 0-4.98 2.76zm-7.259 8.472l-1.8-.836a24.93 24.93 0 0 1 3.358-5.044l1.542 1.227a23.021 23.021 0 0 0-3.1 4.653zM2 124.919H0v-.728c0-1.754.19-3.507.564-5.21l1.957.399A22.408 22.408 0 0 0 2 124.191v.728zm.817 11.577a24.285 24.285 0 0 1-2.137-5.631l1.948-.438a22.34 22.34 0 0 0 1.971 5.194l-1.782.875zm8.057 9.019a25.812 25.812 0 0 1-4.59-4.044l1.516-1.256a23.8 23.8 0 0 0 4.238 3.734l-1.164 1.566zm11.47 4.423a26.787 26.787 0 0 1-6.015-1.542l.744-1.788a24.618 24.618 0 0 0 5.55 1.423l-.28 1.907zm6.126.246h6v-1.925h-6v1.925zm12 0h6v-1.925h-6v1.925zm12 0h6v-1.925h-6v1.925zm12 0h6v-1.925h-6v1.925zm12 0h6v-1.925h-6v1.925zm12 0h6v-1.925h-6v1.925zm17.695.69a25.1 25.1 0 0 0-5.701-.69l.013-1.925c2.086.012 4.163.264 6.173.749l-.485 1.866zm10.082 5.137a24.13 24.13 0 0 0-4.72-3.155l.936-1.702a26.087 26.087 0 0 1 5.113 3.419l-1.329 1.438zm6.491 9.028a22.755 22.755 0 0 0-2.68-4.888l1.644-1.097a24.657 24.657 0 0 1 2.904 5.298l-1.868.687zm3.407 11.116l-1.988-.218a22.509 22.509 0 0 0-.029-5.532l1.984-.239c.134 1.029.201 2.079.201 3.123 0 .955-.057 1.92-.168 2.866zm-4.293 11.159l-1.656-1.079a22.794 22.794 0 0 0 2.629-4.919l1.875.67a24.646 24.646 0 0 1-2.848 5.328zm-9.157 7.99l-.953-1.692a24.062 24.062 0 0 0 4.685-3.2l1.344 1.427a26.158 26.158 0 0 1-5.076 3.465zm-11.953 3.012l-.032-1.926a24.89 24.89 0 0 0 5.692-.746l.506 1.864a27.047 27.047 0 0 1-6.166.808zm-72.016.004h6v-1.926h-6v1.926zm12 0h6v-1.926h-6v1.926zm12 0h6v-1.926h-6v1.926zm12 0h6v-1.926h-6v1.926zm12 0h6v-1.926h-6v1.926zm12 0h6v-1.926h-6v1.926zM17.3 199.885l-.725-1.793a26.663 26.663 0 0 1 6.033-1.486l.26 1.909a24.704 24.704 0 0 0-5.568 1.37zm-9.342 6.304l-1.504-1.269a25.834 25.834 0 0 1 4.633-4l1.148 1.575a23.874 23.874 0 0 0-4.277 3.694zm-5.273 9.735l-1.943-.456a24.335 24.335 0 0 1 2.195-5.608l1.773.89a22.488 22.488 0 0 0-2.025 5.174zM2 227.193H0v-5.768l2-.009v5.777zm-2 11.552h2v-5.776H0v5.776z"/></defs></svg>