<svg width="605" height="177" viewBox="0 0 605 177" xmlns="http://www.w3.org/2000/svg" xmlns:xlink="http://www.w3.org/1999/xlink"><title>Fill 295</title><desc>Created using Figma</desc><use xlink:href="#a" transform="translate(.33 .75)" fill="#A32B25"/><defs><path id="a" fill-rule="evenodd" d="M0 5.776h2V0H0v5.776zM0 17.33h2v-5.776H0v5.776zm0 11.552h2v-5.776H0v5.776zm0 11.553h2v-5.776H0v5.776zm2.046 11.674a24.266 24.266 0 0 1-1.718-5.762l1.975-.304a22.338 22.338 0 0 0 1.585 5.316l-1.842.75zm7.385 9.54a25.66 25.66 0 0 1-4.287-4.342l1.604-1.151a23.677 23.677 0 0 0 3.959 4.01l-1.276 1.483zm11.118 5.189a26.524 26.524 0 0 1-5.886-1.948l.873-1.732a24.526 24.526 0 0 0 5.431 1.798l-.418 1.882zm6.169.55h6v-1.925h-6v1.925zm12 0h6v-1.925h-6v1.925zm12 0h6v-1.925h-6v1.925zm12 0h6v-1.925h-6v1.925zm12 0h6v-1.925h-6v1.925zm12 0h6v-1.925h-6v1.925zm12 0h6v-1.925h-6v1.925zm12 0h6v-1.925h-6v1.925zm12 0h6v-1.925h-6v1.925zm12 0h6v-1.925h-6v1.925zm12 0h6v-1.925h-6v1.925zm12 0h6v-1.925h-6v1.925zm12 0h6v-1.925h-6v1.925zm12 0h6v-1.925h-6v1.925zm12 0h6v-1.925h-6v1.925zm12 0h6v-1.925h-6v1.925zm12 0h6v-1.925h-6v1.925zm12 0h6v-1.925h-6v1.925zm12 0h6v-1.925h-6v1.925zm12 0h6v-1.925h-6v1.925zm12 0h6v-1.925h-6v1.925zm12 0h6v-1.925h-6v1.925zm12 0h6v-1.925h-6v1.925zm12 0h6v-1.925h-6v1.925zm12 0h6v-1.925h-6v1.925zm12 0h6v-1.925h-6v1.925zm12 0h6v-1.925h-6v1.925zm12 0h6v-1.925h-6v1.925zm12 0h6v-1.925h-6v1.925zm12 0h6v-1.925h-6v1.925zm12 0h6v-1.925h-6v1.925zm12 0h6v-1.925h-6v1.925zm12.001 0h6v-1.925h-6v1.925zm12 0h6v-1.925h-6v1.925zm12 0h6v-1.925h-6v1.925zm12 0h6v-1.925h-6v1.925zm12 0h6v-1.925h-6v1.925zm12 0h6v-1.925h-6v1.925zm12 0h6v-1.925h-6v1.925zm12 0h6v-1.925h-6v1.925zm12 0h6v-1.925h-6v1.925zm12 0h6v-1.925h-6v1.925zm12 0h6v-1.925h-6v1.925zm12 0h6v-1.925h-6v1.925zm12 0h6v-1.925h-6v1.925zm12 0h6v-1.925h-6v1.925zm17.633.887a24.891 24.891 0 0 0-5.672-.87l.076-1.923c2.086.077 4.153.394 6.146.942l-.55 1.851zm9.903 5.453a24.102 24.102 0 0 0-4.611-3.301l.994-1.673a26.2 26.2 0 0 1 4.994 3.577l-1.377 1.397zm6.182 9.231a22.745 22.745 0 0 0-2.513-4.973l1.68-1.044a24.559 24.559 0 0 1 2.723 5.39l-1.89.627zm3.303 11.09h-2v-3.555a23.07 23.07 0 0 0-.101-2.13l1.992-.174c.071.754.108 1.53.109 2.303v3.557zm-1.549 11.714l-1.881-.656a22.285 22.285 0 0 0 1.294-5.39l1.988.204a24.173 24.173 0 0 1-1.401 5.842zm-6.86 9.9l-1.353-1.418a23.563 23.563 0 0 0 3.737-4.202l1.664 1.067a25.45 25.45 0 0 1-4.048 4.553zm-10.821 5.741l-.52-1.86a24.401 24.401 0 0 0 5.326-2.068l.966 1.686a26.384 26.384 0 0 1-5.772 2.242zm-72.183.856h6v-1.925h-6v1.925zm12 0h6v-1.925h-6v1.925zm12 0h6v-1.925h-6v1.925zm12 0h6v-1.925h-6v1.925zm12 0h6v-1.925h-6v1.925zm17.413 0h-5.413v-1.925h5.413c.188 0 .375-.001.562-.006l.051 1.926c-.204.004-.408.005-.613.005zm-77.332.074l-.158-1.92a27.78 27.78 0 0 1 2.089-.079h3.988v1.925h-3.988c-.647 0-1.297.025-1.931.074zm-10.824 3.456l-1.064-1.63a26.344 26.344 0 0 1 5.63-2.557l.629 1.827a24.457 24.457 0 0 0-5.195 2.36zm-7.947 7.88l-1.725-.976a25.29 25.29 0 0 1 3.772-4.763l1.435 1.341a23.293 23.293 0 0 0-3.482 4.398zm-3.267 10.519l-1.998-.096a24.21 24.21 0 0 1 1.053-5.905l1.916.551a22.32 22.32 0 0 0-.971 5.45zm-2.031 11.504h2v-5.777h-2v5.777zm0 11.552h2v-5.776h-2v5.776zm0 8.926h2v-3.149h-2v3.149z"/></defs></svg>