<svg width="226" height="258" viewBox="0 0 226 258" xmlns="http://www.w3.org/2000/svg" xmlns:xlink="http://www.w3.org/1999/xlink"><title>кожа</title><desc>Created using Figma</desc><use xlink:href="#a" transform="translate(2.74 6.3)" fill="#A32B25"/><use xlink:href="#b" transform="translate(30.65 216.32)" fill="#A32B25"/><use xlink:href="#c" transform="translate(45.62 214.04)" fill="#A32B25"/><use xlink:href="#d" transform="translate(62.42 213.1)" fill="#A32B25"/><use xlink:href="#e" transform="translate(79.37 213.84)" fill="#A32B25"/><use xlink:href="#f" transform="translate(95.32 219.18)" fill="#A32B25"/><use xlink:href="#g" transform="translate(23.29 204.48)" fill="#A32B25"/><use xlink:href="#h" transform="translate(59.48 133.22)" fill="#A32B25"/><use xlink:href="#i" transform="translate(44.12 88.2)" fill="#A32B25"/><use xlink:href="#j" transform="translate(32.33 76.86)" fill="#A32B25"/><use xlink:href="#k" transform="translate(57.66 117.27)" fill="#A32B25"/><use xlink:href="#l" transform="translate(52.61 101.99)" fill="#A32B25"/><use xlink:href="#m" transform="translate(42.71 179.3)" fill="#A32B25"/><use xlink:href="#n" transform="translate(51.05 164.77)" fill="#A32B25"/><use xlink:href="#o" transform="translate(32.31 192.56)" fill="#A32B25"/><use xlink:href="#p" transform="translate(56.81 149.24)" fill="#A32B25"/><use xlink:href="#q" transform="translate(21.45 66.22)" fill="#A32B25"/><use xlink:href="#r" transform="translate(24.05 57.08)" fill="#A32B25"/><use xlink:href="#s" transform="translate(79.25 30.62)" fill="#A32B25"/><use xlink:href="#t" transform="translate(66.83 41.25)" fill="#A32B25"/><use xlink:href="#u" transform="translate(52.64 49.15)" fill="#A32B25"/><use xlink:href="#v" transform="translate(37.44 54.32)" fill="#A32B25"/><use xlink:href="#w" transform="translate(89.04 20.71)" fill="#A32B25"/><use xlink:href="#x" transform="translate(106.51 20.71)" fill="#A32B25"/><use xlink:href="#y" transform="translate(128.29 20.71)" fill="#A32B25"/><use xlink:href="#z" transform="translate(150.58 41.22)" fill="#A32B25"/><use xlink:href="#A" transform="translate(163.98 49.13)" fill="#A32B25"/><use xlink:href="#B" transform="translate(139.38 30.59)" fill="#A32B25"/><use xlink:href="#C" transform="translate(178.76 54.31)" fill="#A32B25"/><use xlink:href="#D" transform="translate(194.24 57.07)" fill="#A32B25"/><use xlink:href="#E" transform="translate(198.6 66.22)" fill="#A32B25"/><use xlink:href="#F" transform="translate(169.61 164.68)" fill="#A32B25"/><use xlink:href="#G" transform="translate(168.41 101.91)" fill="#A32B25"/><use xlink:href="#H" transform="translate(186.12 192.49)" fill="#A32B25"/><use xlink:href="#I" transform="translate(165.36 149.16)" fill="#A32B25"/><use xlink:href="#J" transform="translate(176.73 179.22)" fill="#A32B25"/><use xlink:href="#K" transform="translate(185.39 76.8)" fill="#A32B25"/><use xlink:href="#L" transform="translate(164.3 133.13)" fill="#A32B25"/><use xlink:href="#M" transform="translate(175.17 88.13)" fill="#A32B25"/><use xlink:href="#N" transform="translate(164.98 117.19)" fill="#A32B25"/><use xlink:href="#O" transform="translate(197.34 204.39)" fill="#A32B25"/><use xlink:href="#P" transform="translate(186.47 216.27)" fill="#A32B25"/><use xlink:href="#Q" transform="translate(136.39 213.84)" fill="#A32B25"/><use xlink:href="#R" transform="translate(121.56 219.17)" fill="#A32B25"/><use xlink:href="#S" transform="translate(153.08 213.09)" fill="#A32B25"/><use xlink:href="#T" transform="translate(108.87 228.97)" fill="#A32B25"/><use xlink:href="#U" transform="translate(170.03 214.03)" fill="#A32B25"/><use xlink:href="#V" transform="rotate(90 52.59 53.41)" fill="#A32B25"/><use xlink:href="#W" transform="rotate(90 55.59 56.41)" fill="#A32B25"/><use xlink:href="#X" transform="matrix(-.97238 .2334 -.25071 -.96806 223.78 61.86)" fill="#A32B25"/><use xlink:href="#Y" transform="matrix(-.97238 .2334 -.25071 -.96806 225.67 67.16)" fill="#A32B25"/><use xlink:href="#Z" transform="matrix(-.80943 .58721 -.61637 -.78746 13.63 229.92)" fill="#A32B25"/><use xlink:href="#aa" transform="matrix(-.80943 .58721 -.61637 -.78746 18 234.94)" fill="#A32B25"/><defs><path id="a" fill-rule="evenodd" d="M192.091 228.884c-4.392-2.696-17.529-9.582-37.201-9.582-3.154 0-6.377.181-9.579.54-17.504 1.969-30.565 18.808-35.098 25.48-4.533-6.669-17.597-23.508-35.097-25.48a86.268 86.268 0 0 0-9.58-.54c-19.67 0-32.808 6.886-37.2 9.582l-23.53-28.641c8.143-5.776 41.822-32.035 41.05-70.598-.879-43.996-32.178-55.453-40.7-57.758l9.183-30.923c51.502-.56 64.818-30.14 67.251-37.166h57.244c2.433 7.026 15.75 36.605 67.248 37.166l9.184 30.923c-8.526 2.305-39.822 13.768-40.694 57.758-.778 38.563 32.9 64.822 41.046 70.598l-23.528 28.641zm27.447-30.615c-.42-.266-41.857-27.035-41.022-68.551.942-47.471 37.972-54.318 39.551-54.587a1.974 1.974 0 0 0 1.328-.862 1.818 1.818 0 0 0 .225-1.53l-10.152-34.188c-.241-.814-1.017-1.377-1.898-1.377-56.19 0-64.998-34.239-65.347-35.698C142.02.613 141.218 0 140.302 0H80.125c-.923 0-1.722.616-1.925 1.482-.085.357-8.989 35.692-65.349 35.692-.882 0-1.655.563-1.898 1.377L.8 72.74a1.852 1.852 0 0 0 .227 1.533c.3.455.784.769 1.334.862.384.062 38.601 6.997 39.546 54.587.835 41.519-40.6 68.288-41.022 68.551a1.881 1.881 0 0 0-.86 1.284 1.84 1.84 0 0 0 .4 1.476l25.954 31.594c.664.812 1.88.961 2.738.336.135-.099 13.792-9.859 36.416-9.859 3.002 0 6.073.175 9.121.518 19.425 2.183 33.7 26.008 33.84 26.248a1.99 1.99 0 0 0 1.716.962c.711 0 1.366-.368 1.716-.962.141-.24 14.383-24.062 33.843-26.248a81.885 81.885 0 0 1 9.118-.518c22.542 0 36.284 9.763 36.42 9.862.851.613 2.068.473 2.734-.339l25.955-31.594c.344-.416.489-.953.403-1.476-.085-.53-.4-.994-.861-1.287z"/><path id="b" fill-rule="evenodd" d="M7.508 1.77l-.006.002c-.012.003-.023 0-.038.006a87.62 87.62 0 0 0-3.443 1.293L1.753.31C1.75.307 1.753.302 1.75.3 1.548.05 1.234-.02.916.004.725.016.53.03.369.152.308.2.31.276.264.333.14.477.02.622.004.8a.928.928 0 0 0 .204.684L2.94 4.813a.995.995 0 0 0 .773.362c.129 0 .26-.025.388-.077A79.137 79.137 0 0 1 8.14 3.56c.006-.003.012-.009.017-.011h.053c.059-.026.088-.08.142-.114a.98.98 0 0 0 .173-.142c.176-.178.302-.392.302-.647 0-.113 0-.226-.058-.31a.986.986 0 0 0-1.261-.567"/><path id="c" fill-rule="evenodd" d="M9.166.007h-.029A85.504 85.504 0 0 0 .764 1.618C.323 1.732 0 2.1 0 2.521c0 .085.029.173.029.255.118.423.53.706.97.706.088 0 .146 0 .235-.028A86.687 86.687 0 0 1 9.46 1.871c.499-.06.852-.453.852-.934V.795c-.088-.508-.558-.848-1.146-.788"/><path id="d" fill-rule="evenodd" d="M9.519.07A95.966 95.966 0 0 0 .912.127C.413.155 0 .55 0 1.06v.056c.03.513.442.905.97.905h.059c.029 0 .058 0 .088-.028a91.109 91.109 0 0 1 8.314-.028h.029c.529 0 .97-.425.999-.933V1c0-.506-.441-.93-.94-.93"/><path id="e" fill-rule="evenodd" d="M9.548 2.014A47.638 47.638 0 0 0 1.116.006C.588-.05.088.291 0 .826v.141a.95.95 0 0 0 .793.934h.148a42.729 42.729 0 0 1 7.961 1.925c.087.03.205.03.293.03.441 0 .823-.256.94-.623.059-.113.059-.227.059-.34 0-.398-.264-.735-.646-.88"/><path id="f" fill-rule="evenodd" d="M1.586.182a.228.228 0 0 0-.117-.056c0-.031-.029-.031-.029-.031C.969-.132.382.065.117.493.059.635 0 .776 0 .946c0 .337.205.648.499.82a61.88 61.88 0 0 1 6.992 4.412.92.92 0 0 0 .587.198c.294 0 .617-.144.794-.367a.95.95 0 0 0-.177-1.333C6.345 2.982 3.937 1.455 1.586.182"/><path id="g" fill-rule="evenodd" d="M4.905.24c-.003 0 0-.006-.003-.01-.114-.11-.27-.12-.414-.166-.335-.105-.696-.099-.97.152V.202c-.006.006-.003.014-.01.02A127.34 127.34 0 0 1 .326 3.093a.922.922 0 0 0-.111 1.293l2.732 3.328a.991.991 0 0 0 .772.362c.215 0 .429-.064.612-.203a.926.926 0 0 0 .16-1.335L2.33 3.902a130.94 130.94 0 0 0 2.553-2.317A.922.922 0 0 0 4.905.24c.003.003 0 .003 0 0"/><path id="h" fill-rule="evenodd" d="M2.058.933A.98.98 0 0 0 1.088 0H1.03C.5.028.09.452.09.96v.03c.03.51.03 1.017.03 1.527v.226c.03.452.03.88.03 1.332C.15 5.744.09 7.384 0 8.94v.056c-.029.512.382.905.882.933.03.031.06.031.088.031.528 0 .94-.398 1-.904a94.93 94.93 0 0 0 .146-4.978V2.492l-.03-.256c0-.429 0-.879-.029-1.303"/><path id="i" fill-rule="evenodd" d="M4.818 8.08l.029.028c.176.254.499.424.823.424a.999.999 0 0 0 .499-.113c.294-.17.47-.48.5-.82 0-.17-.059-.34-.148-.51A70.424 70.424 0 0 0 1.762.36C1.439-.038.793-.123.381.188A.979.979 0 0 0 0 .952c0 .199.058.396.206.566a65.616 65.616 0 0 1 4.582 6.504s.03.03.03.057"/><path id="j" fill-rule="evenodd" d="M2.707 1.037C2.324.755 1.972.472 1.59.19 1.179-.123.532-.037.21.36a.84.84 0 0 0-.206.566.806.806 0 0 0 .382.763l.206.17.88.678c1.734 1.33 3.438 2.829 5.083 4.385.176.169.44.282.705.282.264 0 .5-.113.705-.282.177-.17.264-.425.264-.68a.874.874 0 0 0-.264-.65 64.43 64.43 0 0 0-5.258-4.554"/><path id="k" fill-rule="evenodd" d="M2.293 9.835h.118c.499-.057.88-.482.852-.962V8.76A87.608 87.608 0 0 0 1.94.756C1.823.275 1.295-.093.766.021.325.134-.027.502.002.954v.198a87.606 87.606 0 0 1 1.322 7.862c.03.453.47.82.969.82"/><path id="l" fill-rule="evenodd" d="M4.906 8.46c0-.085 0-.198-.03-.283A69.941 69.941 0 0 0 1.909.57 1.015 1.015 0 0 0 .587.088.935.935 0 0 0 0 .965a.84.84 0 0 0 .088.368 75.212 75.212 0 0 1 2.908 7.41c.118.396.5.679.94.679.088 0 .176-.03.294-.057a.922.922 0 0 0 .676-.905"/><path id="m" fill-rule="evenodd" d="M6.434.918c-.029-.34-.205-.651-.499-.793-.471-.254-1.087-.112-1.352.34a109.434 109.434 0 0 1-4.406 6.73.914.914 0 0 0-.177.539.97.97 0 0 0 .412.788c.176.086.352.174.558.174.323 0 .616-.174.822-.425a117.457 117.457 0 0 0 4.496-6.844c.087-.17.146-.343.146-.51"/><path id="n" fill-rule="evenodd" d="M4.554.066A1.004 1.004 0 0 0 3.291.58v.055c-.029.03-.029.06-.029.086A96.795 96.795 0 0 1 .089 7.96.889.889 0 0 0 0 8.358a.9.9 0 0 0 .559.85.694.694 0 0 0 .411.112c.382 0 .734-.226.911-.537v-.028a98.124 98.124 0 0 0 3.261-7.467c.029-.113.058-.226.058-.339a.924.924 0 0 0-.646-.883"/><path id="o" fill-rule="evenodd" d="M5.641.332c-1.675 2.065-3.496 4.1-5.376 6.08A1.057 1.057 0 0 0 0 7.12c.03.255.118.481.324.65.175.142.411.255.675.255.264 0 .529-.113.735-.311v-.028A130.248 130.248 0 0 0 7.168 1.52a.904.904 0 0 0 .236-.596.934.934 0 0 0-.382-.736C6.61-.118 5.964-.036 5.641.332"/><path id="p" fill-rule="evenodd" d="M2.88.012c-.558-.085-1.057.286-1.145.792A73.87 73.87 0 0 1 .03 8.581C0 8.638 0 8.723 0 8.807c-.028.422.294.82.706.904.088.03.176.058.264.058.44 0 .852-.31.97-.706a93.277 93.277 0 0 0 1.762-7.95V.97A.983.983 0 0 0 2.88.012"/><path id="q" fill-rule="evenodd" d="M5.385 6.249c-.012-.006-.012-.024-.023-.03a70.058 70.058 0 0 0-3.2-1.69l.979-3.295c.003-.012.015-.015.02-.025C3.309.699 2.986.162 2.486.02c-.021-.006-.04.008-.06.005a1.003 1.003 0 0 0-.657.07c-.024.014-.044.02-.069.035a.951.951 0 0 0-.428.517c-.003.011-.018.014-.024.027 0 .003.003.01 0 .015L.038 4.764a.941.941 0 0 0 .509 1.111 67.444 67.444 0 0 1 3.817 1.99c.008.004.017.004.026.007.012.003.029.014.029.014l.029.028a1 1 0 0 0 .5.114c.352 0 .675-.17.852-.454.088-.14.117-.31.117-.508a.934.934 0 0 0-.47-.792c-.017-.025-.038-.023-.062-.025"/><path id="r" fill-rule="evenodd" d="M6.475.014H6.47V0c-.02.003-.04.017-.06.023-1.4.15-2.828.283-4.288.39a.98.98 0 0 0-.873.684L.038 5.176c-.15.503.153 1.03.676 1.174.091.025.182.037.27.037a.982.982 0 0 0 .95-.69l1.021-3.448c1.27-.1 2.515-.218 3.737-.35.544-.06.931-.53.87-1.05-.059-.518-.544-.894-1.087-.835"/><path id="s" fill-rule="evenodd" d="M.969 7.508c.265 0 .5-.084.705-.254v-.028a62.036 62.036 0 0 0 5.347-5.685.943.943 0 0 0 .206-.622.932.932 0 0 0-.353-.707c-.411-.34-1.057-.255-1.41.141C3.877 2.276 2.115 4.143.293 5.897.088 6.067 0 6.32 0 6.575c0 .255.088.48.264.651a.977.977 0 0 0 .705.282"/><path id="t" fill-rule="evenodd" d="M6.874.189A73.1 73.1 0 0 1 .47 4.43a.943.943 0 0 0-.47.82c0 .17.059.34.146.481a.997.997 0 0 0 1.352.311 68.7 68.7 0 0 0 6.58-4.355c.235-.199.382-.48.382-.764a.894.894 0 0 0-.205-.566c-.323-.395-.97-.48-1.381-.17"/><path id="u" fill-rule="evenodd" d="M7.844.093A76.919 76.919 0 0 1 .647 2.95.985.985 0 0 0 0 3.855c0 .113.03.226.059.31.146.397.529.651.94.651.117 0 .205-.028.324-.056 2.526-.905 5.023-1.895 7.343-2.97a.927.927 0 0 0 .588-.849.632.632 0 0 0-.117-.395c-.206-.48-.823-.679-1.293-.453"/><path id="v" fill-rule="evenodd" d="M.977 3.559h.206A100.353 100.353 0 0 0 8.938 1.86c.411-.084.734-.48.705-.905 0-.084 0-.17-.029-.254-.117-.48-.676-.791-1.146-.678H8.41c-.03.028-.059.028-.088.028A102 102 0 0 1 .8 1.691a.875.875 0 0 0-.616.397.996.996 0 0 0-.177.707c.09.453.5.764.97.764"/><path id="w" fill-rule="evenodd" d="M7.567 1.895c.003 0 .006.005.012.005.42 0 .702-.274.855-.62.05-.112.144-.203.144-.333V.942c0-.154-.103-.266-.173-.396C8.24.24 7.972 0 7.59 0H3.184a.982.982 0 0 0-.872.51A61.687 61.687 0 0 1 .209 4.08c0 .028-.03.057-.06.085A.886.886 0 0 0 0 4.643c0 .34.176.651.469.821.177.084.353.14.53.14.323 0 .646-.14.822-.423 0 0 0-.029.029-.029 0-.013.006-.027.015-.042a57.019 57.019 0 0 0 1.913-3.215h3.789z"/><path id="x" fill-rule="evenodd" d="M11.868 0H.999C.44 0 0 .424 0 .933c0 .537.44.962.999.962h10.869c.559 0 .999-.425.999-.962 0-.51-.44-.933-.999-.933"/><path id="y" fill-rule="evenodd" d="M8.388 5.022c.035-.064.114-.107.132-.175a.906.906 0 0 0-.117-.718A57.276 57.276 0 0 1 6.27.51.996.996 0 0 0 5.394 0H.988C.441 0 0 .424 0 .947c0 .523.441.948.988.948h3.813a60.537 60.537 0 0 0 1.918 3.227v.003c.1.158.253.268.426.347.133.06.27.105.417.105h.012c.17 0 .335-.057.479-.136.009-.003.018-.003.026-.005.162-.1.229-.26.309-.413"/><path id="z" fill-rule="evenodd" d="M7.462 6.19a.98.98 0 0 0 .822-.452c.117-.141.147-.31.147-.481a.942.942 0 0 0-.47-.82A68.529 68.529 0 0 1 1.648.223c-.033 0-.033-.028-.062-.028 0 0 0-.029-.029-.029A1.038 1.038 0 0 0 .205.364C.059.506 0 .704 0 .93c0 .311.147.566.382.764 2.026 1.527 4.26 2.998 6.551 4.355.176.085.352.142.529.142"/><path id="A" fill-rule="evenodd" d="M.553 1.819a91.353 91.353 0 0 0 7.374 2.94c.088.029.205.057.322.057.412 0 .794-.254.911-.622.062-.113.062-.226.062-.34 0-.395-.265-.734-.647-.875A89.02 89.02 0 0 1 1.407.093C.938-.133.321.065.086.546A.868.868 0 0 0 0 .94c0 .368.203.68.53.85.023 0 .023 0 .023.028"/><path id="B" fill-rule="evenodd" d="M1.77.359C1.445-.038.77-.122.387.189.183.36.036.585.006.84c-.032.255.06.482.203.707A72.18 72.18 0 0 0 5.556 7.26c.205.17.441.254.705.254a.975.975 0 0 0 .705-.282.947.947 0 0 0 .265-.679.84.84 0 0 0-.297-.65A72.104 72.104 0 0 1 1.77.358"/><path id="C" fill-rule="evenodd" d="M.731 1.863c2.468.65 5.082 1.188 7.759 1.669.058.029.117.029.176.029.469 0 .881-.34.969-.793.03-.056.03-.113.03-.17a1.008 1.008 0 0 0-.82-.933A98.85 98.85 0 0 1 1.233.025C.734-.088.178.195.032.703 0 .76 0 .845 0 .93a.945.945 0 0 0 .731.933"/><path id="D" fill-rule="evenodd" d="M.18 1.402c.059.097.105.173.19.243a.975.975 0 0 0 .412.218c.026.006.044.034.068.037H.9c.009 0 .014.006.023.006 1.225.133 2.471.251 3.736.353l1.005 3.386c.003.014 0 .03.003.045.056.158.171.272.28.382.149.15.326.243.543.277.053.008.094.048.15.048.088 0 .176-.028.265-.028.02-.006.023-.026.044-.034.496-.161.781-.665.637-1.154L6.375 1.102A.978.978 0 0 0 5.5.418C4.029.308 2.592.178 1.179.022 1.167.019 1.158.008 1.146.005h-.059C.556-.05.056.345 0 .854v.084c0 .08.062.133.079.21.018.09.054.175.101.254"/><path id="E" fill-rule="evenodd" d="M2.7 1.212l.99 3.326a65.315 65.315 0 0 0-3.177 1.68c-.01.005-.021 0-.03.003-.468.283-.617.848-.352 1.3l.006.006s.002 0 .002.003c.179.302.526.473.843.473.044 0 .079-.03.12-.034.133-.015.265-.035.383-.1a67.4 67.4 0 0 1 3.819-1.991.937.937 0 0 0 .508-1.111L4.6.689A.992.992 0 0 0 3.383.038.946.946 0 0 0 2.7 1.212"/><path id="F" fill-rule="evenodd" d="M4.204 9.317a.852.852 0 0 0 .44-.113.948.948 0 0 0 .556-.849.86.86 0 0 0-.089-.395A87.588 87.588 0 0 1 1.91.604C1.733.124 1.116-.132.646.069.235.182 0 .55 0 .946a.7.7 0 0 0 .058.34 81.683 81.683 0 0 0 3.261 7.466.973.973 0 0 0 .885.565"/><path id="G" fill-rule="evenodd" d="M1.906 8.743a75.558 75.558 0 0 1 2.908-7.41.8.8 0 0 0 .089-.368c0-.396-.206-.735-.588-.876-.47-.228-1.087 0-1.29.48A73.389 73.389 0 0 0 .026 8.177C0 8.261 0 8.347 0 8.46a.92.92 0 0 0 .673.905c.117.03.205.057.296.057.438 0 .82-.283.937-.678"/><path id="H" fill-rule="evenodd" d="M6.407 8.015c.235 0 .471-.085.673-.255a.89.89 0 0 0 .323-.678.864.864 0 0 0-.265-.648A121.133 121.133 0 0 1 1.762.354C1.439-.044.794-.129.383.211A.87.87 0 0 0 0 .919c0 .226.086.452.203.621.029 0 .029.03.029.03C1.936 3.607 3.758 5.697 5.67 7.706a1.1 1.1 0 0 0 .737.308"/><path id="I" fill-rule="evenodd" d="M1.969.804C1.88.294 1.41-.073.823.012.353.097 0 .492 0 .945c0 .059 0 .114.03.173v.028a81.173 81.173 0 0 0 1.733 7.919c.117.4.532.707.97.707.088 0 .178-.028.264-.028.414-.113.735-.51.705-.933 0-.085 0-.17-.03-.227A84.256 84.256 0 0 1 1.969.804"/><path id="J" fill-rule="evenodd" d="M1.821.465C1.553.015.937-.13.469.125A.898.898 0 0 0 0 .917c0 .172.029.339.117.511a110.341 110.341 0 0 0 4.492 6.845c.206.254.499.422.822.422a1 1 0 0 0 .559-.17c.265-.173.437-.48.411-.792 0-.198-.059-.368-.146-.537A98.293 98.293 0 0 1 1.821.465"/><path id="K" fill-rule="evenodd" d="M0 6.241c0 .255.086.481.294.679.177.17.44.283.705.283.235 0 .5-.114.673-.283 1.587-1.5 3.261-2.97 5.023-4.328.382-.31.764-.593 1.175-.904a.946.946 0 0 0 .177-1.33 1.002 1.002 0 0 0-1.352-.17h-.029c-.411.312-.793.594-1.204.934a69.882 69.882 0 0 0-5.171 4.44C.115 5.76 0 5.987 0 6.241"/><path id="L" fill-rule="evenodd" d="M1.176 9.928h.029c.499-.031.91-.453.91-.933v-.057a93.416 93.416 0 0 1-.146-4.777c0-.512 0-.993.032-1.5v-.059c0-.534.029-1.074.029-1.608v-.06c0-.51-.414-.902-.94-.934h-.029C.503 0 .091.4.062.934c0 .537-.032 1.074-.032 1.64C0 3.084 0 3.621 0 4.161 0 5.829.062 7.47.148 9.05c.032.48.469.88 1.001.88h.027v-.003z"/><path id="M" fill-rule="evenodd" d="M.502 8.402a.998.998 0 0 0 .5.113c.353 0 .675-.17.852-.453A66.511 66.511 0 0 1 6.466 1.5a.732.732 0 0 0 .202-.537.94.94 0 0 0-.382-.765c-.411-.31-1.028-.254-1.35.142h-.031A64.55 64.55 0 0 0 .147 7.1.932.932 0 0 0 0 7.58c.003.34.176.651.502.82"/><path id="N" fill-rule="evenodd" d="M1.352.757v.028A86.71 86.71 0 0 0 0 8.79v.085c0 .481.382.905.882.962h.117a.972.972 0 0 0 .97-.849A74.96 74.96 0 0 1 3.29 1.153V.955a.952.952 0 0 0-.766-.933c-.555-.113-1.087.226-1.172.735"/><path id="O" fill-rule="evenodd" d="M1.748.313C1.736.305 1.722.307 1.713.3 1.701.285 1.695.265 1.678.265 1.325-.103.679-.074.297.265.117.463 0 .69 0 .944c.029.255.117.481.297.65l.029.029s0 .028.029.056c.012.009.027.006.039.015.866.806 1.715 1.575 2.538 2.299L.767 6.629c-.35.4-.265.992.15 1.332.041.028.082.016.123.04.158.093.323.169.502.169.291 0 .579-.124.775-.362L5.053 4.48a.926.926 0 0 0-.112-1.293A129.353 129.353 0 0 1 1.748.313"/><path id="P" fill-rule="evenodd" d="M7.028.363l-2.265 2.76a90.552 90.552 0 0 0-3.384-1.27c-.018-.007-.033-.023-.05-.03h-.03c-.008-.003-.02.004-.03.002a1.008 1.008 0 0 0-.707.037.03.03 0 0 0-.012.009.944.944 0 0 0-.458.463c-.011.026-.043.031-.055.056-.01.026.012.049.006.072a.905.905 0 0 0 .035.645c.006.007.009.019.014.028a.955.955 0 0 0 .549.483 80.615 80.615 0 0 1 4.043 1.538.962.962 0 0 0 .388.077 1 1 0 0 0 .775-.362l2.736-3.329A.93.93 0 0 0 8.418.207a1.012 1.012 0 0 0-1.39.156"/><path id="Q" fill-rule="evenodd" d="M9.077.011A47.033 47.033 0 0 0 .646 2.02.923.923 0 0 0 0 2.9a1 1 0 0 0 .029.308c.15.4.531.65.941.65.117 0 .205-.027.323-.058a42.705 42.705 0 0 1 8.049-1.896c.466-.082.848-.48.848-.933V.83c-.082-.508-.581-.903-1.113-.82"/><path id="R" fill-rule="evenodd" d="M7.609.111C5.2 1.384 2.82 2.883.47 4.58c-.029.03-.062.06-.089.085-.029 0-.029.028-.029.028A.905.905 0 0 0 0 5.428c0 .198.058.399.176.566.205.226.502.368.796.368a.936.936 0 0 0 .588-.195A60.685 60.685 0 0 1 8.49 1.81c.032 0 .061-.029.088-.06a.94.94 0 0 0 .47-.82.806.806 0 0 0-.118-.45C8.696.057 8.049-.141 7.609.11"/><path id="S" fill-rule="evenodd" d="M9.518.132a105.755 105.755 0 0 0-8.46-.084H.999c-.033 0-.062 0-.088.03C.412.109 0 .5 0 1.01v.031c.03.536.438.934.999.934h.03a91.042 91.042 0 0 1 8.372.056h.088c.529 0 .94-.396.969-.905V1.07c0-.512-.411-.909-.94-.937"/><path id="T" fill-rule="evenodd" d="M6.518.238s0 .028-.029.028c-.02.02-.03.052-.05.071a85.727 85.727 0 0 0-2.357 2.268A81.632 81.632 0 0 0 1.67.283V.266C1.415.038 1.057.026.722.122.563.171.4.187.275.31c0 .003 0 .003-.003.006S.263.318.26.32a.945.945 0 0 0 .03 1.332c.006.006.018.003.024.009a87.544 87.544 0 0 1 3.052 2.972c.185.192.446.3.72.3a1 1 0 0 0 .72-.3A85.179 85.179 0 0 1 7.86 1.658c.003-.003.011-.003.014-.006l.03-.03A.97.97 0 0 0 8.2.944a.863.863 0 0 0-.265-.65C7.546-.073 6.9-.102 6.518.238"/><path id="U" fill-rule="evenodd" d="M9.577 1.653l-.029-.028A102.248 102.248 0 0 0 1.145.012h-.029A.984.984 0 0 0 0 .804v.142c0 .48.323.848.793.933l.033.029h.085a89.55 89.55 0 0 1 8.141 1.555.843.843 0 0 0 .263.028.964.964 0 0 0 .941-.707.87.87 0 0 0-.117-.707.936.936 0 0 0-.562-.424"/><path id="V" fill-rule="evenodd" d="M0 0h1.925v20H0V0z"/><path id="W" fill-rule="evenodd" d="M0 0h1.925v3H0V0z"/><path id="X" fill-rule="evenodd" d="M0 0h1.996v19.299H0V0z"/><path id="Y" fill-rule="evenodd" d="M0 0h1.996v2.895H0V0z"/><path id="Z" fill-rule="evenodd" d="M0 0h1.973v19.528H0V0z"/><path id="aa" fill-rule="evenodd" d="M0 0h1.973v3.906H0V0z"/></defs></svg>