<svg width="497" height="209" viewBox="0 0 497 209" xmlns="http://www.w3.org/2000/svg" xmlns:xlink="http://www.w3.org/1999/xlink"><title>Подошва</title><desc>Created using Figma</desc><use xlink:href="#a" transform="translate(1.79 31.21)" fill="#A32B25"/><use xlink:href="#b" transform="translate(486.43 14.36)" fill="#A32B25"/><use xlink:href="#c" transform="translate(8.24 1.94)" fill="#A32B25"/><use xlink:href="#d" transform="translate(250.67 31.59)" fill="#A32B25"/><use xlink:href="#e" transform="translate(1.84 124.73)" fill="#A32B25"/><use xlink:href="#f" transform="translate(10.23 126.01)" fill="#A32B25"/><use xlink:href="#g" transform="translate(406.07 99)" fill="#A32B25"/><use xlink:href="#h" transform="translate(345.8 111.4)" fill="#A32B25"/><use xlink:href="#i" transform="translate(259.57 156.83)" fill="#A32B25"/><use xlink:href="#j" transform="translate(1.84 139.72)" fill="#A32B25"/><use xlink:href="#k" transform="translate(13.02 144.57)" fill="#A32B25"/><use xlink:href="#l" transform="translate(307.18 96.3)" fill="#A32B25"/><use xlink:href="#m" transform="translate(307.41 96.38)" fill="#A32B25"/><use xlink:href="#n" transform="translate(442.51 111.64)" fill="#A32B25"/><use xlink:href="#o" transform="translate(427.55 106.23)" fill="#A32B25"/><use xlink:href="#p" transform="translate(366.29 113.17)" fill="#A32B25"/><use xlink:href="#q" transform="translate(382.2 120.83)" fill="#A32B25"/><use xlink:href="#r" transform="translate(274.3 166.43)" fill="#A32B25"/><use xlink:href="#s" transform="translate(284.33 170.62)" fill="#A32B25"/><use xlink:href="#t" transform="translate(224.66 191.3)" fill="#A32B25"/><use xlink:href="#u" transform="translate(214.93 182.2)" fill="#A32B25"/><use xlink:href="#v" transform="translate(152.47 190.87)" fill="#A32B25"/><use xlink:href="#w" transform="translate(163.39 197.43)" fill="#A32B25"/><use xlink:href="#x" transform="translate(104.52 186.45)" fill="#A32B25"/><use xlink:href="#y" transform="translate(108.49 191.3)" fill="#A32B25"/><use xlink:href="#z" transform="translate(55.19 186.7)" fill="#A32B25"/><use xlink:href="#A" transform="translate(28.13 173.68)" fill="#A32B25"/><use xlink:href="#B" transform="translate(26.41 16.71)" fill="#A32B25"/><use xlink:href="#C" transform="translate(231.79 38.16)" fill="#A32B25"/><use xlink:href="#D" transform="translate(307.71 135.63)" fill="#A32B25"/><use xlink:href="#E" transform="translate(18.01 62.38)" fill="#A32B25"/><defs><path id="a" d="M491.805 19.149l.996.094-.996-.094zm0 19.916l.992-.129-.992.129zm-2.388 25.278l-.798-.603.798.603zM467.14 85.79l-.096-.996.096.996zm-11.14 0l.234-.972L455 84.52v1.269h1zm-.796 6.128l-.693-.72.693.72zm-50.921 6.894l.305-.952-1.078-.346-.21 1.112.983.186zm-39.783 7.66l-.493.87.218.124.25.006.025-1zm-42.965.767l.637.771-.637-.771zm-24.666 18.383l-.562-.827-.854.58.607.835.809-.588zm2.388 10.723l.694.721-.694-.721zm-27.848 19.15l.189-.982-.189.982zm-31.03 11.49l-.36-.933.36.933zm-27.052 5.363l-.235.972h.001l.234-.972zm-23.075-4.597l.694.721-.694-.721zm-7.956 6.894l.119.993-.119-.993zm-32.623 1.532l.541-.842-.541.842zm-19.095-7.659l.694.72v-.001l-.694-.719zm-19.89 3.063l.693.72-.693-.72zm-12.73 0l.694-.72-.002-.002-.693.722zM.09 105.706l.998.067.002-.034v-.033h-1zm.796-13.788l.693.721-.693-.72zM487.8.57c.675.975 1.638 3.49 2.328 6.906.687 3.395 1.075 7.461.682 11.58l1.991.188c.402-4.307-.007-8.666-.713-12.164-.702-3.478-1.728-6.325-2.644-7.648L487.8.569zm3.01 18.486c-.8 8.474-.799 13.947.003 20.139l1.984-.258c-.79-6.063-.789-11.313.004-19.693l-1.991-.188zm.003 20.139c.406 3.114 1.392 7.274 1.484 11.67.101 4.407-.616 8.871-3.678 12.876l1.596 1.206c3.304-4.421 4.178-9.532 4.081-14.126-.107-4.605-1.11-8.87-1.499-11.884l-1.984.258zm-2.194 24.546c-3.195 4.23-6.749 9.366-10.488 13.531-3.779 4.213-7.528 7.181-11.087 7.523l.192 1.991c4.397-.423 8.604-3.965 12.384-8.178 3.819-4.261 7.425-9.465 10.595-13.661l-1.596-1.206zm-21.575 21.054c-3.931.38-6.641.38-8.404.285a21.44 21.44 0 0 1-1.878-.171 8.962 8.962 0 0 1-.514-.088l-.016-.003h-.002.003l-.233.973a72.337 72.337 0 0 0-.232.972h.002a.03.03 0 0 1 .004.002l.013.003.041.009.138.028c.11.02.289.052.516.084.437.062 1.127.138 2.051.188 1.817.097 4.676.096 8.703-.29l-.192-1.992zM456 85.79h-1v.055l-.001.166a41.615 41.615 0 0 1-.096 2.487c-.049.703-.117 1.39-.222 1.96a4.25 4.25 0 0 1-.159.65c-.064.184-.088.164-.011.09l1.386 1.441c.277-.265.426-.621.515-.876.091-.267.175-.613.236-.945.118-.65.199-1.448.25-2.182a44.052 44.052 0 0 0 .101-2.604l.001-.177v-.065h-1zm-1.489 5.408c.041-.04.016-.01-.19.117a19.24 19.24 0 0 1-.707.411c-.608.34-1.438.783-2.455 1.299a131.362 131.362 0 0 1-7.784 3.622c-6.081 2.591-13.066 4.995-17.61 4.995v2c5.005 0 12.342-2.576 18.394-5.155a134.143 134.143 0 0 0 7.905-3.679 72.214 72.214 0 0 0 2.527-1.337c.316-.177.586-.334.782-.456.167-.103.384-.241.525-.376l-1.387-1.441zm-28.746 10.444c-4.686.004-9.945-.938-14.098-1.89a104.715 104.715 0 0 1-5.098-1.304 79.838 79.838 0 0 1-1.852-.547l-.098-.031-.024-.008-.005-.002h-.002l-.305.952c-.306.952-.306.952-.305.953h.002l.008.003.027.008.106.034.403.124c.348.105.86.257 1.5.439 1.275.361 3.09.846 5.196 1.329 4.201.962 9.683 1.936 14.545 1.94v-2zm-21.482-2.83l-.983-.186v.003a.101.101 0 0 0-.003.014l-.013.063a20.408 20.408 0 0 1-.278 1.164 20.834 20.834 0 0 1-.937 2.764c-.428 1.01-.916 1.922-1.552 2.62-.601.671-1.197.985-1.803.985v2c1.382 0 2.476-.74 3.292-1.649.781-.882 1.437-2.077 1.904-3.174a23.623 23.623 0 0 0 1.028-3.029c.109-.409.192-.759.245-.995.027-.121.047-.22.061-.285l.015-.078.004-.022.002-.006V99l-.982-.187zm-5.569 7.427c-1.978 0-10.52-.192-18.575-.383-4.028-.096-7.931-.192-10.828-.264l-3.479-.086-.966-.025a29.903 29.903 0 0 0-.254-.006l-.065-.002h-.021l-.026.999-.025 1h.005l.017.001.064.001.254.007.967.024a10585.61 10585.61 0 0 0 14.309.35c8.057.192 16.622.384 18.623.384v-2zm-34.214.233l.492-.87-.002-.001-.008-.005-.03-.017-.116-.065-.44-.245a160.807 160.807 0 0 0-6.714-3.523c-1.95-.963-4.052-1.938-5.907-2.668-1.813-.712-3.57-1.266-4.78-1.266v2c.781 0 2.206.404 4.048 1.128 1.8.707 3.826 1.647 5.754 2.599a158.298 158.298 0 0 1 6.629 3.479l.432.24.112.063a.384.384 0 0 0 .028.016l.007.004.002.001.493-.87zm-17.505-8.66c-3.985 0-14.66-.783-26.096 8.655l1.273 1.543c10.84-8.947 20.853-8.198 24.823-8.198v-2zm-26.096 8.655c-5.551 4.581-11.692 9.157-16.46 12.599a430.155 430.155 0 0 1-7.534 5.319l-.446.306-.114.078-.029.02-.007.004-.002.002.562.827.562.827h.001l.002-.002.007-.005.03-.02.117-.08.451-.309a437.892 437.892 0 0 0 7.571-5.345c4.78-3.451 10.973-8.067 16.562-12.678l-1.273-1.543zm-24.03 19.155l-.809.588.002.003a.157.157 0 0 0 .01.013l.041.059a23.125 23.125 0 0 1 .725 1.107c.463.75 1.026 1.74 1.5 2.84.479 1.103.831 2.182.89 3.21.064.975-.155 1.692-.665 2.183l1.388 1.441c1.081-1.041 1.359-2.431 1.273-3.754-.09-1.27-.534-2.68-1.05-3.875a25.36 25.36 0 0 0-1.633-3.095 29.037 29.037 0 0 0-.793-1.209l-.05-.071a.265.265 0 0 1-.014-.02l-.004-.005-.002-.002v-.001l-.809.588zm1.694 10.003c-1.565 1.508-7.484 6.446-13.528 10.929-3.021 2.241-6.038 4.343-8.557 5.844-1.252.748-2.334 1.322-3.243 1.696-.952.393-1.46.453-1.637.419l-.378 1.964c.817.158 1.825-.141 2.779-.535.996-.412 2.208-1.053 3.504-1.826 2.578-1.538 5.678-3.697 8.724-5.956 6.089-4.518 12.106-9.538 13.724-11.094l-1.388-1.441zm-26.965 18.888c-1.913-.365-5.019-1.489-7.902-2.542-1.441-.526-2.821-1.034-3.941-1.409a26.03 26.03 0 0 0-1.502-.463c-.4-.106-.823-.2-1.166-.2v2c-.041.002.078.004.197.027.13.024.27.056.455.106.379.1.836.244 1.38.426 1.093.366 2.448.865 3.891 1.392 2.886 1.054 6.145 2.227 8.21 2.627l.378-1.964zm-14.511-4.614c-.509 0-1.599.165-2.846.401a72.459 72.459 0 0 0-4.364.971c-1.511.388-3.016.839-4.129 1.286-.567.23-1.104.494-1.472.742a3.179 3.179 0 0 0-.57.505 1.469 1.469 0 0 0-.349.926h2a.549.549 0 0 1-.098.334c-.022.034.033-.04.142-.112.247-.171.593-.338 1.095-.54 1.026-.414 2.405-.826 3.878-1.204a69.822 69.822 0 0 1 4.238-.943c1.29-.244 2.189-.366 2.475-.366v-2zm-13.73 4.831c0 .766.004 3.355-.481 5.945-.239 1.297-.57 2.501-1.089 3.511-.502.989-1.096 1.607-1.768 1.866l.719 1.866c1.318-.507 2.216-1.612 2.832-2.826.6-1.191 1.015-2.669 1.273-4.052.509-2.772.514-5.544.514-6.31h-2zm-3.338 11.322c-1.904.733-7.796 2.251-13.673 3.498-2.923.62-5.801 1.165-8.154 1.509a38.38 38.38 0 0 1-3.017.343c-.854.056-1.378.031-1.615-.026l-.467 1.944c.559.135 1.353.134 2.211.078a41.214 41.214 0 0 0 3.177-.36c2.395-.35 5.336-.907 8.28-1.532 5.86-1.243 11.903-2.789 13.977-3.588l-.719-1.866zm-26.458 5.324c-.609-.147-1.427-.583-2.421-1.257-.979-.662-2.022-1.48-3.067-2.295-1.045-.815-2.1-1.631-3.043-2.241-.893-.577-1.917-1.13-2.843-1.13v2c.268 0 .835.214 1.757.81.872.562 1.856 1.326 2.9 2.139 1.043.813 2.139 1.671 3.174 2.373 1.02.691 2.092 1.308 3.074 1.545l.469-1.944zm-11.374-6.923c-1.231.001-3.893.198-6.418.587-1.264.194-2.543.446-3.591.744-1.003.287-2.024.674-2.619 1.247l1.387 1.441c.2-.193.77-.476 1.781-.764.966-.277 2.123-.504 3.346-.692 2.448-.378 4.957-.563 6.114-.563v-2zm-12.628 2.578c-.546.525-.916 1.267-1.224 1.895-.327.666-.641 1.342-1.093 1.99-.838 1.209-2.177 2.388-5.066 2.736l.239 1.986c3.476-.419 5.319-1.92 6.471-3.584.542-.788.925-1.596 1.244-2.246.338-.689.566-1.096.816-1.336l-1.387-1.441zm-7.383 6.621c-3.174.382-10.706 1.146-17.751 1.623-3.522.239-6.896.405-9.547.417-1.32.006-2.425-.026-3.287-.106a8.013 8.013 0 0 1-1.014-.143c-.25-.052-.409-.146-.363-.108l-1.081 1.683c.302.194.677.305 1.017.379.345.075.787.137 1.258.181.925.085 2.126.12 3.479.114 2.695-.013 6.133-.181 9.673-.421 7.078-.48 14.663-1.249 17.855-1.633l-.239-1.986zm-31.962 1.683c-.46-.295-1.025-.863-1.675-1.642-.64-.767-1.296-1.656-1.944-2.52-.649-.865-1.305-1.721-1.897-2.357a6.76 6.76 0 0 0-.945-.852c-.307-.214-.737-.446-1.239-.446v2c-.105 0-.088-.041.093.085.188.129.375.305.63.579.526.561 1.114 1.333 1.758 2.191.644.858 1.331 1.788 2.008 2.601.668.801 1.396 1.573 2.13 2.044l1.081-1.683zm-7.7-7.817c-.762 0-3.529-.191-6.231-.287-1.352-.048-2.705-.073-3.763-.036a13.29 13.29 0 0 0-1.418.114c-.2.031-.42.08-.581.13a1.62 1.62 0 0 0-.637.359l1.388 1.439c-.118.115-.213.129-.142.107a1.51 1.51 0 0 1 .276-.058c.301-.047.687-.075 1.183-.092 1.006-.036 2.288-.012 3.622.036 2.669.095 5.473.287 6.303.288v-2zm-12.629.279c-.272.262-.422.614-.511.847-.097.256-.191.569-.279.88-.176.618-.358 1.304-.633 1.961-.272.66-.551 1.167-1.014 1.567-.392.352-.901.593-1.644.593v2c1.247 0 2.23-.43 2.982-1.106.681-.63 1.198-1.511 1.523-2.287.321-.78.537-1.577.709-2.18.086-.3.153-.531.224-.715.079-.207.102-.189.03-.119l-1.387-1.441zm-4.081 5.848c-1.954.001-4.679-.187-7.041-.472-1.178-.141-2.228-.302-3.045-.476a8.495 8.495 0 0 1-.951-.246c-.279-.093-.281-.133-.204-.058l-1.387 1.441c.276.266.671.418.952.513.315.105.731.212 1.175.307.873.185 2.011.359 3.221.505 2.412.29 5.257.485 7.28.486v-2zm-11.241-1.252c-.397-.383-1.068-1.021-1.744-1.461-.344-.221-.773-.446-1.237-.527-.503-.088-1.103-.011-1.588.455l1.387 1.441c-.087.084-.189.066-.145.074.082.014.249.077.502.24.518.326 1.041.836 1.438 1.219l1.387-1.441zm-4.569-1.533c.12-.115.212-.126.111-.093-.085.03-.179.052-.345.083-.349.066-.801.119-1.368.166-1.144.094-2.595.14-4.07.14-1.476 0-2.927-.046-4.071-.14a13.85 13.85 0 0 1-1.366-.166 2.276 2.276 0 0 1-.345-.083c-.1-.033-.008-.022.112.094l-1.39 1.439c.22.212.493.314.643.364.166.055.393.11.61.151.415.078.97.144 1.573.194 1.193.098 2.726.147 4.234.147s3.04-.049 4.234-.147c.603-.05 1.158-.116 1.573-.194.217-.041.444-.096.61-.151.151-.05.423-.152.642-.363l-1.387-1.441zm-11.344-.001c.077.051-.18-.311-.412-.841-.234-.532-.527-1.222-.9-1.893-.736-1.314-1.988-2.905-4.156-2.905v2c1.015 0 1.752.706 2.41 1.881.322.574.576 1.177.815 1.721.12.273.243.547.361.773.112.214.273.493.497.707l1.385-1.443zm-5.468-5.639c-1.541 0-2.643-.004-3.34.108-.346.055-.776.162-1.118.458-.41.354-.52.817-.52 1.199h2c0-.001-.012.175-.172.314-.093.08-.126.044.126.004.496-.08 1.384-.083 3.024-.083v-2zm-4.979 1.765c0 .228-.016.186.013.127.053-.109.11-.081-.09.002-.489.202-1.69.404-4.491.404v2c2.767 0 4.35-.182 5.254-.555.495-.204.9-.512 1.127-.979.162-.392.187-.808.187-.999h-2zm-4.568.533c-.59 0-2.378-.221-5.137-.735-2.731-.508-6.311-1.285-10.462-2.369-8.315-2.171-18.793-5.54-29.026-10.396-20.546-9.747-39.466-25.18-37.921-48.245l-1.996-.134c-1.636 24.426 18.43 40.399 39.06 50.185 10.353 4.91 21.01 8.34 29.378 10.525 4.191 1.095 7.84 1.886 10.6 2.401 2.734.509 4.7.768 5.504.768v-2zM.09 105.706h1v-.036a83.695 83.695 0 0 1 .002-.521 260.666 260.666 0 0 1 .097-6.02c.05-1.669.123-3.341.233-4.65.055-.649.115-1.175.186-1.574.034-.19.06-.305.091-.403.04-.128.028-.005-.12.137L.194 91.198c-.247.237-.353.552-.4.698a5.756 5.756 0 0 0-.154.66 20.86 20.86 0 0 0-.21 1.755c-.113 1.349-.189 3.076-.239 4.758a240.498 240.498 0 0 0-.1 6.599v.028a36.361 36.361 0 0 0 0 .009v.001h1zm1.49-13.067l5.569-5.362-1.388-1.441-5.568 5.362 1.387 1.44z"/><path id="b" d="M-.887.461c.777 1.494 1.932 4.272 2.81 7.376.885 3.126 1.432 6.405 1.067 8.868L4.968 17c.43-2.898-.217-6.513-1.121-9.707C2.934 4.076 1.702 1.11.887-.46L-.887.461z"/><path id="c" d="M477.79 12.8l.993-.117-.015-.126-.046-.118-.932.361zM431.244 2.46l-.23-.974-.06.014-.057.022.347.937zM342.13 39.992l.497.868-.497-.868zM0 115.826l-.942-.335-.254.713.617.437.579-.815zm24.664 19.149l.743-.669-.06-.067-.073-.056-.61.792zm269.728-16.852l.716.699-.716-.699zm40.578-32.172l-.406-.913.406.913zm76.382-8.425l-.05-.999h-.008l.058.999zm15.118-15.32l.987.159-.987-.158zm12.156-9.942l.014 1-.014-1zm6.52.778l-.254.967.254-.967zm28.665-5.773c.096.995.098.995.1.995h.004l.01-.001.021-.003.051-.008a2.62 2.62 0 0 0 .137-.028 3.07 3.07 0 0 0 .393-.13 4.62 4.62 0 0 0 1.124-.718c.848-.743 1.801-2.058 2.588-4.382 1.564-4.617 2.538-13.414.544-30.311l-1.986.234c1.983 16.807.968 25.245-.452 29.436-.705 2.08-1.492 3.063-2.012 3.517-.256.232-.41.312-.57.376a.366.366 0 0 1-.098.034c-.005.002.002 0 .005 0l.017-.003a.31.31 0 0 0 .02-.002h.004c.002-.001.004-.001.1.994zM477.79 12.8c.932-.36.932-.362.932-.363l-.001-.002-.003-.006-.007-.018a5.225 5.225 0 0 0-.107-.247c-.07-.15-.186-.387-.338-.666a17.064 17.064 0 0 0-1.478-2.222c-1.358-1.735-3.669-4.026-7.168-5.969-7.038-3.886-18.944-6.456-38.606-1.82l.459 1.946c19.326-4.556 30.693-1.957 37.18 1.625 3.265 1.792 5.28 3.81 6.558 5.45a14.146 14.146 0 0 1 1.301 1.951c.13.238.215.412.275.543l.059.131.011.028.002.004-.001-.001v-.001c0-.001-.001-.002.932-.363zM431.244 2.46l-.348-.938h-.002l-.01.004-.036.014-.144.053-.562.209-2.152.804a1729.477 1729.477 0 0 0-33.204 12.85c-19.463 7.772-41.805 17.184-53.152 23.669l.993 1.736c11.24-6.428 33.455-15.782 52.901-23.548A1724.65 1724.65 0 0 1 430.84 3.676l.56-.208.143-.053.036-.013.009-.004h.002l-.346-.939zm-89.61 36.664c-12.748 7.288-22.111 13.168-36.658 17.236-14.605 4.1-34.36 6.38-67.871 6.378v2c33.626-.001 53.652-2.316 68.411-6.452 14.816-4.165 24.398-10.158 37.111-17.425l-.993-1.736zM237.105 62.739c-31.479.002-88.262 5.755-138.43 15.146C73.589 82.58 50.094 88.2 32.242 94.464c-8.937 3.136-16.529 6.465-22.182 9.913-5.64 3.442-9.588 7.137-11.001 11.114l1.884.669c1.173-3.3 4.61-6.69 10.159-10.076 5.535-3.381 12.936-6.623 21.802-9.733 17.754-6.232 41.102-11.815 66.14-16.502 50.085-9.376 106.684-15.112 138.062-15.11v-2zM-.579 116.641c15.128 10.73 12.577 9.841 24.633 19.127l1.22-1.585c-11.811-9.098-9.588-8.457-24.695-19.173l-1.158 1.631zm24.5 19.003c5.196 5.771 9.101 9.519 15.975 13.324 6.82 3.764 16.642 7.625 33.763 13.759l.674-1.883c-17.092-6.123-26.765-9.922-33.47-13.626-6.654-3.664-10.308-7.193-15.456-12.912l-1.486 1.338zm49.737 27.083c17.29 6.193 45.498 8.101 73.247 7.909 27.786-.192 55.305-2.496 71.247-4.798l-.286-1.979c-15.883 2.294-43.265 4.587-70.975 4.777-27.749.192-55.635-1.73-72.558-7.792l-.674 1.883zm144.494 3.111c32.175-4.646 52.265-21.713 76.956-47.016l-1.432-1.397c-24.642 25.254-44.332 41.888-75.81 46.434l.286 1.979zm76.956-47.016c12.311-12.618 19.811-19.46 25.541-23.739 5.672-4.244 9.551-5.918 14.727-8.218l-.812-1.828c-5.168 2.297-9.246 4.071-15.111 8.444-5.807 4.34-13.424 11.285-25.777 23.944l1.432 1.397zm40.268-31.957c1.18-.524 3.245-1.07 6.037-1.614 2.776-.54 6.173-1.062 9.986-1.564 7.629-1.003 16.831-1.91 25.727-2.675 8.894-.766 17.463-1.388 23.814-1.818a1393.404 1393.404 0 0 1 10.281-.659l.142-.008.035-.002h.012l-.058-.999-.058-.998h-.012l-.036.002-.142.009a576.37 576.37 0 0 0-2.672.162c-1.826.114-4.449.282-7.628.497-6.355.431-14.942 1.054-23.85 1.82-8.907.767-18.154 1.68-25.816 2.686-3.834.505-7.292 1.036-10.108 1.584-2.799.546-5.061 1.125-6.466 1.75l.812 1.827zm76.027-8.34c7.56-.384 11.419-1.722 13.407-4.65.926-1.387 1.417-3.122 1.738-5.015.316-1.88.516-4.039.909-6.495l-1.975-.316c-.402 2.522-.601 4.672-.906 6.478-.301 1.793-.655 3.122-1.42 4.224-1.393 2.05-4.297 3.393-11.854 3.776l.101 1.998zm16.054-16.16c.708-4.43 1.535-6.498 2.961-7.6 1.465-1.13 3.794-1.442 8.222-1.5l-.027-2c-4.289.056-7.335.31-9.417 1.918-2.12 1.637-3.013 4.483-3.714 8.866l1.975.316zm11.183-9.1a22.988 22.988 0 0 1 6.252.744l.508-1.935a25.86 25.86 0 0 0-6.787-.81l.027 2zm6.252.744c11.418 2.995 18.942 1.457 23.656-.947 2.334-1.198 3.997-2.628 5.006-3.702a13.71 13.71 0 0 0 1.143-1.39 9.044 9.044 0 0 0 .356-.544l.022-.038.006-.012.003-.004.001-.002s.001-.002-.876-.483c-.876-.482-.875-.483-.875-.484l.001-.002v.001l-.009.014c-.01.019-.023.04-.045.076-.049.079-.115.18-.216.323-.212.3-.516.694-.971 1.177-.934 1-2.328 2.212-4.455 3.289-4.208 2.145-11.216 3.685-22.239.793l-.508 1.935z"/><path id="d" d="M224.218 29.108l-.023-.5.023.5zm-33.417-.767l.444.231-.444-.23zM96.118 58.216l.19.462-.19-.462zm-37.395 26.81l.353.354-.353-.354zM239.335 0l-.499.028v.004l.001.014.003.059.01.232c.007.206.016.505.021.89.011.772.008 1.868-.047 3.192-.112 2.657-.429 6.177-1.268 9.733-1.684 7.153-5.377 14.09-13.361 14.456l.046 1c8.725-.4 12.591-8.017 14.288-15.227.853-3.625 1.181-7.239 1.294-9.92.056-1.344.059-2.468.048-3.249a36.649 36.649 0 0 0-.022-.912l-.01-.242a2.014 2.014 0 0 0-.003-.063l-.001-.017v-.005l-.5.027zm-15.14 28.608c-8.313.383-16.231-.571-22.3-1.242-3.035-.335-5.625-.601-7.554-.59-.973.007-1.826.09-2.469.269-.657.186-1.224.506-1.515 1.066l.888.46c.107-.205.36-.411.899-.564.555-.159 1.274-.225 2.203-.23 1.875-.013 4.407.248 7.438.583 6.065.67 14.06 1.63 22.456 1.247l-.046-.999zm-33.838-.497c-.238.458-.409 1.162-.554 1.978a53.928 53.928 0 0 0-.406 2.958c-.262 2.23-.534 4.897-.978 7.465-.444 2.568-1.044 4.983-1.978 6.773-.921 1.773-2.08 2.77-3.597 2.77v1c2.065 0 3.491-1.396 4.485-3.309.981-1.897 1.624-4.46 2.075-7.063.45-2.602.725-5.297.986-7.52.13-1.11.256-2.095.398-2.9.145-.818.297-1.383.457-1.691l-.888-.461zm-7.513 21.945c-3.595 0-23.572 1.204-43.5 2.763-9.965.78-19.926 1.65-27.825 2.501-3.951.427-7.394.85-10.063 1.255-2.647.402-4.6.795-5.529 1.179l.382.924c.796-.329 2.622-.708 5.297-1.115 2.655-.403 6.076-.823 10.02-1.248 7.889-.851 17.836-1.72 27.796-2.499 19.919-1.558 39.857-2.76 43.422-2.76v-1zm-86.917 7.698c-1.362.563-4.977 1.533-11.156 5.252-6.137 3.699-14.838 10.15-26.4 21.665l.705.709c11.51-11.466 20.115-17.844 26.21-21.518 6.055-3.654 9.6-4.598 11.023-5.184l-.382-.924zM58.37 84.67c-11.537 11.49-21.982 21.902-31.65 29.66-9.673 7.762-18.49 12.803-26.771 13.656l.102.994c8.582-.883 17.59-6.082 27.294-13.87 9.71-7.793 20.194-18.242 31.73-29.731l-.705-.709z"/><path id="e" d="M9.192 4.147l-.263-.426a.5.5 0 0 0-.237.401l.5.025zm-.798 16.085l-.328.378a.5.5 0 0 0 .828-.353l-.5-.025zM15.663-.426L8.929 3.721l.525.852L16.187.426l-.524-.852zm-6.97 4.548l-.798 16.086.999.05.797-16.086-.999-.05zm.03 15.733L.327 12.558l-.656.754 8.394 7.298.656-.755z"/><path id="f" d="M3.58 4.016l-.29-.406a.5.5 0 0 0-.207.364l.498.042zm-1.193 14.17l.153.477a.5.5 0 0 0 .345-.434l-.498-.042zM8.884-.405L3.289 3.61l.583.813L9.467.406l-.583-.812zm-5.802 4.38L1.89 18.144l.996.085L4.08 4.059l-.997-.085zM2.234 17.71l-2.387.767.306.952 2.387-.766-.306-.953z"/><path id="g" d="M28.643 1.145l.756.655-.756-.655zm-8.753 19.15l-.515-.858.515.857zm31.826-2.299h1v-.122a119.878 119.878 0 0 0-.012-1.566 155.285 155.285 0 0 0-.088-3.71c-.05-1.35-.127-2.727-.241-3.76a10.72 10.72 0 0 0-.223-1.355 3.022 3.022 0 0 0-.217-.576c-.06-.108-.362-.634-1.014-.634v2a.892.892 0 0 1-.584-.215.684.684 0 0 1-.15-.179c-.006-.004.003 0 .029.106.065.245.118.593.171 1.074.11.978.181 2.281.23 3.613a152.22 152.22 0 0 1 .1 5.206v.118h1zm-.795-11.723c.169 0 .278.05.213.027a1.74 1.74 0 0 1-.142-.06c-.157-.07-.367-.172-.642-.312-.556-.28-1.318-.68-2.229-1.148-1.82-.936-4.24-2.15-6.756-3.216C38.85.5 36.15-.446 33.85-.824c-2.242-.363-4.592-.27-5.963 1.315L29.399 1.8c.618-.714 1.948-1.004 4.131-.65 2.126.341 4.598 1.215 7.055 2.256 2.457 1.04 4.811 2.221 6.622 3.152.904.465 1.671.868 2.24 1.156.288.145.54.268.728.352.1.045.208.09.288.118.049.018.24.089.458.089v-2zM27.887.49c-1.088 1.275-1.826 2.998-2.353 4.761-.523 1.757-.902 3.675-1.345 5.522-.9 3.756-2.027 6.987-4.814 8.663l1.03 1.714c3.58-2.153 4.84-6.2 5.73-9.91.451-1.888.818-3.752 1.315-5.418.493-1.659 1.047-3 1.95-4.023L27.886.49zm-8.512 18.946c-3.023 1.82-7.846 3.134-12.019 3.995a97.267 97.267 0 0 1-7.322 1.213l-.111.014a18.97 18.97 0 0 1-.027.003h-.008l.112.994.113.994h.003l.008-.001.031-.004.118-.014.449-.056A100.292 100.292 0 0 0 7.76 25.39c4.18-.863 9.303-2.229 12.645-4.24l-1.031-1.714z"/><path id="h" d="M54.7 6.368l-.472.882.471-.882zM30.83 1.772l.694.72-.694-.72zM15.713 14.028l.188.982-.188-.982zm44.556 4.596l.983.184v-.004l.002-.008.005-.025a6.975 6.975 0 0 0 .057-.394c.03-.25.069-.633.089-1.086.038-.882.008-2.172-.254-3.548-.536-2.787-2.059-6.16-5.98-8.257l-.943 1.764c3.24 1.732 4.5 4.487 4.96 6.87a13 13 0 0 1 .219 3.084 11.373 11.373 0 0 1-.119 1.224c0 .006-.001.008-.002.011v.001c0-.001 0-.002.983.184zM55.171 5.486c-3.6-1.925-8.474-4.268-13.033-5.54-2.29-.635-4.61-1.016-6.615-.933-2.052.09-3.96.665-5.387 2.039l1.388 1.44c.96-.925 2.334-1.404 4.087-1.48 1.798-.086 3.805.252 5.99.861 4.392 1.217 9.065 3.471 12.627 5.377l.943-1.764zM30.137 1.052c-2.4 2.31-5.17 5.168-7.83 7.537-1.326 1.183-2.59 2.217-3.782 3.016-1.193.8-2.204 1.287-3.002 1.441l.379 1.964c1.191-.23 2.468-.893 3.737-1.744 1.27-.853 2.64-1.973 4-3.184 2.712-2.418 5.51-5.304 7.885-7.59l-1.387-1.44zM15.524 13.046c-2.036.393-6.016 1.553-9.453 2.606A431.732 431.732 0 0 0-.3 17.662l-.006.001-.002.001.309.951.31.95h.002l.006-.002.025-.008.098-.032A354.085 354.085 0 0 1 2.2 18.96c1.16-.37 2.747-.87 4.458-1.394 3.425-1.05 7.3-2.182 9.244-2.555l-.377-1.964z"/><path id="i" d="M15.216 8.425l-.887-.46.887.46zM39.086 0l-.407-.914h-.001l-.005.003-.022.01a53.976 53.976 0 0 1-.415.182 168.422 168.422 0 0 1-4.99 2.088c-1.435.571-2.923 1.135-4.208 1.56-1.336.44-2.275.667-2.683.667v2c.785 0 2.034-.348 3.31-.769 1.325-.437 2.87-1.022 4.32-1.6a168.859 168.859 0 0 0 5.387-2.26l.089-.04.023-.01.005-.002h.002V.913L39.086 0zM26.355 3.596c-1.234 0-3.743.205-6.111.796-1.184.298-2.42.724-3.426 1.262-1.02.55-1.961 1.294-2.49 2.31l1.776.922c.267-.515.818-1.016 1.663-1.471.858-.467 1.86-.807 2.964-1.083 2.206-.558 4.47-.737 5.624-.736v-2zM14.329 7.965c-.474.913-.671 2.08-.912 3.117-.26 1.122-.586 2.306-1.349 3.658-1.491 2.67-4.7 6.025-12.499 9.748l.862 1.805c8.013-3.825 11.618-7.418 13.383-10.578.866-1.563 1.28-3.014 1.551-4.18.291-1.253.417-2.03.739-2.649l-1.775-.921z"/><path id="j" d="M154.398 46.98l-.306-.952.306.952zm-31.032 4.597l-.61.793.61-.793zm-20.686-9.192l-.158-.988.158.988zm-7.16 13.022v1h1v-1h-1zm-6.367-.766l-.904.427.217.459.498.096.19-.982zm155.153-8.426l1-.001v-.013l-.001-.02-.002-.057a3.114 3.114 0 0 0-.014-.177 4.837 4.837 0 0 0-.098-.566 5.242 5.242 0 0 0-.773-1.67c-.919-1.264-2.641-2.326-5.682-2.326v2c2.529 0 3.591.852 4.065 1.503.274.36.373.659.446.964a1.918 1.918 0 0 1 .059.369v-.004c0-.001 0-.002 1-.002zm-5.57-4.83c-2.768 0-8.736-.192-14.222-.192-2.744 0-5.39.05-7.443.195-1.033.073-1.957.176-2.659.308-.36.068-.715.158-.982.25-.266.095-.593.239-.848.485l1.387 1.44c-.056.054-.054.025.126-.038a4.47 4.47 0 0 1 .689-.172c.626-.12 1.435-.208 2.429-.279 2-.142 4.575-.189 7.301-.189 5.454 0 11.421.191 14.222.192v-2zm-26.154 1.046c-.531.51-1.096 1.47-1.619 2.452-.544 1.025-1.126 2.241-1.673 3.39-.548 1.15-1.059 2.23-1.484 3.023a8.04 8.04 0 0 1-.512.867c-.061.087-.109.13-.089.114a.522.522 0 0 1 .105-.072.83.83 0 0 1 .396-.097v2c.451 0 .755-.269.853-.36a3.27 3.27 0 0 0 .364-.425c.192-.27.42-.66.647-1.084.446-.835.979-1.957 1.526-3.105.546-1.149 1.108-2.325 1.633-3.312.547-1.028.976-1.696 1.24-1.95l-1.387-1.441zm-4.876 9.677c-.13 0-.315.023-.46.043a40.8 40.8 0 0 0-.674.097c-.541.081-1.27.195-2.126.327a231.66 231.66 0 0 1-6.214.882c-2.276.286-4.57.521-6.452.591-.935.036-1.722.03-2.367-.03-.677-.061-.981-.17-1.058-.219l-1.081 1.683c.52.334 1.26.465 1.957.529.729.065 1.645.072 2.624.036 1.947-.074 4.328-.317 6.626-.606 2.3-.289 4.551-.626 6.268-.89.86-.132 1.585-.245 2.12-.326.532-.08.868-.115.837-.117v-2zm-19.351 1.691c-.427-.274-1.267-.586-2.252-.91a92.465 92.465 0 0 0-3.914-1.163c-3.069-.853-6.967-1.84-10.855-2.75-3.887-.912-7.789-1.755-10.863-2.32-1.54-.284-2.897-.501-3.935-.622-.524-.061-1.001-.1-1.37-.11-.345-.01-.748 0-1.074.104l.611 1.905c-.034.018.118-.019.411-.01.313.008.7.04 1.191.097.995.116 2.286.323 3.804.602 3.043.56 6.899 1.393 10.769 2.3 3.87.908 7.729 1.884 10.776 2.73 1.521.423 2.823.809 3.825 1.138 1.048.344 1.625.583 1.795.692l1.081-1.683zm-34.263-7.77c-.47.15-.93.454-1.346.78a16.91 16.91 0 0 0-1.352 1.22c-.927.917-1.957 2.054-2.994 3.147-1.036 1.093-2.055 2.122-3.018 2.886-.998.796-1.703 1.111-2.124 1.111v2c1.17 0 2.355-.738 3.37-1.546 1.052-.84 2.171-1.965 3.223-3.075s2.061-2.223 2.949-3.1c.441-.437.825-.791 1.181-1.07.359-.281.595-.409.722-.45l-.611-1.904zm-10.834 9.144c-3.372 0-11.665 1.478-19.281-4.388l-1.221 1.585c8.297 6.389 17.51 4.803 20.502 4.803v-2zm-19.281-4.388c-4.018-3.093-8.094-5.642-11.734-7.3-3.632-1.65-7.038-2.518-9.721-2.088l.316 1.975c2.09-.335 5.049.33 8.577 1.934 3.521 1.599 7.402 4.028 11.341 7.064l1.221-1.585zm-21.455-9.388c-2.858.459-4.859 2.724-6.114 5.343-1.241 2.607-1.884 5.89-1.889 8.667h2c-.004-2.585.546-5.43 1.692-7.802 1.132-2.36 2.712-3.925 4.628-4.233l-.317-1.975zm-7.003 13.01c-1.133.002-2.651-.183-3.931-.372a62.025 62.025 0 0 1-2.204-.368l-.032-.007-.007-.001h-.002l-.19.982-.189.982h.004l.01.002.035.007.134.025a65.035 65.035 0 0 0 2.147.356c1.307.193 2.972.392 4.225.394v-2zm-6.366.234l.905-.428-.002-.003a.46.46 0 0 1-.005-.01l-.018-.039-.07-.145a88.469 88.469 0 0 0-1.255-2.475 84.7 84.7 0 0 0-3.386-5.864c-1.358-2.13-2.936-4.317-4.513-5.95-1.541-1.592-3.341-2.938-5.182-2.938v2c.944 0 2.227.76 3.745 2.328 1.48 1.526 2.936 3.552 4.264 5.635a81.744 81.744 0 0 1 3.303 5.722 85.372 85.372 0 0 1 1.29 2.55l.015.033.004.008.001.002.904-.426zM75.627 36.789c-.543 0-1.895-.255-4.006-.816-2.07-.549-4.733-1.352-7.837-2.381-6.219-2.06-14.119-4.998-22.308-8.53-8.191-3.534-16.616-7.636-23.9-12.042C10.281 8.61 4.25 3.966.797-.603L-.798.603c3.687 4.878 9.984 9.681 17.339 14.128 7.363 4.451 15.91 8.615 24.143 12.167 8.237 3.553 16.218 6.52 22.47 8.592 3.131 1.038 5.851 1.858 7.954 2.416 2.06.547 3.67.883 4.519.883v-2z"/><path id="k" d="M0 0a33.172 33.172 0 0 0-.345.362 1.942 1.942 0 0 0 .05.048l.148.136c.13.117.327.293.591.519.524.449 1.328 1.11 2.424 1.942 2.183 1.658 5.565 4.02 10.306 6.808 9.465 5.563 24.435 12.864 46.35 19.77l.3-.954C37.98 21.75 23.112 14.497 13.68 8.953 8.973 6.186 5.64 3.857 3.473 2.21A52.047 52.047 0 0 1 1.094.305 25.956 25.956 0 0 1 .347-.36L0 0z"/><path id="l" d="M80.588.016l.393-.92-.177-.076-.194-.004-.022 1zm-46.15 8.426l-.585-.81.586.81zM.229 39.848l.907.42v-.001l-.908-.42zM80.587.016l.022-1h-.002a6.156 6.156 0 0 0-.098-.002A106.548 106.548 0 0 0 79.13-1a177.775 177.775 0 0 0-16.939.786c-9.926.955-21.725 3.07-28.338 7.844l1.171 1.622c6.119-4.418 17.394-6.516 27.36-7.476A174.844 174.844 0 0 1 79.124 1a103.666 103.666 0 0 1 1.419.014h.021l.024-1zM33.854 7.63C27.47 12.24 19.673 18.4 13.087 24.26c-3.295 2.932-6.313 5.814-8.696 8.386-2.37 2.559-4.206 4.907-5.073 6.784l1.816.838c.725-1.57 2.37-3.723 4.724-6.263 2.34-2.527 5.29-5.342 8.559-8.25 6.542-5.822 14.259-11.918 20.606-16.501l-1.17-1.622zM-.681 39.43a4.332 4.332 0 0 0-.267.748c-.052.23-.09.55.013.88.122.39.406.682.775.822.314.119.624.105.845.073.446-.063.96-.265 1.474-.509.524-.249 1.16-.597 1.859-1.01 2.765-1.634 6.916-4.498 11.685-7.703 9.594-6.446 21.576-14.181 30.13-16.427l-.508-1.934c-8.95 2.35-21.236 10.317-30.738 16.701C9.808 34.282 5.705 37.114 3 38.712c-.67.395-1.226.7-1.698.924-.481.228-.767.318-.899.336-.068.01.008-.015.146.037a.72.72 0 0 1 .425.452c.047.149.013.228.03.156.017-.09.049-.174.131-.35l-1.816-.838zm46.514-23.126c8.764-2.301 19.36-5.382 26.859-8.268 3.726-1.435 6.812-2.868 8.52-4.188.794-.614 1.598-1.432 1.644-2.436.054-1.187-.909-1.901-1.875-2.315L80.194.935c.824.353.657.548.664.385-.013-.077.006.068-.14.252-.162.22-.376.42-.73.693-1.45 1.12-4.281 2.465-8.015 3.903-7.42 2.858-17.909 5.906-26.648 8.2l.508 1.935z"/><path id="m" d="M46.148 12.957l-.16-.474.16.474zM77.575 0l-.23-.444h-.001l-.002.001-.007.004a4.894 4.894 0 0 1-.14.072l-.445.226c-.393.198-.974.487-1.73.854-1.515.735-3.72 1.777-6.5 3.01a258.075 258.075 0 0 1-22.531 8.76l.317.948a259.525 259.525 0 0 0 22.62-8.793c2.79-1.24 5.011-2.288 6.53-3.025a135.335 135.335 0 0 0 2.31-1.149l.03-.015a.871.871 0 0 1 .007-.004l.002-.001-.23-.444zM45.989 12.483C27.576 18.666 21.156 25.6-.281 40.118l.561.828c21.528-14.586 27.84-21.44 46.026-27.515l-.317-.948z"/><path id="n" d="M0 18.385c.528.849.529.848.53.848l.003-.002.005-.003.011-.008a2.251 2.251 0 0 0 .105-.073c.047-.036.134-.105.22-.183.15-.136.391-.388.627-.705.427-.583.984-1.624 1.34-3.09.692-2.918.687-7.708-1.73-15.466L-.8.297C1.558 7.86 1.475 12.262.895 14.707.616 15.92.24 16.604-.11 17.074a2.355 2.355 0 0 1-.435.472l-.005.003.008-.005.006-.004a.101.101 0 0 1 .004-.002l.002-.001c.001-.001.002-.002.53.848z"/><path id="o" d="M5.57 14.601l-.945.328.945-.328zM4.56 0l-.998-.058v.01a9.925 9.925 0 0 0-.007.11L3.54.395a87.157 87.157 0 0 0-.07 5.201c.053 3.068.302 6.867 1.156 9.334l1.89-.655c-.737-2.129-.993-5.63-1.047-8.714a84.21 84.21 0 0 1 .09-5.496V.057L4.56 0zm.065 14.929c.76 2.194 1.098 4.648.482 6.766-.595 2.045-2.118 3.919-5.413 4.976l.612 1.904c3.867-1.241 5.924-3.58 6.722-6.322.776-2.67.319-5.578-.513-7.979l-1.89.655z"/><path id="p" d="M10.344 0l-.835-.551-.001.002-.004.006a9.336 9.336 0 0 0-.062.096l-.183.285a56.11 56.11 0 0 0-2.594 4.597c-1.393 2.778-2.891 6.413-2.891 9.353h2c0-2.423 1.287-5.682 2.679-8.457a53.176 53.176 0 0 1 2.712-4.76l.01-.015a.053.053 0 0 0 .003-.005L10.344 0zm-6.57 13.788c0 2.739-.012 4.653-.542 6.183-.491 1.42-1.463 2.58-3.666 3.64l.868 1.802c2.571-1.238 3.986-2.759 4.688-4.787.664-1.918.652-4.216.652-6.838h-2z"/><path id="q" d="M.994 17.265c.409.913.41.912.41.912h.003l.004-.003.011-.005a2.068 2.068 0 0 0 .123-.061 5.19 5.19 0 0 0 .295-.171c.219-.137.561-.381.905-.694.644-.594 1.49-1.668 1.984-3.13.977-2.995.57-7.631-3.885-14.649L-.844.536C3.453 7.305 3.543 11.3 2.828 13.493c-.351 1.13-.898 1.788-1.435 2.276a3.857 3.857 0 0 1-.814.587H.576.58l.002-.002h.002s.001-.001.41.911z"/><path id="r" d="M3.556 18.563l.994.11v-.003l.002-.013a20.973 20.973 0 0 0 .024-.225l.065-.666c.052-.569.121-1.385.185-2.35.127-1.926.235-4.5.158-6.985-.077-2.462-.34-4.977-1.011-6.75-.334-.88-.821-1.722-1.575-2.226-.825-.553-1.795-.589-2.783-.177l.77 1.846c.483-.202.728-.123.9-.007.246.164.542.547.818 1.273.546 1.44.806 3.67.882 6.104.076 2.412-.03 4.888-.155 6.79a88.362 88.362 0 0 1-.266 3.155l-.001.01a.22.22 0 0 1 0 .003l.993.111z"/><path id="s" d="M3.73 7.462l.943.335v-.002a.486.486 0 0 1 .01-.029 3.937 3.937 0 0 0 .081-.27c.044-.16.105-.42.154-.715a8.088 8.088 0 0 0 .025-2.337C4.658 2.544 3.514.367.381-.924L-.38.924c2.437 1.005 3.158 2.56 3.346 3.817a5.18 5.18 0 0 1-.02 1.716 4.85 4.85 0 0 1-.157.672v.002a.406.406 0 0 1 0-.002v-.001l.943.334z"/><path id="t" d="M5.31 10.083c.363.931.365.93.366.93h.002a.168.168 0 0 1 .017-.007 4.037 4.037 0 0 0 .103-.047c.043-.022.13-.07.21-.12a3.15 3.15 0 0 0 .57-.493c.42-.485.745-1.223.653-2.236C7.058 6.22 5.443 3.47.66-.75L-.661.75C4.104 4.956 5.144 7.247 5.24 8.292c.042.454-.097.658-.173.746-.053.07-.068.075-.13.113-.017.012-.01.008-.025.015l.008-.004.01-.004.008-.003.004-.002h.002s.002-.001.366.93z"/><path id="u" d="M1.768 9.1l-.929.37.929-.37zm0-9.08c.215-.977.214-.977.213-.977H1.98a2.103 2.103 0 0 0-.114-.02 2.835 2.835 0 0 0-.215-.02 3.017 3.017 0 0 0-.671.062C.415-.802-.227-.43-.624.389-.994 1.155-1.1 2.207-.9 3.62-.703 5-.175 6.929.84 9.47l1.857-.741C1.72 6.292 1.255 4.595 1.08 3.339c-.173-1.222-.03-1.818.096-2.077.1-.207.204-.237.262-.25.058-.02.06-.015.122-.012.017 0 .01 0 .024.002h-.008A2.989 2.989 0 0 0 1.56.997h-.004L1.554.996s-.002 0 .214-.977zM.839 9.47c1.92 4.806 1.461 7.56.728 9.05-.37.779-.799 1.214-1.21 1.543a2.974 2.974 0 0 1-.567.37h.003l.001-.001s.002 0 .383.924.382.924.383.923h.002l.004-.002.01-.004a2.624 2.624 0 0 0 .098-.045c.05-.024.137-.07.23-.121a5.88 5.88 0 0 0 .709-.488c.509-.413 1.224-1.174 1.749-2.215 1.057-2.149 1.393-5.522-.665-10.675L.839 9.47z"/><path id="v" d="M28.432 5.792l.305-.952h-.001l-.003-.001-.014-.005-.052-.016a138.296 138.296 0 0 0-.961-.304c-.654-.206-1.59-.497-2.712-.84a298.89 298.89 0 0 0-8.234-2.39C13.766.469 10.737-.284 8.466-.685 7.319-.888 6.292-1.008 5.572-1c-.362.006-.766.043-1.114.182-.373.15-.896.53-.896 1.247h2c0 .43-.336.6-.36.61-.058.031.137-.037.402-.04.586-.011 1.423.09 2.514.283 2.204.389 5.143 1.12 8.116 1.931 2.973.811 5.942 1.693 8.176 2.374a340.372 340.372 0 0 1 3.649 1.135l.05.016.013.004.003.001.307-.952zM3.562.43c.001 1.19.306 4.922-.106 8.482-.202 1.779-.549 3.406-1.2 4.708-.619 1.253-1.422 2-2.464 2.222l.416 1.956c1.849-.393 3.062-1.715 3.84-3.292.747-1.527 1.18-3.49 1.395-5.367.424-3.753.119-7.6.12-8.709h-2z"/><path id="w" d="M1.193 10.163c.675.738.675.738.676.737l.001-.001.003-.003.007-.007a1.026 1.026 0 0 0 .067-.066c.033-.033.09-.094.149-.162.103-.12.27-.334.428-.584.29-.464.666-1.265.848-2.236.354-1.995-.05-4.8-2.55-8.41L-.822.569C1.45 3.852 1.644 6.13 1.402 7.492a3.82 3.82 0 0 1-.57 1.519 2.51 2.51 0 0 1-.314.414l-.009.008a.342.342 0 0 1 .008-.007h.001c0-.001.001-.002.675.737z"/><path id="x" d="M7.16 1.021l-.339.94.34-.94zm17.986 17.73l.8-.602h-.001l-.002-.003-.007-.009-.026-.034-.1-.132a134.969 134.969 0 0 0-1.798-2.292 141.276 141.276 0 0 0-4.725-5.597c-1.862-2.085-3.951-4.27-5.965-6.067C11.324 2.232 9.284.725 7.5.08l-.679 1.88c1.4.506 3.2 1.789 5.17 3.546 1.955 1.743 3.965 3.847 5.804 5.907a138.52 138.52 0 0 1 6.424 7.77l.097.127.024.032.006.008.001.001.8-.6zM7.5.081C4.235-1.1 2.206-1.174.916-.801c-.658.19-1.11.494-1.41.803a2.785 2.785 0 0 0-.322.42 2.367 2.367 0 0 0-.11.223 1.95 1.95 0 0 0-.018.046c0 .002 0 .003.944.33.945.328.944.329.944.33a.375.375 0 0 1-.012.033 2.708 2.708 0 0 0-.023.049c-.014.026 0-.01.033-.039.048-.05.193-.177.53-.274.699-.202 2.25-.277 5.35.842L7.5.08z"/><path id="y" d="M4.883 7.998L.904-.427-.904.427l3.979 8.425 1.808-.854z"/><path id="z" d="M5.157 7.214a71.147 71.147 0 0 1 .295-.955h.002l.003.002h.004c.003.002-.002 0-.008-.002a2.925 2.925 0 0 1-.395-.186 5.408 5.408 0 0 1-1.193-.892C2.917 4.278 1.72 2.64.968-.251L-.968.25c.84 3.235 2.222 5.205 3.454 6.378a8.309 8.309 0 0 0 1.607 1.196c.213.116.409.206.525.255a4.018 4.018 0 0 0 .242.09h.004c.001 0 .002.001.293-.956z"/><path id="A" d="M8.355 10.529l.434-.901h.002a.763.763 0 0 1-.044-.022 10.597 10.597 0 0 1-.816-.483 15.55 15.55 0 0 1-2.175-1.716C4.018 5.784 2.077 3.363.955-.297l-1.91.594c1.264 4 3.502 6.843 5.345 8.57A18.467 18.467 0 0 0 6.84 10.8a13.528 13.528 0 0 0 .989.584 4.564 4.564 0 0 0 .089.045l.002.001h.001s.001.001.434-.9z"/><path id="B" d="M401.141 3.824l-.257-.967.257.967zM275.428 56.627l-.128-.992.128.992zm185.308-38.839c.962-.273.961-.274.961-.275l-.001-.003a.03.03 0 0 0-.002-.007l-.007-.023a11.69 11.69 0 0 0-.473-1.253 21.752 21.752 0 0 0-1.678-3.097c-1.585-2.437-4.336-5.632-8.678-8.327-8.741-5.398-23.946-8.86-49.974-1.946l.513 1.933c25.691-6.824 40.283-3.304 48.41 1.715 4.093 2.513 6.543 5.386 8.051 7.714a18.843 18.843 0 0 1 1.521 2.803 11.434 11.434 0 0 1 .393 1.034l.002.008v-.001l.962-.275zm-59.852-14.93c-25.951 6.898-51.508 19.375-73.494 30.478-10.993 5.553-21.094 10.76-29.936 14.77-8.857 4.017-16.347 6.784-22.154 7.53l.255 1.983c6.128-.786 13.855-3.668 22.725-7.692 8.887-4.031 19.026-9.257 30.012-14.806 21.974-11.097 47.339-23.491 73.105-30.33l-.513-1.934zM275.3 55.635c-5.933.762-24.225 1.84-48.823 3.77-24.594 1.928-55.482 4.707-86.558 8.868-31.076 4.161-62.401 9.715-87.822 17.184-12.719 3.738-24.026 7.98-33.066 12.76C9.983 103.003 3.054 108.4-.844 114.522l1.688 1.074c3.627-5.697 10.204-10.894 19.122-15.611 8.926-4.724 20.046-8.893 32.695-12.61 25.314-7.44 56.489-12.965 87.523-17.12 31.034-4.155 61.867-6.929 86.45-8.857 24.578-1.928 42.919-3.01 48.921-3.78l-.255-1.983z"/><path id="C" d="M32.97 20.792l.032-.5-.033.5zm45.447-5.584l-.138-.48.138.48zM0 19.579l-.01.5h.032l.093.002.366.008 1.386.03.023-1-1.388-.03-.366-.007-.094-.002H.01l-.01.499zm2.809.562c1.033.024 2.31.055 3.767.094l.027-1c-1.458-.038-2.737-.07-3.771-.094l-.023 1zm4.71.119c1.17.031 2.437.067 3.77.106l.03-1c-1.334-.039-2.602-.075-3.772-.106l-.027 1zm4.713.135c1.216.037 2.479.077 3.77.12l.033-.998c-1.291-.044-2.556-.085-3.773-.122l-.03 1zm4.712.153c1.242.043 2.503.09 3.766.139l.039-1a913.83 913.83 0 0 0-3.77-.138l-.035 1zm4.708.176c1.265.05 2.525.104 3.765.16l.045-.998a776.6 776.6 0 0 0-3.77-.162l-.04 1zm4.707.204c1.29.061 2.552.125 3.763.193l.056-.998a430.292 430.292 0 0 0-3.772-.194l-.047 1zm4.704.247c.643.037 1.268.076 1.874.116l.065-.998c-.608-.04-1.236-.079-1.88-.116l-.059.998zm1.874.116c.6.039 1.301.054 2.072.049l-.007-1c-.756.005-1.421-.01-2-.047l-.065.998zm3.096.03c1.218-.033 2.6-.108 4.093-.217l-.073-.998a89.74 89.74 0 0 1-4.047.216l.027 1zm5.109-.296c1.29-.103 2.66-.23 4.078-.375l-.102-.994c-1.413.143-2.771.27-4.056.373l.08.996zm5.088-.48a301.77 301.77 0 0 0 4.06-.459l-.118-.993a304.3 304.3 0 0 1-4.047.458l.105.994zm5.074-.581c1.341-.165 2.698-.338 4.05-.517l-.131-.991c-1.35.178-2.702.351-4.04.515l.12.993zm5.061-.652c1.361-.183 2.716-.372 4.044-.562l-.141-.99c-1.327.19-2.678.378-4.036.561l.133.991zm5.052-.707a526.64 526.64 0 0 0 4.039-.602l-.151-.989c-1.299.199-2.649.4-4.032.601l.144.99zm5.046-.758c1.428-.222 2.784-.439 4.036-.646l-.162-.986c-1.25.206-2.602.422-4.027.644l.153.988zm5.038-.812c1.548-.26 2.915-.5 4.033-.709l-.183-.983c-1.113.207-2.47.446-4.015.706l.165.986zm5.038-.9c.945-.186 1.645-.34 2.017-.447l-.277-.96c-.341.098-.998.242-1.932.425l.192.981zm2.017-.447a56.31 56.31 0 0 0 2.032-.63l-.313-.95c-.69.228-1.354.434-1.996.62l.277.96zm3.04-.971a98.816 98.816 0 0 0 3.985-1.487l-.368-.93a97.192 97.192 0 0 1-3.944 1.472l.327.945zm4.972-1.883a161.739 161.739 0 0 0 3.911-1.65l-.4-.916a161.93 161.93 0 0 1-3.887 1.64l.376.927zm4.88-2.076a229.173 229.173 0 0 0 3.862-1.755l-.422-.907a228.01 228.01 0 0 1-3.844 1.748l.405.914zm4.82-2.204a295.26 295.26 0 0 0 3.82-1.83l-.438-.9c-1.228.6-2.503 1.212-3.807 1.825l.426.905zm4.774-2.298a352.17 352.17 0 0 0 3.788-1.893l-.453-.892c-1.172.595-2.439 1.23-3.776 1.888l.441.897zm4.734-2.375a354.576 354.576 0 0 0 3.758-1.947l-.465-.885a376.27 376.27 0 0 1-3.748 1.942l.455.89zm4.702-2.446c.591-.313 1.056-.562 1.372-.733l.362-.195c.041-.022.073-.04.094-.05l.023-.014a.045.045 0 0 0 .006-.003h.002V.438L112.098 0l-.239-.439h-.001l-.001.001a.047.047 0 0 1-.006.003l-.023.013-.092.05c-.082.044-.202.11-.36.194-.316.17-.778.417-1.366.73l.468.883z"/><path id="D" d="M0 21.983l.327.378.003-.003.01-.008.037-.032a102.802 102.802 0 0 1 .71-.61l-.65-.76-.566.486-.147.127-.038.033a.885.885 0 0 1-.012.01h-.001l.327.379zm2.615-1.576c.458-.388.974-.823 1.536-1.296l-.643-.766c-.563.474-1.08.91-1.54 1.3l.647.762zm3.08-2.588l1.551-1.285-.636-.771c-.538.444-1.058.875-1.554 1.288l.64.768zm3.109-2.563c.51-.417 1.031-.84 1.56-1.267l-.629-.778c-.53.428-1.052.853-1.564 1.27l.633.775zm3.129-2.527c.523-.417 1.05-.834 1.576-1.248l-.618-.787c-.528.416-1.057.835-1.582 1.253l.624.782zm3.162-2.485c.537-.414 1.07-.82 1.595-1.218l-.602-.798c-.529.399-1.065.809-1.604 1.225l.611.791zm3.207-2.42c.558-.41 1.1-.801 1.628-1.174l-.577-.816c-.531.375-1.082.772-1.643 1.184l.592.806zm3.277-2.307c.601-.4 1.16-.757 1.68-1.066l-.513-.859c-.531.317-1.111.687-1.72 1.092l.553.833zm2.528-1.55c.31-.168.61-.329.903-.483l-.467-.884a90.26 90.26 0 0 0-.91.486l.474.88zm2.713-1.404a33.138 33.138 0 0 1 1.838-.831l-.382-.925c-.597.247-1.229.534-1.893.857l.437.9zm3.716-1.505A13.256 13.256 0 0 1 32.462.63l-.142-.99c-.68.099-1.373.253-2.069.46l.285.958zM34.43.5c.634.005 1.28.049 1.987.132l.117-.993A19.276 19.276 0 0 0 34.437-.5l-.008 1zm3.98.439c.322.059.652.124.997.194l.2-.98a52.732 52.732 0 0 0-1.017-.198l-.18.984z"/><path id="E" d="M81.283 9.348l.087.493-.087-.493zM0 33.612l.201.458h.001l.004-.003.016-.007.065-.028.26-.112c.229-.099.57-.245 1.018-.434l-.388-.921c-.451.19-.796.337-1.026.437l-.263.113-.066.03a1.67 1.67 0 0 1-.017.007l-.005.002h-.001l.201.458zm4.369-1.286c.827-.336 1.767-.714 2.817-1.13l-.368-.93c-1.052.417-1.997.797-2.826 1.134l.377.926zm5.647-2.235c.89-.343 1.832-.703 2.827-1.078l-.352-.936c-.997.376-1.944.737-2.835 1.081l.36.933zm5.665-2.135c.918-.337 1.869-.684 2.854-1.038l-.339-.941c-.987.355-1.941.703-2.86 1.04l.345.94zm5.716-2.057c.93-.328 1.886-.66 2.866-.997l-.325-.946c-.982.338-1.94.672-2.873 1l.331.943zm5.738-1.973c.94-.316 1.898-.635 2.876-.956l-.312-.95c-.98.322-1.941.641-2.883.958l.319.948zm5.758-1.89c.948-.305 1.91-.61 2.888-.915l-.298-.955c-.98.306-1.946.613-2.895.917l.305.952zm5.784-1.81a443.18 443.18 0 0 1 2.903-.873l-.285-.959c-.982.292-1.952.584-2.91.876l.292.956zM44.49 18.5c.963-.279 1.936-.556 2.92-.832l-.27-.963c-.986.277-1.962.555-2.927.834l.277.96zm5.846-1.643c.966-.263 1.94-.525 2.923-.785l-.256-.966c-.984.26-1.962.523-2.93.787l.263.964zm5.855-1.548c.973-.249 1.953-.496 2.94-.74l-.24-.97c-.989.244-1.973.492-2.948.742l.248.968zm5.89-1.456c.978-.234 1.962-.464 2.952-.691l-.224-.975c-.992.228-1.98.46-2.96.693l.232.973zm5.907-1.356c.983-.216 1.97-.43 2.963-.639l-.207-.978c-.995.21-1.986.423-2.972.64l.216.977zm5.934-1.251c.988-.199 1.978-.394 2.974-.584l-.188-.982c-.998.19-1.993.386-2.984.585l.198.98zm5.952-1.139c.498-.09.995-.179 1.495-.266l-.174-.985-1.5.267.179.984zm1.495-.266l1.474-.258-.172-.985-1.476.258.174.985zm4.399-.762c.986-.167 1.964-.332 2.935-.494L88.54 7.6c-.972.162-1.952.327-2.94.495l.169.985zm5.874-.978c.987-.16 1.966-.318 2.936-.472l-.157-.988c-.971.155-1.952.312-2.94.473l.16.987zm5.869-.933c.988-.154 1.967-.304 2.937-.451l-.15-.989c-.97.147-1.951.298-2.94.452l.153.988zm5.884-.893c.993-.146 1.975-.29 2.946-.43l-.143-.99c-.972.14-1.955.284-2.949.431l.146.99zm5.89-.849c.995-.14 1.976-.275 2.945-.407l-.136-.991c-.969.132-1.952.268-2.948.408l.139.99zm5.889-.804c.998-.133 1.98-.261 2.947-.386l-.128-.991c-.968.124-1.952.253-2.95.386l.131.99zm5.895-.76c1.002-.125 1.986-.246 2.951-.363l-.12-.993c-.966.117-1.952.238-2.955.364l.124.992zm5.906-.715c1.01-.118 1.995-.231 2.958-.34l-.112-.994c-.964.11-1.952.223-2.962.34l.116.994zm5.918-.668c1.017-.11 2.003-.215 2.959-.314l-.104-.995c-.956.1-1.945.205-2.963.315l.108.994zm5.909-.615c1.033-.103 2.021-.199 2.964-.288l-.094-.996c-.944.09-1.935.186-2.969.289l.099.995zm5.922-.56a454.32 454.32 0 0 1 2.969-.258l-.083-.997c-.913.077-1.906.163-2.975.258l.089.996zm5.928-.496a323.08 323.08 0 0 1 2.959-.215l-.068-.998c-.73.05-1.726.12-2.968.216l.077.997z"/></defs></svg>