<svg width="383" height="215" viewBox="0 0 383 215" xmlns="http://www.w3.org/2000/svg" xmlns:xlink="http://www.w3.org/1999/xlink"><title>Молекулы</title><desc>Created using Figma</desc><use xlink:href="#a" transform="translate(56.17 36.6)" fill="#A32B25"/><use xlink:href="#b" transform="translate(35.52 48.08)" fill="#A32B25"/><use xlink:href="#c" transform="translate(56.17 63.37)" fill="#A32B25"/><use xlink:href="#d" transform="translate(.71 .56)" fill="#A32B25"/><use xlink:href="#e" transform="translate(148.51 36.6)" fill="#A32B25"/><use xlink:href="#f" transform="translate(127.85 48.08)" fill="#A32B25"/><use xlink:href="#g" transform="translate(148.51 63.37)" fill="#A32B25"/><use xlink:href="#h" transform="translate(93.05 .56)" fill="#A32B25"/><use xlink:href="#i" transform="translate(240.84 36.6)" fill="#A32B25"/><use xlink:href="#j" transform="translate(220.18 48.08)" fill="#A32B25"/><use xlink:href="#k" transform="translate(240.84 63.37)" fill="#A32B25"/><use xlink:href="#l" transform="translate(185.38 .56)" fill="#A32B25"/><use xlink:href="#a" transform="translate(333.17 36.6)" fill="#A32B25"/><use xlink:href="#b" transform="translate(312.52 48.08)" fill="#A32B25"/><use xlink:href="#c" transform="translate(333.17 63.37)" fill="#A32B25"/><use xlink:href="#d" transform="translate(277.71 .56)" fill="#A32B25"/><use xlink:href="#m" transform="translate(56.17 139.74)" fill="#A32B25"/><use xlink:href="#n" transform="translate(35.52 151.23)" fill="#A32B25"/><use xlink:href="#o" transform="translate(56.17 166.52)" fill="#A32B25"/><use xlink:href="#p" transform="translate(.71 103.71)" fill="#A32B25"/><use xlink:href="#q" transform="translate(148.51 139.74)" fill="#A32B25"/><use xlink:href="#r" transform="translate(127.85 151.23)" fill="#A32B25"/><use xlink:href="#s" transform="translate(148.51 166.52)" fill="#A32B25"/><use xlink:href="#t" transform="translate(93.05 103.71)" fill="#A32B25"/><use xlink:href="#u" transform="translate(240.84 139.74)" fill="#A32B25"/><use xlink:href="#v" transform="translate(220.18 151.23)" fill="#A32B25"/><use xlink:href="#w" transform="translate(240.84 166.52)" fill="#A32B25"/><use xlink:href="#x" transform="translate(185.38 103.71)" fill="#A32B25"/><use xlink:href="#m" transform="translate(333.17 139.74)" fill="#A32B25"/><use xlink:href="#n" transform="translate(312.52 151.23)" fill="#A32B25"/><use xlink:href="#o" transform="translate(333.17 166.52)" fill="#A32B25"/><use xlink:href="#p" transform="translate(277.71 103.71)" fill="#A32B25"/><use xlink:href="#y" transform="rotate(90 28.525 123.475)" fill="#A32B25"/><use xlink:href="#z" transform="rotate(90 20.34 131.66)" fill="#A32B25"/><use xlink:href="#y" transform="rotate(90 23.98 220.02)" fill="#A32B25"/><use xlink:href="#z" transform="rotate(90 15.8 228.2)" fill="#A32B25"/><use xlink:href="#y" transform="rotate(90 118.395 206.605)" fill="#A32B25"/><use xlink:href="#z" transform="rotate(90 110.21 214.79)" fill="#A32B25"/><use xlink:href="#y" transform="rotate(90 -22.77 82.77)" fill="#A32B25"/><use xlink:href="#A" transform="rotate(90 -19.365 81.365)" fill="#A32B25"/><defs><path id="a" fill-rule="evenodd" d="M.879 3.157l6.849 3.807c.276.154.579.227.877.227.607 0 1.198-.303 1.524-.845.485-.81.197-1.845-.644-2.313L2.637.227C1.796-.24.72.037.236.847c-.485.808-.198 1.843.643 2.31"/><path id="b" fill-rule="evenodd" d="M1.758 0C.787 0 0 .758 0 1.692v7.614c0 .934.787 1.692 1.758 1.692s1.757-.758 1.757-1.692V1.692C3.515.758 2.729 0 1.758 0"/><path id="c" fill-rule="evenodd" d="M7.728.227L.88 4.033C.039 4.5-.25 5.536.236 6.345c.326.543.917.846 1.524.846.298 0 .6-.073.877-.226l6.849-3.807c.84-.467 1.127-1.503.643-2.311-.485-.81-1.56-1.087-2.401-.62"/><path id="d" fill-rule="evenodd" d="M98.785 81.5c-1.615 0-2.929-1.264-2.929-2.82 0-1.555 1.314-2.819 2.929-2.819 1.615 0 2.929 1.264 2.929 2.82 0 1.555-1.314 2.82-2.929 2.82zM75.7 68.67c-1.616 0-2.93-1.266-2.93-2.82 0-1.556 1.314-2.82 2.929-2.822 1.616.001 2.93 1.266 2.93 2.821 0 1.555-1.314 2.82-2.929 2.82zm-6.445-2.821c0 .524.07 1.033.197 1.52l-12.35 6.863a6.552 6.552 0 0 0-4.487-1.756 6.55 6.55 0 0 0-4.487 1.756l-12.35-6.864c.127-.486.196-.995.196-1.519 0-2.834-1.985-5.229-4.687-5.968V46.154c2.702-.738 4.687-3.134 4.687-5.967a6 6 0 0 0-.196-1.52l12.35-6.865a6.551 6.551 0 0 0 4.487 1.757 6.55 6.55 0 0 0 4.486-1.756l12.351 6.865a5.955 5.955 0 0 0-.197 1.519c0 2.833 1.986 5.23 4.687 5.967V59.88c-2.7.74-4.687 3.134-4.687 5.968zm-16.64 15.652c-1.616 0-2.93-1.265-2.93-2.82 0-1.556 1.314-2.82 2.93-2.82 1.615 0 2.93 1.264 2.93 2.82 0 1.555-1.315 2.82-2.93 2.82zM29.53 68.67c-1.615 0-2.929-1.266-2.929-2.82 0-1.556 1.314-2.822 2.93-2.822 1.615 0 2.93 1.266 2.93 2.821 0 1.555-1.316 2.82-2.93 2.82zM26.6 40.187c0-1.555 1.314-2.821 2.93-2.821 1.615 0 2.93 1.266 2.93 2.82 0 1.556-1.315 2.82-2.93 2.82-1.616 0-2.93-1.264-2.93-2.82zm26.015-15.652c1.615 0 2.93 1.265 2.93 2.82s-1.315 2.82-2.93 2.82c-1.616 0-2.93-1.265-2.93-2.82s1.314-2.82 2.93-2.82zM75.7 37.366c1.615 0 2.929 1.266 2.929 2.82 0 1.556-1.314 2.82-2.929 2.82-1.616 0-2.93-1.264-2.93-2.82 0-1.554 1.314-2.82 2.93-2.82zM6.444 81.501c-1.616 0-2.93-1.265-2.93-2.82 0-1.556 1.314-2.82 2.93-2.82 1.615 0 2.93 1.264 2.93 2.82 0 1.555-1.315 2.82-2.93 2.82zm0-51.327c-1.616 0-2.93-1.264-2.93-2.818 0-1.556 1.314-2.821 2.93-2.821 1.615 0 2.93 1.265 2.93 2.82s-1.315 2.82-2.93 2.82zm92.341-5.64c1.615 0 2.929 1.266 2.929 2.822 0 1.554-1.314 2.818-2.929 2.818-1.615 0-2.929-1.264-2.929-2.818 0-1.556 1.314-2.821 2.929-2.821zm0 47.942a6.55 6.55 0 0 0-4.486 1.756l-12.351-6.864c.128-.487.196-.995.196-1.52 0-2.833-1.985-5.228-4.687-5.967V46.154c2.702-.738 4.687-3.134 4.687-5.967 0-.525-.068-1.033-.196-1.52l12.351-6.865a6.55 6.55 0 0 0 4.486 1.757c3.554 0 6.445-2.783 6.445-6.203 0-3.422-2.891-6.206-6.445-6.206-3.553 0-6.444 2.784-6.444 6.206 0 .523.068 1.032.196 1.518l-12.351 6.865a6.55 6.55 0 0 0-4.486-1.756 6.55 6.55 0 0 0-4.486 1.756l-12.351-6.864a5.97 5.97 0 0 0 .196-1.52c0-2.835-1.985-5.229-4.687-5.967V1.692C54.372.758 53.586 0 52.615 0c-.971 0-1.758.758-1.758 1.692v19.696c-2.701.738-4.686 3.132-4.686 5.968 0 .523.068 1.032.196 1.518l-12.351 6.865a6.55 6.55 0 0 0-4.486-1.756c-1.743 0-3.326.67-4.487 1.756l-12.35-6.865c.128-.486.196-.995.196-1.518 0-3.422-2.891-6.206-6.444-6.206C2.891 21.15 0 23.934 0 27.356c0 3.42 2.891 6.203 6.445 6.203a6.55 6.55 0 0 0 4.486-1.757l12.351 6.865a5.955 5.955 0 0 0-.196 1.52c0 2.834 1.985 5.23 4.686 5.968v13.727c-2.701.738-4.686 3.133-4.686 5.967 0 .525.068 1.033.196 1.52l-12.351 6.864a6.55 6.55 0 0 0-4.486-1.757C2.891 72.476 0 75.26 0 78.681c0 3.42 2.891 6.205 6.445 6.205 3.553 0 6.444-2.784 6.444-6.205 0-.525-.068-1.033-.196-1.52l12.35-6.864a6.555 6.555 0 0 0 4.487 1.757 6.55 6.55 0 0 0 4.486-1.757l12.351 6.864a5.967 5.967 0 0 0-.196 1.519c0 2.835 1.985 5.23 4.687 5.969v19.694c0 .934.786 1.692 1.757 1.692.971 0 1.758-.758 1.758-1.692V84.649c2.701-.74 4.686-3.134 4.686-5.969a6.02 6.02 0 0 0-.195-1.52l12.35-6.863a6.551 6.551 0 0 0 4.487 1.757 6.553 6.553 0 0 0 4.486-1.757l12.35 6.864a6.011 6.011 0 0 0-.196 1.519c0 3.421 2.891 6.205 6.444 6.205 3.554 0 6.445-2.784 6.445-6.205 0-3.42-2.891-6.204-6.445-6.204z"/><path id="e" fill-rule="evenodd" d="M.88 3.157l6.848 3.807a1.8 1.8 0 0 0 .877.227c.607 0 1.198-.303 1.524-.845.485-.81.197-1.845-.644-2.313L2.637.227C1.797-.24.721.037.237.847c-.487.808-.199 1.843.642 2.31"/><path id="f" fill-rule="evenodd" d="M1.758 0C.787 0 0 .758 0 1.692v7.614c0 .934.787 1.692 1.758 1.692.97 0 1.757-.758 1.757-1.692V1.692C3.515.758 2.728 0 1.758 0"/><path id="g" fill-rule="evenodd" d="M7.728.227L.878 4.033C.039 4.5-.248 5.536.237 6.345c.326.543.917.846 1.524.846.298 0 .6-.073.877-.226l6.849-3.807c.84-.467 1.128-1.503.643-2.311C9.645.037 8.57-.24 7.729.227"/><path id="h" fill-rule="evenodd" d="M98.785 81.5c-1.616 0-2.93-1.264-2.93-2.82 0-1.555 1.314-2.819 2.93-2.819 1.615 0 2.929 1.264 2.929 2.82 0 1.555-1.314 2.82-2.929 2.82zM75.7 68.67c-1.616 0-2.93-1.266-2.93-2.82 0-1.556 1.314-2.82 2.928-2.822 1.617.001 2.931 1.266 2.931 2.821 0 1.555-1.314 2.82-2.929 2.82zm-6.445-2.821c0 .524.07 1.033.196 1.52l-12.35 6.863a6.552 6.552 0 0 0-4.487-1.756 6.55 6.55 0 0 0-4.486 1.756l-12.35-6.864a6 6 0 0 0 .195-1.519c0-2.834-1.985-5.229-4.686-5.968V46.154c2.701-.738 4.686-3.134 4.686-5.967a6 6 0 0 0-.195-1.52l12.35-6.865a6.55 6.55 0 0 0 4.486 1.757 6.553 6.553 0 0 0 4.487-1.756l12.351 6.865a5.955 5.955 0 0 0-.197 1.519c0 2.833 1.986 5.23 4.687 5.967V59.88c-2.7.74-4.687 3.134-4.687 5.968zm-16.64 15.652c-1.616 0-2.93-1.265-2.93-2.82 0-1.556 1.314-2.82 2.93-2.82 1.615 0 2.93 1.264 2.93 2.82 0 1.555-1.315 2.82-2.93 2.82zM29.528 68.67c-1.615 0-2.929-1.266-2.929-2.82 0-1.556 1.314-2.822 2.93-2.822 1.614 0 2.928 1.266 2.928 2.821 0 1.555-1.314 2.82-2.929 2.82zM26.6 40.187c0-1.555 1.314-2.821 2.93-2.821 1.614 0 2.928 1.266 2.928 2.82 0 1.556-1.314 2.82-2.929 2.82-1.615 0-2.929-1.264-2.929-2.82zm26.014-15.652c1.616 0 2.93 1.265 2.93 2.82s-1.314 2.82-2.93 2.82c-1.615 0-2.929-1.265-2.929-2.82s1.314-2.82 2.93-2.82zM75.7 37.366c1.615 0 2.929 1.266 2.929 2.82 0 1.556-1.314 2.82-2.929 2.82-1.616 0-2.93-1.264-2.93-2.82 0-1.554 1.314-2.82 2.93-2.82zM6.444 81.501c-1.616 0-2.93-1.265-2.93-2.82 0-1.556 1.314-2.82 2.93-2.82 1.615 0 2.93 1.264 2.93 2.82 0 1.555-1.315 2.82-2.93 2.82zm0-51.327c-1.616 0-2.93-1.264-2.93-2.818 0-1.556 1.314-2.821 2.93-2.821 1.615 0 2.93 1.265 2.93 2.82s-1.315 2.82-2.93 2.82zm92.341-5.64c1.615 0 2.929 1.266 2.929 2.822 0 1.554-1.314 2.818-2.929 2.818-1.616 0-2.93-1.264-2.93-2.818 0-1.556 1.314-2.821 2.93-2.821zm0 47.942c-1.743 0-3.326.67-4.487 1.756l-12.35-6.864c.128-.487.196-.995.196-1.52 0-2.833-1.985-5.228-4.687-5.967V46.154c2.702-.738 4.687-3.134 4.687-5.967 0-.525-.068-1.033-.196-1.52l12.35-6.865a6.553 6.553 0 0 0 4.487 1.757c3.554 0 6.444-2.783 6.444-6.203 0-3.422-2.89-6.206-6.444-6.206s-6.444 2.784-6.444 6.206c0 .523.068 1.032.196 1.518l-12.351 6.865a6.55 6.55 0 0 0-4.486-1.756c-1.743 0-3.326.67-4.487 1.756l-12.35-6.864a5.97 5.97 0 0 0 .196-1.52c0-2.835-1.985-5.229-4.687-5.967V1.692C54.372.758 53.585 0 52.615 0c-.971 0-1.758.758-1.758 1.692v19.696c-2.701.738-4.687 3.132-4.687 5.968 0 .523.069 1.032.197 1.518l-12.351 6.865a6.551 6.551 0 0 0-4.486-1.756c-1.743 0-3.326.67-4.487 1.756l-12.35-6.865c.128-.486.196-.995.196-1.518 0-3.422-2.891-6.206-6.444-6.206C2.891 21.15 0 23.934 0 27.356c0 3.42 2.891 6.203 6.445 6.203a6.552 6.552 0 0 0 4.486-1.757l12.351 6.865a5.955 5.955 0 0 0-.197 1.52c0 2.834 1.986 5.23 4.687 5.968v13.727c-2.701.738-4.687 3.133-4.687 5.967 0 .525.069 1.033.197 1.52l-12.351 6.864a6.553 6.553 0 0 0-4.486-1.757C2.891 72.476 0 75.26 0 78.681c0 3.42 2.891 6.205 6.445 6.205 3.553 0 6.444-2.784 6.444-6.205 0-.525-.068-1.033-.196-1.52l12.35-6.864a6.553 6.553 0 0 0 4.487 1.757 6.55 6.55 0 0 0 4.486-1.757l12.351 6.864a5.967 5.967 0 0 0-.196 1.519c0 2.835 1.985 5.23 4.686 5.969v19.694c0 .934.787 1.692 1.758 1.692s1.757-.758 1.757-1.692V84.649c2.702-.74 4.687-3.134 4.687-5.969 0-.524-.068-1.032-.196-1.52l12.351-6.863a6.55 6.55 0 0 0 4.486 1.757 6.553 6.553 0 0 0 4.487-1.757l12.35 6.864a6.011 6.011 0 0 0-.196 1.519c0 3.421 2.891 6.205 6.444 6.205 3.554 0 6.445-2.784 6.445-6.205 0-3.42-2.892-6.204-6.445-6.204z"/><path id="i" fill-rule="evenodd" d="M.88 3.157l6.848 3.807c.277.154.579.227.878.227a1.77 1.77 0 0 0 1.523-.845c.485-.81.197-1.845-.643-2.313L2.636.227C1.797-.24.723.037.237.847-.25 1.655.039 2.69.88 3.157"/><path id="j" fill-rule="evenodd" d="M1.757 0C.786 0 0 .758 0 1.692v7.614c0 .934.786 1.692 1.757 1.692.971 0 1.758-.758 1.758-1.692V1.692C3.515.758 2.728 0 1.757 0"/><path id="k" fill-rule="evenodd" d="M7.728.227L.878 4.033C.039 4.5-.248 5.536.237 6.345a1.77 1.77 0 0 0 1.524.846c.298 0 .6-.073.877-.226l6.848-3.807c.84-.467 1.129-1.503.644-2.311C9.644.037 8.568-.24 7.728.227"/><path id="l" fill-rule="evenodd" d="M98.785 81.5c-1.615 0-2.929-1.264-2.929-2.82 0-1.555 1.314-2.819 2.929-2.819 1.616 0 2.93 1.264 2.93 2.82 0 1.555-1.314 2.82-2.93 2.82zM75.7 68.67c-1.616 0-2.93-1.266-2.93-2.82 0-1.556 1.314-2.82 2.929-2.822 1.617.001 2.93 1.266 2.93 2.821 0 1.555-1.314 2.82-2.929 2.82zm-6.445-2.821c0 .524.07 1.033.197 1.52l-12.35 6.863a6.552 6.552 0 0 0-4.487-1.756c-1.743 0-3.326.67-4.487 1.756l-12.35-6.864a5.96 5.96 0 0 0 .196-1.519c0-2.834-1.985-5.229-4.687-5.968V46.154c2.702-.738 4.687-3.134 4.687-5.967 0-.525-.068-1.033-.196-1.52l12.35-6.865a6.553 6.553 0 0 0 4.487 1.757 6.55 6.55 0 0 0 4.486-1.756l12.351 6.865a5.955 5.955 0 0 0-.196 1.519c0 2.833 1.985 5.23 4.686 5.967V59.88c-2.7.74-4.687 3.134-4.687 5.968zm-16.64 15.652c-1.616 0-2.93-1.265-2.93-2.82 0-1.556 1.314-2.82 2.93-2.82 1.615 0 2.93 1.264 2.93 2.82 0 1.555-1.315 2.82-2.93 2.82zM29.53 68.67c-1.616 0-2.93-1.266-2.93-2.82 0-1.556 1.314-2.822 2.93-2.822 1.615 0 2.93 1.266 2.93 2.821 0 1.555-1.316 2.82-2.93 2.82zM26.6 40.187c0-1.555 1.314-2.821 2.93-2.821 1.615 0 2.93 1.266 2.93 2.82 0 1.556-1.315 2.82-2.93 2.82-1.616 0-2.93-1.264-2.93-2.82zm26.015-15.652c1.615 0 2.93 1.265 2.93 2.82s-1.315 2.82-2.93 2.82c-1.616 0-2.93-1.265-2.93-2.82s1.314-2.82 2.93-2.82zM75.7 37.366c1.615 0 2.929 1.266 2.929 2.82 0 1.556-1.314 2.82-2.929 2.82-1.616 0-2.93-1.264-2.93-2.82 0-1.554 1.315-2.82 2.93-2.82zM6.444 81.501c-1.615 0-2.929-1.265-2.929-2.82 0-1.556 1.314-2.82 2.93-2.82 1.614 0 2.928 1.264 2.928 2.82 0 1.555-1.314 2.82-2.929 2.82zm0-51.327c-1.615 0-2.929-1.264-2.929-2.818 0-1.556 1.314-2.821 2.93-2.821 1.614 0 2.928 1.265 2.928 2.82s-1.314 2.82-2.929 2.82zm92.341-5.64c1.616 0 2.93 1.266 2.93 2.822 0 1.554-1.314 2.818-2.93 2.818-1.615 0-2.929-1.264-2.929-2.818 0-1.556 1.314-2.821 2.929-2.821zm0 47.942a6.55 6.55 0 0 0-4.486 1.756l-12.351-6.864c.128-.487.196-.995.196-1.52 0-2.833-1.985-5.228-4.687-5.967V46.154c2.702-.738 4.687-3.134 4.687-5.967 0-.525-.068-1.033-.196-1.52l12.351-6.865a6.55 6.55 0 0 0 4.486 1.757c3.554 0 6.445-2.783 6.445-6.203 0-3.422-2.891-6.206-6.445-6.206-3.553 0-6.444 2.784-6.444 6.206a6 6 0 0 0 .196 1.518l-12.35 6.865a6.552 6.552 0 0 0-4.487-1.756 6.55 6.55 0 0 0-4.486 1.756l-12.35-6.864a6.01 6.01 0 0 0 .195-1.52c0-2.835-1.985-5.229-4.686-5.967V1.692C54.373.758 53.586 0 52.615 0s-1.757.758-1.757 1.692v19.696c-2.702.738-4.687 3.132-4.687 5.968 0 .523.068 1.032.196 1.518l-12.351 6.865a6.55 6.55 0 0 0-4.486-1.756c-1.743 0-3.326.67-4.487 1.756l-12.35-6.865c.128-.486.196-.995.196-1.518 0-3.422-2.891-6.206-6.444-6.206C2.891 21.15 0 23.934 0 27.356c0 3.42 2.891 6.203 6.445 6.203a6.55 6.55 0 0 0 4.486-1.757l12.351 6.865a5.955 5.955 0 0 0-.196 1.52c0 2.834 1.985 5.23 4.687 5.968v13.727c-2.702.738-4.687 3.133-4.687 5.967 0 .525.068 1.033.196 1.52l-12.351 6.864a6.55 6.55 0 0 0-4.486-1.757c-3.554 0-6.444 2.784-6.444 6.205 0 3.42 2.89 6.205 6.444 6.205 3.553 0 6.444-2.784 6.444-6.205 0-.525-.068-1.033-.196-1.52l12.351-6.864a6.55 6.55 0 0 0 4.486 1.757 6.55 6.55 0 0 0 4.486-1.757l12.351 6.864a5.967 5.967 0 0 0-.196 1.519c0 2.835 1.985 5.23 4.687 5.969v19.694c0 .934.787 1.692 1.758 1.692.97 0 1.757-.758 1.757-1.692V84.649c2.702-.74 4.687-3.134 4.687-5.969 0-.524-.068-1.032-.196-1.52l12.35-6.863a6.553 6.553 0 0 0 4.487 1.757 6.55 6.55 0 0 0 4.486-1.757l12.35 6.864a6.011 6.011 0 0 0-.195 1.519c0 3.421 2.89 6.205 6.444 6.205s6.444-2.784 6.444-6.205c0-3.42-2.891-6.204-6.445-6.204z"/><path id="m" fill-rule="evenodd" d="M.879 3.157l6.849 3.807c.276.154.579.226.877.226.607 0 1.198-.303 1.524-.845.485-.81.197-1.844-.644-2.312L2.637.227C1.796-.24.72.037.236.847c-.485.807-.198 1.843.643 2.31"/><path id="n" fill-rule="evenodd" d="M1.758 0C.787 0 0 .758 0 1.692v7.614c0 .934.787 1.691 1.758 1.691s1.757-.758 1.757-1.691V1.692C3.515.758 2.729 0 1.758 0"/><path id="o" fill-rule="evenodd" d="M7.728.227L.88 4.033C.039 4.5-.25 5.536.236 6.345c.326.543.917.846 1.524.846.298 0 .6-.073.877-.227l6.849-3.807c.84-.467 1.127-1.502.643-2.31-.485-.81-1.56-1.087-2.401-.62"/><path id="p" fill-rule="evenodd" d="M98.785 81.5c-1.615 0-2.929-1.264-2.929-2.82 0-1.555 1.314-2.82 2.929-2.82 1.615 0 2.929 1.265 2.929 2.82 0 1.556-1.314 2.82-2.929 2.82zM75.7 68.669c-1.616 0-2.93-1.265-2.93-2.82s1.314-2.82 2.929-2.82c1.616 0 2.93 1.265 2.93 2.82s-1.314 2.82-2.929 2.82zm-6.445-2.82c0 .523.07 1.032.197 1.519l-12.35 6.864a6.551 6.551 0 0 0-4.487-1.756 6.55 6.55 0 0 0-4.487 1.756l-12.35-6.864a6.01 6.01 0 0 0 .196-1.52c0-2.834-1.985-5.228-4.687-5.967V46.154c2.702-.739 4.687-3.134 4.687-5.968a6.02 6.02 0 0 0-.196-1.52l12.35-6.864a6.55 6.55 0 0 0 4.487 1.756 6.55 6.55 0 0 0 4.486-1.756l12.351 6.864a5.967 5.967 0 0 0-.197 1.52c0 2.834 1.986 5.23 4.687 5.968V59.88c-2.7.74-4.687 3.133-4.687 5.968zM52.615 81.5c-1.616 0-2.93-1.264-2.93-2.82 0-1.555 1.314-2.82 2.93-2.82 1.615 0 2.93 1.265 2.93 2.82 0 1.556-1.315 2.82-2.93 2.82zM29.53 68.669c-1.615 0-2.929-1.265-2.929-2.82s1.314-2.82 2.93-2.82c1.615 0 2.93 1.265 2.93 2.82s-1.316 2.82-2.93 2.82zM26.6 40.186c0-1.555 1.314-2.82 2.93-2.82 1.615 0 2.93 1.265 2.93 2.82s-1.315 2.82-2.93 2.82c-1.616 0-2.93-1.265-2.93-2.82zm26.015-15.651c1.615 0 2.93 1.265 2.93 2.82s-1.315 2.82-2.93 2.82c-1.616 0-2.93-1.265-2.93-2.82s1.314-2.82 2.93-2.82zM75.7 37.366c1.615 0 2.929 1.265 2.929 2.82s-1.314 2.82-2.929 2.82c-1.616 0-2.93-1.265-2.93-2.82s1.314-2.82 2.93-2.82zM6.444 81.5c-1.616 0-2.93-1.264-2.93-2.82 0-1.555 1.314-2.82 2.93-2.82 1.615 0 2.93 1.265 2.93 2.82 0 1.556-1.315 2.82-2.93 2.82zm0-51.326c-1.616 0-2.93-1.264-2.93-2.82 0-1.554 1.314-2.82 2.93-2.82 1.615 0 2.93 1.266 2.93 2.82 0 1.556-1.315 2.82-2.93 2.82zm92.341-5.64c1.615 0 2.929 1.266 2.929 2.82 0 1.556-1.314 2.82-2.929 2.82-1.615 0-2.929-1.264-2.929-2.82 0-1.554 1.314-2.82 2.929-2.82zm0 47.942a6.55 6.55 0 0 0-4.486 1.756l-12.351-6.865c.128-.486.196-.994.196-1.518 0-2.834-1.985-5.229-4.687-5.968V46.154c2.702-.739 4.687-3.134 4.687-5.968 0-.524-.068-1.032-.196-1.52l12.351-6.864a6.55 6.55 0 0 0 4.486 1.756c3.554 0 6.445-2.782 6.445-6.203 0-3.422-2.891-6.205-6.445-6.205-3.553 0-6.444 2.783-6.444 6.205 0 .524.068 1.033.196 1.519l-12.351 6.865a6.55 6.55 0 0 0-4.486-1.756 6.55 6.55 0 0 0-4.486 1.756l-12.351-6.865c.128-.486.196-.995.196-1.518 0-2.836-1.985-5.23-4.687-5.968V1.692C54.372.758 53.586 0 52.615 0c-.971 0-1.758.758-1.758 1.692v19.696c-2.701.737-4.686 3.132-4.686 5.967 0 .524.068 1.033.196 1.519l-12.351 6.865a6.55 6.55 0 0 0-4.486-1.757 6.553 6.553 0 0 0-4.487 1.757l-12.35-6.865a5.96 5.96 0 0 0 .196-1.52c0-3.42-2.891-6.204-6.444-6.204C2.891 21.15 0 23.933 0 27.355c0 3.421 2.891 6.203 6.445 6.203a6.55 6.55 0 0 0 4.486-1.756l12.351 6.865a5.955 5.955 0 0 0-.196 1.52c0 2.833 1.985 5.23 4.686 5.967V59.88c-2.701.74-4.686 3.134-4.686 5.968 0 .524.068 1.032.196 1.52l-12.351 6.864a6.546 6.546 0 0 0-4.486-1.757C2.891 72.476 0 75.26 0 78.68c0 3.421 2.891 6.205 6.445 6.205 3.553 0 6.444-2.784 6.444-6.205 0-.524-.068-1.032-.196-1.52l12.35-6.863a6.554 6.554 0 0 0 4.487 1.756 6.55 6.55 0 0 0 4.486-1.756l12.351 6.864a5.96 5.96 0 0 0-.196 1.519c0 2.835 1.985 5.23 4.687 5.969v19.694c0 .934.786 1.692 1.757 1.692.971 0 1.758-.758 1.758-1.692V84.648c2.701-.739 4.686-3.133 4.686-5.968a6 6 0 0 0-.195-1.52l12.35-6.864a6.547 6.547 0 0 0 4.487 1.757 6.552 6.552 0 0 0 4.486-1.757l12.35 6.865a6.006 6.006 0 0 0-.196 1.519c0 3.421 2.891 6.205 6.444 6.205 3.554 0 6.445-2.784 6.445-6.205 0-3.42-2.891-6.204-6.445-6.204z"/><path id="q" fill-rule="evenodd" d="M.88 3.157l6.848 3.807a1.8 1.8 0 0 0 .877.226c.607 0 1.198-.303 1.524-.845.485-.81.197-1.844-.644-2.312L2.637.227C1.797-.24.721.037.237.847c-.487.807-.199 1.843.642 2.31"/><path id="r" fill-rule="evenodd" d="M1.758 0C.787 0 0 .758 0 1.692v7.614c0 .934.787 1.691 1.758 1.691.97 0 1.757-.758 1.757-1.691V1.692C3.515.758 2.728 0 1.758 0"/><path id="s" fill-rule="evenodd" d="M7.728.227L.878 4.033C.039 4.5-.248 5.536.237 6.345c.326.543.917.846 1.524.846.298 0 .6-.073.877-.227l6.849-3.807c.84-.467 1.128-1.502.643-2.31C9.645.037 8.57-.24 7.729.227"/><path id="t" fill-rule="evenodd" d="M98.785 81.5c-1.616 0-2.93-1.264-2.93-2.82 0-1.555 1.314-2.82 2.93-2.82 1.615 0 2.929 1.265 2.929 2.82 0 1.556-1.314 2.82-2.929 2.82zM75.7 68.669c-1.616 0-2.93-1.265-2.93-2.82s1.314-2.82 2.928-2.82c1.617 0 2.931 1.265 2.931 2.82s-1.314 2.82-2.929 2.82zm-6.445-2.82c0 .523.07 1.032.196 1.519l-12.35 6.864a6.552 6.552 0 0 0-4.487-1.756 6.55 6.55 0 0 0-4.486 1.756l-12.35-6.864a6.01 6.01 0 0 0 .195-1.52c0-2.834-1.985-5.228-4.686-5.967V46.154c2.701-.739 4.686-3.134 4.686-5.968a6.02 6.02 0 0 0-.195-1.52l12.35-6.864a6.55 6.55 0 0 0 4.486 1.756c1.743 0 3.326-.67 4.487-1.756l12.351 6.864a5.967 5.967 0 0 0-.197 1.52c0 2.834 1.986 5.23 4.687 5.968V59.88c-2.7.74-4.687 3.133-4.687 5.968zM52.615 81.5c-1.616 0-2.93-1.264-2.93-2.82 0-1.555 1.314-2.82 2.93-2.82 1.615 0 2.93 1.265 2.93 2.82 0 1.556-1.315 2.82-2.93 2.82zM29.528 68.669c-1.615 0-2.929-1.265-2.929-2.82s1.314-2.82 2.93-2.82c1.614 0 2.928 1.265 2.928 2.82s-1.314 2.82-2.929 2.82zM26.6 40.186c0-1.555 1.314-2.82 2.93-2.82 1.614 0 2.928 1.265 2.928 2.82s-1.314 2.82-2.929 2.82c-1.615 0-2.929-1.265-2.929-2.82zm26.014-15.651c1.616 0 2.93 1.265 2.93 2.82s-1.314 2.82-2.93 2.82c-1.615 0-2.929-1.265-2.929-2.82s1.314-2.82 2.93-2.82zM75.7 37.366c1.615 0 2.929 1.265 2.929 2.82s-1.314 2.82-2.929 2.82c-1.616 0-2.93-1.265-2.93-2.82s1.314-2.82 2.93-2.82zM6.444 81.5c-1.616 0-2.93-1.264-2.93-2.82 0-1.555 1.314-2.82 2.93-2.82 1.615 0 2.93 1.265 2.93 2.82 0 1.556-1.315 2.82-2.93 2.82zm0-51.326c-1.616 0-2.93-1.264-2.93-2.82 0-1.554 1.314-2.82 2.93-2.82 1.615 0 2.93 1.266 2.93 2.82 0 1.556-1.315 2.82-2.93 2.82zm92.341-5.64c1.615 0 2.929 1.266 2.929 2.82 0 1.556-1.314 2.82-2.929 2.82-1.616 0-2.93-1.264-2.93-2.82 0-1.554 1.314-2.82 2.93-2.82zm0 47.942c-1.743 0-3.326.67-4.487 1.756l-12.35-6.865c.128-.486.196-.994.196-1.518 0-2.834-1.985-5.229-4.687-5.968V46.154c2.702-.739 4.687-3.134 4.687-5.968 0-.524-.068-1.032-.196-1.52l12.35-6.864a6.552 6.552 0 0 0 4.487 1.756c3.554 0 6.444-2.782 6.444-6.203 0-3.422-2.89-6.205-6.444-6.205s-6.444 2.783-6.444 6.205c0 .524.068 1.033.196 1.519l-12.351 6.865a6.55 6.55 0 0 0-4.486-1.756c-1.743 0-3.326.67-4.487 1.756l-12.35-6.865c.128-.486.196-.995.196-1.518 0-2.836-1.985-5.23-4.687-5.968V1.692C54.372.758 53.585 0 52.615 0c-.971 0-1.758.758-1.758 1.692v19.696c-2.701.737-4.687 3.132-4.687 5.967 0 .524.069 1.033.197 1.519l-12.351 6.865a6.552 6.552 0 0 0-4.486-1.757 6.553 6.553 0 0 0-4.487 1.757l-12.35-6.865a5.96 5.96 0 0 0 .196-1.52c0-3.42-2.891-6.204-6.444-6.204C2.891 21.15 0 23.933 0 27.355c0 3.421 2.891 6.203 6.445 6.203 1.742 0 3.325-.67 4.486-1.756l12.351 6.865a5.955 5.955 0 0 0-.197 1.52c0 2.833 1.986 5.23 4.687 5.967V59.88c-2.701.74-4.687 3.134-4.687 5.968 0 .524.069 1.032.197 1.52l-12.351 6.864a6.548 6.548 0 0 0-4.486-1.757C2.891 72.476 0 75.26 0 78.68c0 3.421 2.891 6.205 6.445 6.205 3.553 0 6.444-2.784 6.444-6.205 0-.524-.068-1.032-.196-1.52l12.35-6.863a6.552 6.552 0 0 0 4.487 1.756 6.55 6.55 0 0 0 4.486-1.756l12.351 6.864a5.96 5.96 0 0 0-.196 1.519c0 2.835 1.985 5.23 4.686 5.969v19.694c0 .934.787 1.692 1.758 1.692s1.757-.758 1.757-1.692V84.648c2.702-.739 4.687-3.133 4.687-5.968 0-.525-.068-1.033-.196-1.52l12.351-6.864a6.546 6.546 0 0 0 4.486 1.757 6.553 6.553 0 0 0 4.487-1.757l12.35 6.865a6.006 6.006 0 0 0-.196 1.519c0 3.421 2.891 6.205 6.444 6.205 3.554 0 6.445-2.784 6.445-6.205 0-3.42-2.892-6.204-6.445-6.204z"/><path id="u" fill-rule="evenodd" d="M.88 3.157l6.848 3.807a1.8 1.8 0 0 0 .878.226 1.77 1.77 0 0 0 1.523-.845c.485-.81.197-1.844-.643-2.312L2.636.227C1.797-.24.723.037.237.847-.25 1.654.039 2.69.88 3.157"/><path id="v" fill-rule="evenodd" d="M1.757 0C.786 0 0 .758 0 1.692v7.614c0 .934.786 1.691 1.757 1.691.971 0 1.758-.758 1.758-1.691V1.692C3.515.758 2.728 0 1.757 0"/><path id="w" fill-rule="evenodd" d="M7.728.227L.878 4.033C.039 4.5-.248 5.536.237 6.345a1.77 1.77 0 0 0 1.524.846c.298 0 .6-.073.877-.227l6.848-3.807c.84-.467 1.129-1.502.644-2.31C9.644.037 8.568-.24 7.728.227"/><path id="x" fill-rule="evenodd" d="M98.785 81.5c-1.615 0-2.929-1.264-2.929-2.82 0-1.555 1.314-2.82 2.929-2.82 1.616 0 2.93 1.265 2.93 2.82 0 1.556-1.314 2.82-2.93 2.82zM75.7 68.669c-1.616 0-2.93-1.265-2.93-2.82s1.314-2.82 2.929-2.82c1.617 0 2.93 1.265 2.93 2.82s-1.314 2.82-2.929 2.82zm-6.445-2.82c0 .523.07 1.032.197 1.519l-12.35 6.864a6.551 6.551 0 0 0-4.487-1.756c-1.743 0-3.326.67-4.487 1.756l-12.35-6.864c.128-.487.196-.995.196-1.52 0-2.834-1.985-5.228-4.687-5.967V46.154c2.702-.739 4.687-3.134 4.687-5.968 0-.524-.068-1.032-.196-1.52l12.35-6.864a6.552 6.552 0 0 0 4.487 1.756 6.55 6.55 0 0 0 4.486-1.756l12.351 6.864a5.967 5.967 0 0 0-.196 1.52c0 2.834 1.985 5.23 4.686 5.968V59.88c-2.7.74-4.687 3.133-4.687 5.968zM52.615 81.5c-1.616 0-2.93-1.264-2.93-2.82 0-1.555 1.314-2.82 2.93-2.82 1.615 0 2.93 1.265 2.93 2.82 0 1.556-1.315 2.82-2.93 2.82zM29.53 68.669c-1.616 0-2.93-1.265-2.93-2.82s1.314-2.82 2.93-2.82c1.615 0 2.93 1.265 2.93 2.82s-1.316 2.82-2.93 2.82zM26.6 40.186c0-1.555 1.314-2.82 2.93-2.82 1.615 0 2.93 1.265 2.93 2.82s-1.315 2.82-2.93 2.82c-1.616 0-2.93-1.265-2.93-2.82zm26.015-15.651c1.615 0 2.93 1.265 2.93 2.82s-1.315 2.82-2.93 2.82c-1.616 0-2.93-1.265-2.93-2.82s1.314-2.82 2.93-2.82zM75.7 37.366c1.615 0 2.929 1.265 2.929 2.82s-1.314 2.82-2.929 2.82c-1.616 0-2.93-1.265-2.93-2.82s1.315-2.82 2.93-2.82zM6.444 81.5c-1.615 0-2.929-1.264-2.929-2.82 0-1.555 1.314-2.82 2.93-2.82 1.614 0 2.928 1.265 2.928 2.82 0 1.556-1.314 2.82-2.929 2.82zm0-51.326c-1.615 0-2.929-1.264-2.929-2.82 0-1.554 1.314-2.82 2.93-2.82 1.614 0 2.928 1.266 2.928 2.82 0 1.556-1.314 2.82-2.929 2.82zm92.341-5.64c1.616 0 2.93 1.266 2.93 2.82 0 1.556-1.314 2.82-2.93 2.82-1.615 0-2.929-1.264-2.929-2.82 0-1.554 1.314-2.82 2.929-2.82zm0 47.942a6.55 6.55 0 0 0-4.486 1.756l-12.351-6.865c.128-.486.196-.994.196-1.518 0-2.834-1.985-5.229-4.687-5.968V46.154c2.702-.739 4.687-3.134 4.687-5.968 0-.524-.068-1.032-.196-1.52l12.351-6.864a6.55 6.55 0 0 0 4.486 1.756c3.554 0 6.445-2.782 6.445-6.203 0-3.422-2.891-6.205-6.445-6.205-3.553 0-6.444 2.783-6.444 6.205 0 .524.069 1.033.196 1.519l-12.35 6.865a6.552 6.552 0 0 0-4.487-1.756 6.55 6.55 0 0 0-4.486 1.756l-12.35-6.865c.127-.486.195-.995.195-1.518 0-2.836-1.985-5.23-4.686-5.968V1.692C54.373.758 53.586 0 52.615 0s-1.757.758-1.757 1.692v19.696c-2.702.737-4.687 3.132-4.687 5.967 0 .524.068 1.033.196 1.519l-12.351 6.865a6.55 6.55 0 0 0-4.486-1.757 6.553 6.553 0 0 0-4.487 1.757l-12.35-6.865a5.96 5.96 0 0 0 .196-1.52c0-3.42-2.891-6.204-6.444-6.204C2.891 21.15 0 23.933 0 27.355c0 3.421 2.891 6.203 6.445 6.203a6.55 6.55 0 0 0 4.486-1.756l12.351 6.865a5.955 5.955 0 0 0-.196 1.52c0 2.833 1.985 5.23 4.687 5.967V59.88c-2.702.74-4.687 3.134-4.687 5.968 0 .524.068 1.032.196 1.52l-12.351 6.864a6.546 6.546 0 0 0-4.486-1.757c-3.554 0-6.444 2.784-6.444 6.204 0 3.421 2.89 6.205 6.444 6.205 3.553 0 6.444-2.784 6.444-6.205 0-.524-.068-1.032-.196-1.52l12.351-6.863a6.55 6.55 0 0 0 4.486 1.756 6.55 6.55 0 0 0 4.486-1.756l12.351 6.864a5.96 5.96 0 0 0-.196 1.519c0 2.835 1.985 5.23 4.687 5.969v19.694c0 .934.787 1.692 1.758 1.692.97 0 1.757-.758 1.757-1.692V84.648c2.702-.739 4.687-3.133 4.687-5.968 0-.525-.068-1.033-.196-1.52l12.35-6.864a6.549 6.549 0 0 0 4.487 1.757 6.55 6.55 0 0 0 4.486-1.757l12.35 6.865a6.005 6.005 0 0 0-.195 1.519c0 3.421 2.89 6.205 6.444 6.205s6.444-2.784 6.444-6.205c0-3.42-2.891-6.204-6.445-6.204z"/><path id="y" fill-rule="evenodd" d="M0 0h13.478v2H0V0z"/><path id="z" fill-rule="evenodd" d="M0 0h1.925v2H0V0z"/><path id="A" fill-rule="evenodd" d="M0 0h2.888v2H0V0z"/></defs></svg>