<svg width="90" height="90" viewBox="0 0 90 90" xmlns="http://www.w3.org/2000/svg" xmlns:xlink="http://www.w3.org/1999/xlink"><title>noun_583405_cc</title><desc>Created using Figma</desc><use xlink:href="#a" transform="translate(0 .29)"/><use xlink:href="#b" transform="translate(40 13.33)"/><use xlink:href="#c" transform="translate(56.52 1.99)"/><use xlink:href="#d" transform="translate(82.4 34.97)"/><use xlink:href="#e" transform="translate(65.57 6.92)"/><use xlink:href="#f" transform="translate(73.22 14.41)"/><use xlink:href="#g" transform="translate(46.67 .08)"/><use xlink:href="#h" transform="translate(78.97 23.96)"/><defs><path id="a" d="M45 85.043c-21.14 0-40.333-19.193-40.333-40.333C4.667 25.27 21.223 8.203 40 5.74V0C17.503 2.49 0 21.547 0 44.707c0 24.853 20.147 45 45 45 23.163 0 42.22-17.504 44.707-40H84.97C82.507 68.487 64.44 85.043 45 85.043z"/><path id="b" d="M36.667 30H9.693a4.97 4.97 0 0 0-3.026-3.027V0H3.333v26.973C1.397 27.663 0 29.493 0 31.667c0 2.76 2.24 5 5 5 2.173 0 4.003-1.397 4.693-3.334h26.974V30z"/><path id="c" d="M6.167 9.04l3.346-5.797A44.59 44.59 0 0 0 1.727 0L0 6.453C2.147 7.13 4.2 8.01 6.167 9.04z"/><path id="d" d="M.847 8.36h6.666A45.097 45.097 0 0 0 6.44 0L0 1.727A38.75 38.75 0 0 1 .847 8.36z"/><path id="e" d="M5.293 9.86l4.727-4.727A45.06 45.06 0 0 0 3.34 0L0 5.78a38.893 38.893 0 0 1 5.293 4.08z"/><path id="f" d="M4.077 10.017L9.86 6.68A45.113 45.113 0 0 0 4.727 0L0 4.727a38.837 38.837 0 0 1 4.077 5.29z"/><path id="g" d="M6.63 7.513l1.727-6.44A44.781 44.781 0 0 0 0 0v6.667c2.267.1 4.483.373 6.63.846z"/><path id="h" d="M2.587 9.517L9.04 7.79A44.486 44.486 0 0 0 5.793 0L0 3.347a37.803 37.803 0 0 1 2.587 6.17z"/></defs></svg>