<svg width="90" height="90" viewBox="0 0 90 90" xmlns="http://www.w3.org/2000/svg" xmlns:xlink="http://www.w3.org/1999/xlink"><title>Group 10</title><desc>Created using Figma</desc><use xlink:href="#a" transform="matrix(-1 0 0 1 89.08 .95)"/><use xlink:href="#b" transform="translate(25.98 43.1)"/><use xlink:href="#c" transform="translate(38.98 27.1)"/><use xlink:href="#d" transform="translate(38.98 51.1)"/><defs><path id="a" fill-rule="evenodd" d="M47.218.688L86.124 0a2 2 0 0 1 2.032 2.031l-.719 38.876a1.998 1.998 0 0 1-.594 1.375l-45.25 45.25a2 2 0 0 1-2.812 0L.593 49.374a2.001 2.001 0 0 1 0-2.843l45.25-45.25a2.002 2.002 0 0 1 1.375-.594zm36.219 39.375L84.125 4l-36.063.688-43.25 43.25 35.375 35.375 43.25-43.25zm-14.25-29.094c-2.051 0-4.102.79-5.656 2.344-3.108 3.107-3.108 8.205 0 11.312 3.107 3.108 8.205 3.108 11.312 0 3.108-3.107 3.108-8.205 0-11.312a7.988 7.988 0 0 0-5.656-2.344zM72 16.125a3.953 3.953 0 0 0-2.813-1.187c-1.02 0-2.054.398-2.844 1.187a3.97 3.97 0 0 0 0 5.657 3.97 3.97 0 0 0 5.656 0 3.969 3.969 0 0 0 0-5.657z"/><path id="b" fill-rule="evenodd" d="M2 0a2 2 0 1 0 0 4h34a2 2 0 1 0 0-4H2z"/><path id="c" fill-rule="evenodd" d="M6 0C2.71 0 0 2.71 0 6s2.71 6 6 6 6-2.71 6-6-2.71-6-6-6zm0 4c1.128 0 2 .872 2 2 0 1.128-.872 2-2 2-1.128 0-2-.872-2-2 0-1.128.872-2 2-2z"/><path id="d" fill-rule="evenodd" d="M6 0C2.71 0 0 2.71 0 6s2.71 6 6 6 6-2.71 6-6-2.71-6-6-6zm0 4c1.128 0 2 .872 2 2 0 1.128-.872 2-2 2-1.128 0-2-.872-2-2 0-1.128.872-2 2-2z"/></defs></svg>